<svg width="372" height="220" viewBox="0 0 372 220" fill="none" xmlns="http://www.w3.org/2000/svg">
<g clip-path="url(#clip0_1700_122850)">
<rect width="372" height="220" rx="8" fill="white"/>
<g opacity="0.25">
<path d="M317 -6.47712H317.008L317.016 -6.47739C339.263 -7.20669 353.5 9.82331 353.5 30.0114C353.5 50.1634 337.159 66.5 317 66.5C296.841 66.5 280.5 50.1634 280.5 30.0114C280.5 9.85952 296.841 -6.47712 317 -6.47712Z" fill="#58BC8C"/>
<path d="M317 -6.47712H317.008L317.016 -6.47739C339.263 -7.20669 353.5 9.82331 353.5 30.0114C353.5 50.1634 337.159 66.5 317 66.5C296.841 66.5 280.5 50.1634 280.5 30.0114C280.5 9.85952 296.841 -6.47712 317 -6.47712Z" fill="white" fill-opacity="0.7"/>
<path d="M317 -6.47712H317.008L317.016 -6.47739C339.263 -7.20669 353.5 9.82331 353.5 30.0114C353.5 50.1634 337.159 66.5 317 66.5C296.841 66.5 280.5 50.1634 280.5 30.0114C280.5 9.85952 296.841 -6.47712 317 -6.47712Z" stroke="#58BC8C"/>
<path d="M317 -6.47712H317.008L317.016 -6.47739C339.263 -7.20669 353.5 9.82331 353.5 30.0114C353.5 50.1634 337.159 66.5 317 66.5C296.841 66.5 280.5 50.1634 280.5 30.0114C280.5 9.85952 296.841 -6.47712 317 -6.47712Z" stroke="white" stroke-opacity="0.7"/>
<circle cx="319" cy="27" r="36.5" fill="#58BC8C"/>
<circle cx="319" cy="27" r="36.5" fill="white" fill-opacity="0.9"/>
<circle cx="319" cy="27" r="36.5" stroke="#58BC8C"/>
<circle cx="319" cy="27" r="36.5" stroke="white" stroke-opacity="0.7"/>
<circle cx="319" cy="27" r="30.5" stroke="#58BC8C"/>
<circle cx="319" cy="27" r="30.5" stroke="white" stroke-opacity="0.7"/>
<path d="M317.41 24.0883L307.705 15.275C306.095 13.8126 303.667 13.8622 302.248 15.5095C300.744 17.2594 300.933 19.9925 302.624 21.533L307.06 25.5607C308.456 26.8288 308.643 29.0631 307.478 30.5512L303.855 35.1586C302.511 36.8687 302.585 39.4733 304.138 41.0148C305.788 42.6491 308.334 42.4782 309.75 40.6825L317.934 30.2747C318.653 29.36 318.927 28.2014 318.794 27.0875C318.74 25.9723 318.277 24.8754 317.415 24.0879L317.41 24.0883Z" fill="#58BC8C"/>
<path d="M317.41 24.0883L307.705 15.275C306.095 13.8126 303.667 13.8622 302.248 15.5095C300.744 17.2594 300.933 19.9925 302.624 21.533L307.06 25.5607C308.456 26.8288 308.643 29.0631 307.478 30.5512L303.855 35.1586C302.511 36.8687 302.585 39.4733 304.138 41.0148C305.788 42.6491 308.334 42.4782 309.75 40.6825L317.934 30.2747C318.653 29.36 318.927 28.2014 318.794 27.0875C318.74 25.9723 318.277 24.8754 317.415 24.0879L317.41 24.0883Z" fill="white" fill-opacity="0.7"/>
<path d="M336.04 22.5209L326.335 13.7077C324.725 12.2452 322.297 12.2948 320.878 13.9421C319.374 15.692 319.563 18.4251 321.254 19.9657L325.689 23.9933C327.086 25.2614 327.273 27.4958 326.108 28.9838L322.485 33.5913C321.14 35.3013 321.215 37.9059 322.768 39.4475C324.418 41.0817 326.964 40.9108 328.38 39.1151L336.564 28.7073C337.283 27.7926 337.556 26.634 337.424 25.5201C337.37 24.4049 336.907 23.308 336.045 22.5205L336.04 22.5209Z" fill="#58BC8C"/>
<path d="M336.04 22.5209L326.335 13.7077C324.725 12.2452 322.297 12.2948 320.878 13.9421C319.374 15.692 319.563 18.4251 321.254 19.9657L325.689 23.9933C327.086 25.2614 327.273 27.4958 326.108 28.9838L322.485 33.5913C321.14 35.3013 321.215 37.9059 322.768 39.4475C324.418 41.0817 326.964 40.9108 328.38 39.1151L336.564 28.7073C337.283 27.7926 337.556 26.634 337.424 25.5201C337.37 24.4049 336.907 23.308 336.045 22.5205L336.04 22.5209Z" fill="white" fill-opacity="0.7"/>
</g>
<path d="M256.979 22.0215V38.1269M248.229 30.0742H265.729" stroke="#58BC8C" stroke-width="3" stroke-linecap="round" stroke-linejoin="round"/>
<path d="M256.979 22.0215V38.1269M248.229 30.0742H265.729" stroke="white" stroke-opacity="0.7" stroke-width="3" stroke-linecap="round" stroke-linejoin="round"/>
<g opacity="0.7">
<path d="M38.1102 137.164L38.1171 137.16L38.1239 137.155C64.8838 118.911 95.7135 128.838 111.512 153.735C127.292 178.601 120.008 211.494 95.2488 227.206C70.4899 242.917 37.626 235.501 21.8466 210.635C6.06712 185.769 13.3513 152.875 38.1102 137.164Z" fill="#58BC8C"/>
<path d="M38.1102 137.164L38.1171 137.16L38.1239 137.155C64.8838 118.911 95.7135 128.838 111.512 153.735C127.292 178.601 120.008 211.494 95.2488 227.206C70.4899 242.917 37.626 235.501 21.8466 210.635C6.06712 185.769 13.3513 152.875 38.1102 137.164Z" fill="white" fill-opacity="0.7"/>
<path d="M38.1102 137.164L38.1171 137.16L38.1239 137.155C64.8838 118.911 95.7135 128.838 111.512 153.735C127.292 178.601 120.008 211.494 95.2488 227.206C70.4899 242.917 37.626 235.501 21.8466 210.635C6.06712 185.769 13.3513 152.875 38.1102 137.164Z" stroke="#58BC8C"/>
<path d="M38.1102 137.164L38.1171 137.16L38.1239 137.155C64.8838 118.911 95.7135 128.838 111.512 153.735C127.292 178.601 120.008 211.494 95.2488 227.206C70.4899 242.917 37.626 235.501 21.8466 210.635C6.06712 185.769 13.3513 152.875 38.1102 137.164Z" stroke="white" stroke-opacity="0.7"/>
<circle cx="71.5694" cy="178.163" r="53.3206" transform="rotate(-32.3984 71.5694 178.163)" fill="#58BC8C"/>
<circle cx="71.5694" cy="178.163" r="53.3206" transform="rotate(-32.3984 71.5694 178.163)" fill="white" fill-opacity="0.9"/>
<circle cx="71.5694" cy="178.163" r="53.3206" transform="rotate(-32.3984 71.5694 178.163)" stroke="#58BC8C"/>
<circle cx="71.5694" cy="178.163" r="53.3206" transform="rotate(-32.3984 71.5694 178.163)" stroke="white" stroke-opacity="0.7"/>
<circle cx="71.5705" cy="178.165" r="45.7857" transform="rotate(-32.3984 71.5705 178.165)" fill="#58BC8C"/>
<circle cx="71.5705" cy="178.165" r="45.7857" transform="rotate(-32.3984 71.5705 178.165)" fill="white" fill-opacity="0.9"/>
<circle cx="71.5705" cy="178.165" r="45.7857" transform="rotate(-32.3984 71.5705 178.165)" stroke="#58BC8C"/>
<circle cx="71.5705" cy="178.165" r="45.7857" transform="rotate(-32.3984 71.5705 178.165)" stroke="white" stroke-opacity="0.7"/>
<g opacity="0.2">
<path d="M67.6283 174.524L49.8709 164.271C46.9244 162.569 43.2537 163.462 41.662 166.465C39.9758 169.654 41.1989 173.782 44.2947 175.576L52.4098 180.262C54.9648 181.737 56.0138 185.101 54.7527 187.775L50.8267 196.059C49.3696 199.133 50.3747 203.103 53.2607 204.945C56.3254 206.896 60.1344 205.778 61.6715 202.548L70.5401 183.835C71.3195 182.19 71.3387 180.322 70.7557 178.658C70.2922 176.966 69.2141 175.439 67.6356 174.521L67.6283 174.524Z" fill="#58BC8C"/>
<path d="M67.6283 174.524L49.8709 164.271C46.9244 162.569 43.2537 163.462 41.662 166.465C39.9758 169.654 41.1989 173.782 44.2947 175.576L52.4098 180.262C54.9648 181.737 56.0138 185.101 54.7527 187.775L50.8267 196.059C49.3696 199.133 50.3747 203.103 53.2607 204.945C56.3254 206.896 60.1344 205.778 61.6715 202.548L70.5401 183.835C71.3195 182.19 71.3387 180.322 70.7557 178.658C70.2922 176.966 69.2141 175.439 67.6356 174.521L67.6283 174.524Z" fill="white" fill-opacity="0.4"/>
<path d="M95.39 165.856L77.6326 155.603C74.6861 153.901 71.0154 154.794 69.4237 157.797C67.7375 160.986 68.9606 165.114 72.0564 166.908L80.1715 171.594C82.7265 173.069 83.7755 176.433 82.5145 179.107L78.5884 187.391C77.1313 190.465 78.1364 194.435 81.0224 196.277C84.0872 198.228 87.8961 197.11 89.4332 193.88L98.3018 175.167C99.0812 173.522 99.1004 171.654 98.5174 169.99C98.0539 168.298 96.9758 166.771 95.3973 165.853L95.39 165.856Z" fill="#58BC8C"/>
<path d="M95.39 165.856L77.6326 155.603C74.6861 153.901 71.0154 154.794 69.4237 157.797C67.7375 160.986 68.9606 165.114 72.0564 166.908L80.1715 171.594C82.7265 173.069 83.7755 176.433 82.5145 179.107L78.5884 187.391C77.1313 190.465 78.1364 194.435 81.0224 196.277C84.0872 198.228 87.8961 197.11 89.4332 193.88L98.3018 175.167C99.0812 173.522 99.1004 171.654 98.5174 169.99C98.0539 168.298 96.9758 166.771 95.3973 165.853L95.39 165.856Z" fill="white" fill-opacity="0.4"/>
</g>
</g>
<path d="M164.105 171.261V199.991M148.877 185.626H179.333" stroke="#58BC8C" stroke-width="6" stroke-linecap="round" stroke-linejoin="round"/>
<path d="M164.105 171.261V199.991M148.877 185.626H179.333" stroke="white" stroke-opacity="0.9" stroke-width="6" stroke-linecap="round" stroke-linejoin="round"/>
</g>
<defs>
<clipPath id="clip0_1700_122850">
<rect width="372" height="220" rx="8" fill="white"/>
</clipPath>
</defs>
</svg>
