<svg width="395" height="232" viewBox="0 0 395 232" fill="none" xmlns="http://www.w3.org/2000/svg">
<path d="M126.589 105.34L126.294 105.037L31.5628 7.71649C16.1938 -8.07255 -8.87666 -9.55379 -24.8981 5.49425C-41.9298 21.525 -42.3404 48.674 -26.2233 65.284L17.0682 109.758C31.0769 124.15 31.075 147.515 17.0695 161.958L17.0682 161.96L-25.2844 205.47C-40.6642 221.27 -42.1137 247.071 -27.4475 263.551C-11.8554 281.034 14.5234 281.453 30.6751 264.913L126.589 105.34ZM126.589 105.34H126.636C134.64 113.785 138.374 124.86 137.971 135.795L137.969 135.832L137.97 135.869C138.379 146.991 134.549 158.2 126.346 166.627L30.6762 264.912L126.589 105.34Z" stroke="white" stroke-width="2"/>
<path opacity="0.3" d="M381.901 105.34L381.607 105.037L286.875 7.71649C271.506 -8.07255 246.436 -9.55379 230.414 5.49425C213.383 21.525 212.972 48.674 229.089 65.284L272.381 109.758C286.389 124.15 286.387 147.515 272.382 161.958L272.381 161.96L230.028 205.47C214.648 221.27 213.199 247.071 227.865 263.55C243.457 281.034 269.836 281.453 285.988 264.913L381.901 105.34ZM381.901 105.34H381.949C389.953 113.785 393.687 124.86 393.283 135.795L393.282 135.832L393.283 135.869C393.692 146.991 389.861 158.2 381.659 166.627L285.989 264.912L381.901 105.34Z" fill="url(#paint0_linear_8206_32683)" fill-opacity="0.5" stroke="url(#paint1_linear_8206_32683)" stroke-width="2"/>
<defs>
<linearGradient id="paint0_linear_8206_32683" x1="332.286" y1="273.732" x2="200.04" y2="74.1105" gradientUnits="userSpaceOnUse">
<stop stop-color="#E1E6EF"/>
<stop offset="1" stop-color="#E1E6EF"/>
</linearGradient>
<linearGradient id="paint1_linear_8206_32683" x1="305.312" y1="-6.00049" x2="305.312" y2="278" gradientUnits="userSpaceOnUse">
<stop stop-color="white"/>
<stop offset="1" stop-color="white" stop-opacity="0"/>
</linearGradient>
</defs>
</svg>
