<svg width="884" height="232" viewBox="0 0 884 232" fill="none" xmlns="http://www.w3.org/2000/svg">
<mask id="mask0_2827_187970" style="mask-type:alpha" maskUnits="userSpaceOnUse" x="0" y="0" width="884" height="232">
<rect width="884" height="232" rx="8" fill="#F8FAFC"/>
</mask>
<g mask="url(#mask0_2827_187970)">
<path d="M391.415 85.0297L391.71 85.3402H391.756C399.577 93.7829 403.229 104.858 402.834 115.797L402.833 115.833L402.834 115.868C403.234 126.998 399.485 138.21 391.465 146.636L297.912 244.921C282.129 261.45 256.36 261.033 241.122 243.56C226.776 227.076 228.196 201.263 243.236 185.462L284.652 141.952L284.653 141.951C298.347 127.509 298.349 104.156 284.652 89.7669L242.318 45.2925C226.556 28.6801 226.958 1.51921 243.614 -14.5125C259.268 -29.5486 283.758 -28.0718 298.779 -12.2911L391.415 85.0297Z" stroke="white" stroke-width="2"/>
<path d="M641.079 85.0297L641.374 85.3402H641.42C649.241 93.7829 652.893 104.858 652.498 115.797L652.497 115.833L652.498 115.869C652.898 126.998 649.149 138.21 641.13 146.636L547.576 244.921C531.793 261.45 506.024 261.033 490.786 243.56C476.441 227.076 477.86 201.263 492.901 185.462L534.316 141.952L534.318 141.951C548.011 127.509 548.013 104.156 534.316 89.7669L491.982 45.2925C476.22 28.6801 476.622 1.51921 493.278 -14.5125C508.932 -29.5486 533.422 -28.0718 548.443 -12.2911L641.079 85.0297Z" fill="url(#paint0_linear_2827_187970)" fill-opacity="0.25" stroke="url(#paint1_linear_2827_187970)" stroke-width="2"/>
</g>
<defs>
<linearGradient id="paint0_linear_2827_187970" x1="592.873" y1="253.732" x2="459.496" y2="56.8589" gradientUnits="userSpaceOnUse">
<stop stop-color="#CBD5E1"/>
<stop offset="1" stop-color="white"/>
</linearGradient>
<linearGradient id="paint1_linear_2827_187970" x1="566.496" y1="-26" x2="566.496" y2="258" gradientUnits="userSpaceOnUse">
<stop stop-color="white"/>
<stop offset="1" stop-color="white" stop-opacity="0"/>
</linearGradient>
</defs>
</svg>
