<svg width="1064" height="298" viewBox="0 0 1064 298" fill="none" xmlns="http://www.w3.org/2000/svg">
<mask id="mask0_8028_13861" style="mask-type:alpha" maskUnits="userSpaceOnUse" x="0" y="0" width="1064" height="298">
<rect width="1064" height="298" rx="8" fill="#F8FAFC"/>
</mask>
<g mask="url(#mask0_8028_13861)">
<path d="M481.415 118.03L481.71 118.34H481.756C489.577 126.783 493.229 137.858 492.834 148.797L492.833 148.833L492.834 148.868C493.234 159.998 489.485 171.21 481.465 179.636L387.912 277.921C372.129 294.45 346.36 294.033 331.122 276.56C316.776 260.076 318.196 234.263 333.236 218.462L374.652 174.952L374.653 174.951C388.347 160.509 388.349 137.156 374.652 122.767L332.318 78.2925C316.556 61.6801 316.958 34.5192 333.614 18.4875C349.268 3.45143 373.758 4.92816 388.779 20.7089L481.415 118.03Z" stroke="white" stroke-width="2"/>
<path d="M731.079 118.03L731.374 118.34H731.42C739.241 126.783 742.893 137.858 742.498 148.797L742.497 148.833L742.498 148.869C742.898 159.998 739.149 171.21 731.13 179.636L637.576 277.921C621.793 294.45 596.024 294.033 580.786 276.56C566.441 260.076 567.86 234.263 582.901 218.462L624.316 174.952L624.318 174.951C638.011 160.509 638.013 137.156 624.316 122.767L581.982 78.2925C566.22 61.6801 566.622 34.5192 583.278 18.4875C598.932 3.45143 623.422 4.92815 638.443 20.7089L731.079 118.03Z" fill="url(#paint0_linear_8028_13861)" fill-opacity="0.25" stroke="url(#paint1_linear_8028_13861)" stroke-width="2"/>
</g>
<defs>
<linearGradient id="paint0_linear_8028_13861" x1="682.873" y1="286.732" x2="549.496" y2="89.8589" gradientUnits="userSpaceOnUse">
<stop stop-color="#CBD5E1"/>
<stop offset="1" stop-color="white"/>
</linearGradient>
<linearGradient id="paint1_linear_8028_13861" x1="656.496" y1="7" x2="656.496" y2="291" gradientUnits="userSpaceOnUse">
<stop stop-color="white"/>
<stop offset="1" stop-color="white" stop-opacity="0"/>
</linearGradient>
</defs>
</svg>
