<svg width="65" height="72" viewBox="0 0 65 72" fill="none" xmlns="http://www.w3.org/2000/svg">
<path opacity="0.45" d="M60.6763 25.3023C60.6703 25.3023 60.6645 25.2999 60.6602 25.2958L26.4287 -7.5822C20.7475 -13.0388 11.4612 -13.5645 5.51579 -8.34355C-0.788266 -2.79634 -0.939281 6.5941 5.02504 12.3407L20.672 27.3689C25.5982 32.1003 25.5982 39.7866 20.672 44.5362L5.36476 59.2382C-0.316438 64.6948 -0.863764 73.6137 4.57207 79.3241C10.3476 85.3789 20.1247 85.5239 26.1078 79.7954L60.6857 46.5847C63.7245 43.6661 65.1401 39.7866 64.9891 35.9435C65.14 32.1213 63.7266 28.2448 60.6925 25.3088C60.6881 25.3046 60.6823 25.3023 60.6763 25.3023Z" fill="#FADDB3"/>
</svg>
