<svg width="65" height="72" viewBox="0 0 65 72" fill="none" xmlns="http://www.w3.org/2000/svg">
<path opacity="0.45" d="M60.6763 23.3023C60.6703 23.3023 60.6645 23.2999 60.6602 23.2958L26.4287 -9.5822C20.7475 -15.0388 11.4612 -15.5645 5.51579 -10.3435C-0.788266 -4.79634 -0.939281 4.5941 5.02504 10.3407L20.672 25.3689C25.5982 30.1003 25.5982 37.7866 20.672 42.5362L5.36476 57.2382C-0.316438 62.6948 -0.863764 71.6137 4.57207 77.3241C10.3476 83.3789 20.1247 83.5239 26.1078 77.7954L60.6857 44.5847C63.7245 41.6661 65.1401 37.7866 64.9891 33.9435C65.14 30.1213 63.7266 26.2448 60.6925 23.3088C60.6881 23.3046 60.6823 23.3023 60.6763 23.3023Z" fill="#FAD4D1"/>
</svg>
