<svg width="790" height="152" viewBox="0 0 790 152" fill="none" xmlns="http://www.w3.org/2000/svg">
<g clip-path="url(#clip0_3292_24991)">
<mask id="mask0_3292_24991" style="mask-type:alpha" maskUnits="userSpaceOnUse" x="0" y="-928" width="960" height="1080">
<path d="M0 -928L960 -928L960 152L0 152L0 -928Z" fill="url(#paint0_linear_3292_24991)"/>
</mask>
<g mask="url(#mask0_3292_24991)">
<path d="M37.8583 22.7359C37.8572 22.7359 37.856 22.7354 37.8552 22.7346L31.0908 15.9128C29.9681 14.7806 28.1331 14.6715 26.9582 15.7548C25.7125 16.9058 25.6827 18.8542 26.8613 20.0465L29.9532 23.1647C30.9267 24.1464 30.9267 25.7412 29.9532 26.7267L26.9284 29.7772C25.8057 30.9094 25.6976 32.7599 26.7717 33.9448C27.913 35.201 29.845 35.2311 31.0274 34.0426L37.8602 27.1517C38.4607 26.5462 38.7404 25.7412 38.7106 24.9438C38.7404 24.1507 38.4611 23.3464 37.8615 22.7372C37.8607 22.7364 37.8595 22.7359 37.8583 22.7359Z" fill="#6D98F5"/>
<path d="M37.8583 68.3675C37.8571 68.3675 37.856 68.3671 37.8551 68.3662L31.0908 61.8693C29.9681 60.7911 28.1331 60.6872 26.9582 61.7189C25.7125 62.815 25.6827 64.6707 26.8613 65.8062L29.9532 68.7759C30.9267 69.7109 30.9267 71.2297 29.9532 72.1683L26.9284 75.0735C25.8057 76.1518 25.6976 77.9142 26.7717 79.0426C27.913 80.2391 29.845 80.2678 31.0274 79.1358L37.8602 72.5731C38.4607 71.9963 38.7404 71.2297 38.7106 70.4703C38.7404 69.715 38.4611 68.949 37.8615 68.3688C37.8607 68.368 37.8595 68.3675 37.8583 68.3675Z" fill="#6D98F5"/>
<path d="M37.8583 113.368C37.8571 113.368 37.856 113.367 37.8551 113.366L31.0908 106.869C29.9681 105.791 28.1331 105.687 26.9582 106.719C25.7125 107.815 25.6827 109.671 26.8613 110.806L29.9532 113.776C30.9267 114.711 30.9267 116.23 29.9532 117.168L26.9284 120.074C25.8057 121.152 25.6976 122.914 26.7717 124.043C27.913 125.239 29.845 125.268 31.0274 124.136L37.8602 117.573C38.4607 116.996 38.7404 116.23 38.7106 115.47C38.7404 114.715 38.4611 113.949 37.8615 113.369C37.8607 113.368 37.8595 113.368 37.8583 113.368Z" fill="#6D98F5"/>
<path d="M37.8583 158.736C37.8572 158.736 37.856 158.735 37.8552 158.735L31.0908 151.913C29.9681 150.781 28.1331 150.672 26.9582 151.755C25.7125 152.906 25.6827 154.854 26.8613 156.047L29.9532 159.165C30.9267 160.146 30.9267 161.741 29.9532 162.727L26.9284 165.777C25.8057 166.909 25.6976 168.76 26.7717 169.945C27.913 171.201 29.845 171.231 31.0274 170.043L37.8602 163.152C38.4607 162.546 38.7404 161.741 38.7106 160.944C38.7404 160.151 38.4611 159.346 37.8615 158.737C37.8607 158.736 37.8595 158.736 37.8583 158.736Z" fill="#6D98F5"/>
<path d="M68.1738 -0.264097C68.1726 -0.264097 68.1714 -0.264571 68.1706 -0.265412L61.4062 -7.08721C60.2835 -8.21938 58.4485 -8.32845 57.2737 -7.24518C56.0279 -6.09421 55.9981 -4.14581 57.1767 -2.95346L60.2686 0.164703C61.2421 1.14642 61.2421 2.74122 60.2686 3.7267L57.2438 6.77718C56.1212 7.90935 56.013 9.75993 57.0872 10.9448C58.2285 12.201 60.1605 12.2311 61.3428 11.0426L68.1756 4.15174C68.7761 3.54616 69.0558 2.74123 69.026 1.94382C69.0558 1.15075 68.7765 0.346413 68.1769 -0.262768C68.1761 -0.263616 68.175 -0.264097 68.1738 -0.264097Z" fill="#6D98F5"/>
<path d="M68.1738 45.3675C68.1726 45.3675 68.1714 45.3671 68.1706 45.3662L61.4062 38.8693C60.2835 37.7911 58.4485 37.6872 57.2737 38.7189C56.0279 39.815 55.9981 41.6707 57.1767 42.8062L60.2686 45.7759C61.2421 46.7109 61.2421 48.2297 60.2686 49.1683L57.2438 52.0735C56.1212 53.1518 56.013 54.9142 57.0872 56.0426C58.2285 57.2391 60.1605 57.2678 61.3428 56.1358L68.1756 49.5731C68.7761 48.9963 69.0558 48.2297 69.026 47.4703C69.0558 46.715 68.7765 45.949 68.177 45.3688C68.1761 45.368 68.175 45.3675 68.1738 45.3675Z" fill="#6D98F5"/>
<path d="M68.1738 90.3675C68.1726 90.3675 68.1714 90.3671 68.1706 90.3662L61.4062 83.8693C60.2835 82.7911 58.4485 82.6872 57.2737 83.7189C56.0279 84.815 55.9981 86.6707 57.1767 87.8062L60.2686 90.7759C61.2421 91.7109 61.2421 93.2297 60.2686 94.1683L57.2438 97.0735C56.1212 98.1518 56.013 99.9142 57.0872 101.043C58.2285 102.239 60.1605 102.268 61.3428 101.136L68.1756 94.5731C68.7761 93.9963 69.0558 93.2297 69.026 92.4703C69.0558 91.715 68.7765 90.949 68.177 90.3688C68.1761 90.368 68.175 90.3675 68.1738 90.3675Z" fill="#6D98F5"/>
<path d="M68.1738 136.368C68.1726 136.368 68.1714 136.367 68.1706 136.366L61.4062 129.869C60.2835 128.791 58.4485 128.687 57.2737 129.719C56.0279 130.815 55.9981 132.671 57.1767 133.806L60.2686 136.776C61.2421 137.711 61.2421 139.23 60.2686 140.168L57.2438 143.074C56.1212 144.152 56.013 145.914 57.0872 147.043C58.2285 148.239 60.1605 148.268 61.3428 147.136L68.1756 140.573C68.7761 139.996 69.0558 139.23 69.026 138.47C69.0558 137.715 68.7765 136.949 68.177 136.369C68.1761 136.368 68.175 136.368 68.1738 136.368Z" fill="#6D98F5"/>
<path d="M98.4882 22.7359C98.487 22.7359 98.4859 22.7354 98.4851 22.7346L91.7206 15.9128C90.598 14.7806 88.763 14.6715 87.5881 15.7548C86.3424 16.9058 86.3125 18.8542 87.4911 20.0465L90.5831 23.1647C91.5565 24.1464 91.5565 25.7412 90.5831 26.7267L87.5583 29.7772C86.4356 30.9094 86.3275 32.7599 87.4016 33.9448C88.5429 35.201 90.4749 35.2311 91.6572 34.0426L98.4901 27.1517C99.0906 26.5462 99.3703 25.7412 99.3405 24.9438C99.3703 24.1507 99.091 23.3464 98.4914 22.7372C98.4906 22.7364 98.4894 22.7359 98.4882 22.7359Z" fill="#6D98F5"/>
<path d="M98.4882 68.3675C98.487 68.3675 98.4859 68.3671 98.485 68.3662L91.7206 61.8693C90.598 60.7911 88.763 60.6872 87.5881 61.7189C86.3424 62.815 86.3125 64.6707 87.4911 65.8062L90.5831 68.7759C91.5565 69.7109 91.5565 71.2297 90.5831 72.1683L87.5583 75.0735C86.4356 76.1518 86.3275 77.9142 87.4016 79.0426C88.5429 80.2391 90.4749 80.2678 91.6572 79.1358L98.4901 72.5731C99.0906 71.9963 99.3703 71.2297 99.3405 70.4703C99.3703 69.715 99.091 68.949 98.4914 68.3688C98.4906 68.368 98.4894 68.3675 98.4882 68.3675Z" fill="#6D98F5"/>
<path d="M98.4882 113.368C98.487 113.368 98.4859 113.367 98.485 113.366L91.7206 106.869C90.598 105.791 88.763 105.687 87.5881 106.719C86.3424 107.815 86.3125 109.671 87.4911 110.806L90.5831 113.776C91.5565 114.711 91.5565 116.23 90.5831 117.168L87.5583 120.074C86.4356 121.152 86.3275 122.914 87.4016 124.043C88.5429 125.239 90.4749 125.268 91.6572 124.136L98.4901 117.573C99.0906 116.996 99.3703 116.23 99.3405 115.47C99.3703 114.715 99.091 113.949 98.4914 113.369C98.4906 113.368 98.4894 113.368 98.4882 113.368Z" fill="#6D98F5"/>
<path d="M98.4882 158.736C98.487 158.736 98.4859 158.735 98.4851 158.735L91.7206 151.913C90.598 150.781 88.763 150.672 87.5881 151.755C86.3424 152.906 86.3125 154.854 87.4911 156.047L90.5831 159.165C91.5565 160.146 91.5565 161.741 90.5831 162.727L87.5583 165.777C86.4356 166.909 86.3275 168.76 87.4016 169.945C88.5429 171.201 90.4749 171.231 91.6572 170.043L98.4901 163.152C99.0906 162.546 99.3703 161.741 99.3405 160.944C99.3703 160.151 99.091 159.346 98.4914 158.737C98.4906 158.736 98.4894 158.736 98.4882 158.736Z" fill="#6D98F5"/>
<path d="M128.804 -0.264097C128.802 -0.264097 128.801 -0.264571 128.8 -0.265412L122.036 -7.08721C120.913 -8.21938 119.078 -8.32845 117.904 -7.24518C116.658 -6.09421 116.628 -4.14581 117.807 -2.95346L120.899 0.164703C121.872 1.14642 121.872 2.74122 120.899 3.7267L117.874 6.77718C116.751 7.90935 116.643 9.75993 117.717 10.9448C118.858 12.201 120.79 12.2311 121.973 11.0426L128.806 4.15174C129.406 3.54616 129.686 2.74123 129.656 1.94382C129.686 1.15075 129.406 0.346413 128.807 -0.262768C128.806 -0.263616 128.805 -0.264097 128.804 -0.264097Z" fill="#6D98F5"/>
<path d="M128.804 45.3675C128.802 45.3675 128.801 45.3671 128.8 45.3662L122.036 38.8693C120.913 37.7911 119.078 37.6872 117.904 38.7189C116.658 39.815 116.628 41.6707 117.807 42.8062L120.899 45.7759C121.872 46.7109 121.872 48.2297 120.899 49.1683L117.874 52.0735C116.751 53.1518 116.643 54.9142 117.717 56.0426C118.858 57.2391 120.79 57.2678 121.973 56.1358L128.806 49.5731C129.406 48.9963 129.686 48.2297 129.656 47.4703C129.686 46.715 129.406 45.949 128.807 45.3688C128.806 45.368 128.805 45.3675 128.804 45.3675Z" fill="#6D98F5"/>
<path d="M128.804 90.3675C128.802 90.3675 128.801 90.3671 128.8 90.3662L122.036 83.8693C120.913 82.7911 119.078 82.6872 117.904 83.7189C116.658 84.815 116.628 86.6707 117.807 87.8062L120.899 90.7759C121.872 91.7109 121.872 93.2297 120.899 94.1683L117.874 97.0735C116.751 98.1518 116.643 99.9142 117.717 101.043C118.858 102.239 120.79 102.268 121.973 101.136L128.806 94.5731C129.406 93.9963 129.686 93.2297 129.656 92.4703C129.686 91.715 129.406 90.949 128.807 90.3688C128.806 90.368 128.805 90.3675 128.804 90.3675Z" fill="#6D98F5"/>
<path d="M128.804 136.368C128.802 136.368 128.801 136.367 128.8 136.366L122.036 129.869C120.913 128.791 119.078 128.687 117.904 129.719C116.658 130.815 116.628 132.671 117.807 133.806L120.899 136.776C121.872 137.711 121.872 139.23 120.899 140.168L117.874 143.074C116.751 144.152 116.643 145.914 117.717 147.043C118.858 148.239 120.79 148.268 121.973 147.136L128.806 140.573C129.406 139.996 129.686 139.23 129.656 138.47C129.686 137.715 129.406 136.949 128.807 136.369C128.806 136.368 128.805 136.368 128.804 136.368Z" fill="#6D98F5"/>
<path d="M159.118 22.7359C159.117 22.7359 159.116 22.7354 159.115 22.7346L152.351 15.9128C151.228 14.7806 149.393 14.6715 148.218 15.7548C146.972 16.9058 146.942 18.8542 148.121 20.0465L151.213 23.1647C152.186 24.1464 152.186 25.7412 151.213 26.7267L148.188 29.7772C147.066 30.9094 146.957 32.7599 148.032 33.9448C149.173 35.201 151.105 35.2311 152.287 34.0426L159.12 27.1517C159.72 26.5462 160 25.7412 159.97 24.9438C160 24.1507 159.721 23.3464 159.121 22.7372C159.12 22.7364 159.119 22.7359 159.118 22.7359Z" fill="#6D98F5"/>
<path d="M159.118 68.3675C159.117 68.3675 159.116 68.3671 159.115 68.3662L152.351 61.8693C151.228 60.7911 149.393 60.6872 148.218 61.7189C146.972 62.815 146.942 64.6707 148.121 65.8062L151.213 68.7759C152.186 69.7109 152.186 71.2297 151.213 72.1683L148.188 75.0735C147.066 76.1518 146.957 77.9142 148.032 79.0426C149.173 80.2391 151.105 80.2678 152.287 79.1358L159.12 72.5731C159.72 71.9963 160 71.2297 159.97 70.4703C160 69.715 159.721 68.949 159.121 68.3688C159.12 68.368 159.119 68.3675 159.118 68.3675Z" fill="#6D98F5"/>
<path d="M159.118 113.368C159.117 113.368 159.116 113.367 159.115 113.366L152.351 106.869C151.228 105.791 149.393 105.687 148.218 106.719C146.972 107.815 146.942 109.671 148.121 110.806L151.213 113.776C152.186 114.711 152.186 116.23 151.213 117.168L148.188 120.074C147.066 121.152 146.957 122.914 148.032 124.043C149.173 125.239 151.105 125.268 152.287 124.136L159.12 117.573C159.72 116.996 160 116.23 159.97 115.47C160 114.715 159.721 113.949 159.121 113.369C159.12 113.368 159.119 113.368 159.118 113.368Z" fill="#6D98F5"/>
<path d="M159.118 158.736C159.117 158.736 159.116 158.735 159.115 158.735L152.351 151.913C151.228 150.781 149.393 150.672 148.218 151.755C146.972 152.906 146.942 154.854 148.121 156.047L151.213 159.165C152.186 160.146 152.186 161.741 151.213 162.727L148.188 165.777C147.066 166.909 146.957 168.76 148.032 169.945C149.173 171.201 151.105 171.231 152.287 170.043L159.12 163.152C159.72 162.546 160 161.741 159.97 160.944C160 160.151 159.721 159.346 159.121 158.737C159.12 158.736 159.119 158.736 159.118 158.736Z" fill="#6D98F5"/>
<path d="M189.434 -0.264097C189.432 -0.264097 189.431 -0.264571 189.43 -0.265412L182.666 -7.08721C181.543 -8.21938 179.708 -8.32845 178.533 -7.24518C177.288 -6.09421 177.258 -4.14581 178.436 -2.95346L181.528 0.164703C182.502 1.14642 182.502 2.74122 181.528 3.7267L178.504 6.77718C177.381 7.90935 177.273 9.75993 178.347 10.9448C179.488 12.201 181.42 12.2311 182.603 11.0426L189.435 4.15174C190.036 3.54616 190.316 2.74123 190.286 1.94382C190.316 1.15075 190.036 0.346413 189.437 -0.262768C189.436 -0.263616 189.435 -0.264097 189.434 -0.264097Z" fill="#6D98F5"/>
<path d="M189.434 45.3675C189.432 45.3675 189.431 45.3671 189.43 45.3662L182.666 38.8693C181.543 37.7911 179.708 37.6872 178.533 38.7189C177.288 39.815 177.258 41.6707 178.436 42.8062L181.528 45.7759C182.502 46.7109 182.502 48.2297 181.528 49.1683L178.504 52.0735C177.381 53.1518 177.273 54.9142 178.347 56.0426C179.488 57.2391 181.42 57.2678 182.603 56.1358L189.435 49.5731C190.036 48.9963 190.316 48.2297 190.286 47.4703C190.316 46.715 190.036 45.949 189.437 45.3688C189.436 45.368 189.435 45.3675 189.434 45.3675Z" fill="#6D98F5"/>
<path d="M189.434 90.3675C189.432 90.3675 189.431 90.3671 189.43 90.3662L182.666 83.8693C181.543 82.7911 179.708 82.6872 178.533 83.7189C177.288 84.815 177.258 86.6707 178.436 87.8062L181.528 90.7759C182.502 91.7109 182.502 93.2297 181.528 94.1683L178.504 97.0735C177.381 98.1518 177.273 99.9142 178.347 101.043C179.488 102.239 181.42 102.268 182.603 101.136L189.435 94.5731C190.036 93.9963 190.316 93.2297 190.286 92.4703C190.316 91.715 190.036 90.949 189.437 90.3688C189.436 90.368 189.435 90.3675 189.434 90.3675Z" fill="#6D98F5"/>
<path d="M189.434 136.368C189.432 136.368 189.431 136.367 189.43 136.366L182.666 129.869C181.543 128.791 179.708 128.687 178.533 129.719C177.288 130.815 177.258 132.671 178.436 133.806L181.528 136.776C182.502 137.711 182.502 139.23 181.528 140.168L178.504 143.074C177.381 144.152 177.273 145.914 178.347 147.043C179.488 148.239 181.42 148.268 182.603 147.136L189.435 140.573C190.036 139.996 190.316 139.23 190.286 138.47C190.316 137.715 190.036 136.949 189.437 136.369C189.436 136.368 189.435 136.368 189.434 136.368Z" fill="#6D98F5"/>
<path d="M219.748 22.7359C219.747 22.7359 219.746 22.7354 219.745 22.7346L212.98 15.9128C211.858 14.7806 210.023 14.6715 208.848 15.7548C207.602 16.9058 207.572 18.8542 208.751 20.0465L211.843 23.1647C212.816 24.1464 212.816 25.7412 211.843 26.7267L208.818 29.7772C207.695 30.9094 207.587 32.7599 208.661 33.9448C209.803 35.201 211.735 35.2311 212.917 34.0426L219.75 27.1517C220.35 26.5462 220.63 25.7412 220.6 24.9438C220.63 24.1507 220.351 23.3464 219.751 22.7372C219.75 22.7364 219.749 22.7359 219.748 22.7359Z" fill="#6D98F5"/>
<path d="M219.748 68.3675C219.747 68.3675 219.746 68.3671 219.745 68.3662L212.98 61.8693C211.858 60.7911 210.023 60.6872 208.848 61.7189C207.602 62.815 207.572 64.6707 208.751 65.8062L211.843 68.7759C212.816 69.7109 212.816 71.2297 211.843 72.1683L208.818 75.0735C207.695 76.1518 207.587 77.9142 208.661 79.0426C209.803 80.2391 211.735 80.2678 212.917 79.1358L219.75 72.5731C220.35 71.9963 220.63 71.2297 220.6 70.4703C220.63 69.715 220.351 68.949 219.751 68.3688C219.75 68.368 219.749 68.3675 219.748 68.3675Z" fill="#6D98F5"/>
<path d="M219.748 113.368C219.747 113.368 219.746 113.367 219.745 113.366L212.98 106.869C211.858 105.791 210.023 105.687 208.848 106.719C207.602 107.815 207.572 109.671 208.751 110.806L211.843 113.776C212.816 114.711 212.816 116.23 211.843 117.168L208.818 120.074C207.695 121.152 207.587 122.914 208.661 124.043C209.803 125.239 211.735 125.268 212.917 124.136L219.75 117.573C220.35 116.996 220.63 116.23 220.6 115.47C220.63 114.715 220.351 113.949 219.751 113.369C219.75 113.368 219.749 113.368 219.748 113.368Z" fill="#6D98F5"/>
<path d="M219.748 158.736C219.747 158.736 219.746 158.735 219.745 158.735L212.98 151.913C211.858 150.781 210.023 150.672 208.848 151.755C207.602 152.906 207.572 154.854 208.751 156.047L211.843 159.165C212.816 160.146 212.816 161.741 211.843 162.727L208.818 165.777C207.695 166.909 207.587 168.76 208.661 169.945C209.803 171.201 211.735 171.231 212.917 170.043L219.75 163.152C220.35 162.546 220.63 161.741 220.6 160.944C220.63 160.151 220.351 159.346 219.751 158.737C219.75 158.736 219.749 158.736 219.748 158.736Z" fill="#6D98F5"/>
<path d="M250.063 -0.264097C250.062 -0.264097 250.061 -0.264571 250.06 -0.265412L243.296 -7.08721C242.173 -8.21938 240.338 -8.32845 239.163 -7.24518C237.918 -6.09421 237.888 -4.14581 239.066 -2.95346L242.158 0.164703C243.132 1.14642 243.132 2.74122 242.158 3.7267L239.133 6.77718C238.011 7.90935 237.903 9.75993 238.977 10.9448C240.118 12.201 242.05 12.2311 243.232 11.0426L250.065 4.15174C250.666 3.54616 250.945 2.74123 250.916 1.94382C250.945 1.15075 250.666 0.346413 250.067 -0.262768C250.066 -0.263616 250.065 -0.264097 250.063 -0.264097Z" fill="#6D98F5"/>
<path d="M250.063 45.3675C250.062 45.3675 250.061 45.3671 250.06 45.3662L243.296 38.8693C242.173 37.7911 240.338 37.6872 239.163 38.7189C237.918 39.815 237.888 41.6707 239.066 42.8062L242.158 45.7759C243.132 46.7109 243.132 48.2297 242.158 49.1683L239.133 52.0735C238.011 53.1518 237.903 54.9142 238.977 56.0426C240.118 57.2391 242.05 57.2678 243.232 56.1358L250.065 49.5731C250.666 48.9963 250.945 48.2297 250.916 47.4703C250.945 46.715 250.666 45.949 250.067 45.3688C250.066 45.368 250.065 45.3675 250.063 45.3675Z" fill="#6D98F5"/>
<path d="M250.063 90.3675C250.062 90.3675 250.061 90.3671 250.06 90.3662L243.296 83.8693C242.173 82.7911 240.338 82.6872 239.163 83.7189C237.918 84.815 237.888 86.6707 239.066 87.8062L242.158 90.7759C243.132 91.7109 243.132 93.2297 242.158 94.1683L239.133 97.0735C238.011 98.1518 237.903 99.9142 238.977 101.043C240.118 102.239 242.05 102.268 243.232 101.136L250.065 94.5731C250.666 93.9963 250.945 93.2297 250.916 92.4703C250.945 91.715 250.666 90.949 250.067 90.3688C250.066 90.368 250.065 90.3675 250.063 90.3675Z" fill="#6D98F5"/>
<path d="M250.063 136.368C250.062 136.368 250.061 136.367 250.06 136.366L243.296 129.869C242.173 128.791 240.338 128.687 239.163 129.719C237.918 130.815 237.888 132.671 239.066 133.806L242.158 136.776C243.132 137.711 243.132 139.23 242.158 140.168L239.133 143.074C238.011 144.152 237.903 145.914 238.977 147.043C240.118 148.239 242.05 148.268 243.232 147.136L250.065 140.573C250.666 139.996 250.945 139.23 250.916 138.47C250.945 137.715 250.666 136.949 250.067 136.369C250.066 136.368 250.065 136.368 250.063 136.368Z" fill="#6D98F5"/>
<path d="M280.378 23.7359C280.377 23.7359 280.376 23.7354 280.375 23.7346L273.61 16.9128C272.488 15.7806 270.653 15.6715 269.478 16.7548C268.232 17.9058 268.202 19.8542 269.381 21.0465L272.473 24.1647C273.446 25.1464 273.446 26.7412 272.473 27.7267L269.448 30.7772C268.325 31.9094 268.217 33.7599 269.291 34.9448C270.433 36.201 272.365 36.2311 273.547 35.0426L280.38 28.1517C280.98 27.5462 281.26 26.7412 281.23 25.9438C281.26 25.1507 280.981 24.3464 280.381 23.7372C280.38 23.7364 280.379 23.7359 280.378 23.7359Z" fill="#6D98F5"/>
<path d="M280.378 69.7359C280.377 69.7359 280.376 69.7354 280.375 69.7346L273.61 62.9128C272.488 61.7806 270.653 61.6715 269.478 62.7548C268.232 63.9058 268.202 65.8542 269.381 67.0465L272.473 70.1647C273.446 71.1464 273.446 72.7412 272.473 73.7267L269.448 76.7772C268.325 77.9094 268.217 79.7599 269.291 80.9448C270.433 82.201 272.365 82.2311 273.547 81.0426L280.38 74.1517C280.98 73.5462 281.26 72.7412 281.23 71.9438C281.26 71.1507 280.981 70.3464 280.381 69.7372C280.38 69.7364 280.379 69.7359 280.378 69.7359Z" fill="#6D98F5"/>
<path d="M280.379 114.368C280.378 114.368 280.377 114.367 280.376 114.366L273.611 107.869C272.489 106.791 270.654 106.687 269.479 107.719C268.233 108.815 268.203 110.671 269.382 111.806L272.474 114.776C273.447 115.711 273.447 117.23 272.474 118.168L269.449 121.074C268.326 122.152 268.218 123.914 269.292 125.043C270.434 126.239 272.366 126.268 273.548 125.136L280.381 118.573C280.981 117.996 281.261 117.23 281.231 116.47C281.261 115.715 280.982 114.949 280.382 114.369C280.381 114.368 280.38 114.368 280.379 114.368Z" fill="#6D98F5"/>
<path d="M310.759 1.36753C310.758 1.36753 310.757 1.36708 310.756 1.36629L304.512 -5.13068C303.475 -6.20893 301.782 -6.31281 300.697 -5.28113C299.547 -4.18496 299.52 -2.32934 300.608 -1.19377L303.462 1.77591C304.36 2.71088 304.36 4.22974 303.462 5.16829L300.669 8.07351C299.633 9.15176 299.533 10.9142 300.525 12.0426C301.578 13.2391 303.362 13.2678 304.453 12.1358L310.76 5.57308C311.315 4.99634 311.573 4.22974 311.545 3.4703C311.573 2.71499 311.315 1.94895 310.762 1.36877C310.761 1.36798 310.76 1.36753 310.759 1.36753Z" fill="#6D98F5"/>
<path d="M310.759 46.7359C310.758 46.7359 310.757 46.7354 310.756 46.7346L304.512 39.9128C303.475 38.7806 301.782 38.6715 300.697 39.7548C299.547 40.9058 299.52 42.8542 300.608 44.0465L303.462 47.1647C304.36 48.1464 304.36 49.7412 303.462 50.7267L300.669 53.7772C299.633 54.9094 299.533 56.7599 300.525 57.9448C301.578 59.201 303.362 59.2311 304.453 58.0426L310.76 51.1517C311.315 50.5462 311.573 49.7412 311.545 48.9438C311.573 48.1507 311.315 47.3464 310.762 46.7372C310.761 46.7364 310.76 46.7359 310.759 46.7359Z" fill="#6D98F5"/>
<path d="M310.759 91.7359C310.758 91.7359 310.757 91.7354 310.756 91.7346L304.512 84.9128C303.475 83.7806 301.782 83.6715 300.697 84.7548C299.547 85.9058 299.52 87.8542 300.608 89.0465L303.462 92.1647C304.36 93.1464 304.36 94.7412 303.462 95.7267L300.669 98.7772C299.633 99.9094 299.533 101.76 300.525 102.945C301.578 104.201 303.362 104.231 304.453 103.043L310.76 96.1517C311.315 95.5462 311.573 94.7412 311.545 93.9438C311.573 93.1507 311.315 92.3464 310.762 91.7372C310.761 91.7364 310.76 91.7359 310.759 91.7359Z" fill="#6D98F5"/>
<path d="M310.759 137.368C310.758 137.368 310.757 137.367 310.756 137.366L304.512 130.869C303.475 129.791 301.782 129.687 300.697 130.719C299.547 131.815 299.52 133.671 300.608 134.806L303.462 137.776C304.36 138.711 304.36 140.23 303.462 141.168L300.669 144.074C299.633 145.152 299.533 146.914 300.525 148.043C301.578 149.239 303.362 149.268 304.453 148.136L310.76 141.573C311.315 140.996 311.573 140.23 311.545 139.47C311.573 138.715 311.315 137.949 310.762 137.369C310.761 137.368 310.76 137.368 310.759 137.368Z" fill="#6D98F5"/>
<path d="M341.074 23.7359C341.073 23.7359 341.072 23.7354 341.071 23.7346L334.827 16.9128C333.791 15.7806 332.097 15.6715 331.012 16.7548C329.863 17.9058 329.835 19.8542 330.923 21.0465L333.777 24.1647C334.676 25.1464 334.676 26.7412 333.777 27.7267L330.985 30.7772C329.949 31.9094 329.849 33.7599 330.84 34.9448C331.894 36.201 333.677 36.2311 334.769 35.0426L341.076 28.1517C341.63 27.5462 341.888 26.7412 341.861 25.9438C341.888 25.1507 341.63 24.3464 341.077 23.7372C341.076 23.7364 341.075 23.7359 341.074 23.7359Z" fill="#6D98F5"/>
<path d="M341.074 69.7359C341.073 69.7359 341.072 69.7354 341.071 69.7346L334.827 62.9128C333.791 61.7806 332.097 61.6715 331.012 62.7548C329.863 63.9058 329.835 65.8542 330.923 67.0465L333.777 70.1647C334.676 71.1464 334.676 72.7412 333.777 73.7267L330.985 76.7772C329.949 77.9094 329.849 79.7599 330.84 80.9448C331.894 82.201 333.677 82.2311 334.769 81.0426L341.076 74.1517C341.63 73.5462 341.888 72.7412 341.861 71.9438C341.888 71.1507 341.63 70.3464 341.077 69.7372C341.076 69.7364 341.075 69.7359 341.074 69.7359Z" fill="#6D98F5"/>
<path d="M341.074 114.368C341.073 114.368 341.072 114.367 341.071 114.366L334.827 107.869C333.791 106.791 332.097 106.687 331.012 107.719C329.863 108.815 329.835 110.671 330.923 111.806L333.777 114.776C334.676 115.711 334.676 117.23 333.777 118.168L330.985 121.074C329.949 122.152 329.849 123.914 330.84 125.043C331.894 126.239 333.677 126.268 334.769 125.136L341.076 118.573C341.63 117.996 341.888 117.23 341.861 116.47C341.888 115.715 341.63 114.949 341.077 114.369C341.076 114.368 341.075 114.368 341.074 114.368Z" fill="#6D98F5"/>
<path d="M371.39 1.36753C371.388 1.36753 371.387 1.36708 371.387 1.36629L365.143 -5.13068C364.106 -6.20893 362.412 -6.31281 361.328 -5.28113C360.178 -4.18496 360.15 -2.32934 361.238 -1.19377L364.092 1.77591C364.991 2.71088 364.991 4.22974 364.092 5.16829L361.3 8.07351C360.264 9.15176 360.164 10.9142 361.156 12.0426C362.209 13.2391 363.993 13.2678 365.084 12.1358L371.391 5.57308C371.946 4.99634 372.204 4.22974 372.176 3.4703C372.204 2.71499 371.946 1.94895 371.392 1.36877C371.392 1.36798 371.391 1.36753 371.39 1.36753Z" fill="#6D98F5"/>
<path d="M371.39 46.7359C371.388 46.7359 371.387 46.7354 371.387 46.7346L365.143 39.9128C364.106 38.7806 362.412 38.6715 361.328 39.7548C360.178 40.9058 360.15 42.8542 361.238 44.0465L364.092 47.1647C364.991 48.1464 364.991 49.7412 364.092 50.7267L361.3 53.7772C360.264 54.9094 360.164 56.7599 361.156 57.9448C362.209 59.201 363.993 59.2311 365.084 58.0426L371.391 51.1517C371.946 50.5462 372.204 49.7412 372.176 48.9438C372.204 48.1507 371.946 47.3464 371.392 46.7372C371.392 46.7364 371.391 46.7359 371.39 46.7359Z" fill="#6D98F5"/>
<path d="M371.39 91.7359C371.388 91.7359 371.387 91.7354 371.387 91.7346L365.143 84.9128C364.106 83.7806 362.412 83.6715 361.328 84.7548C360.178 85.9058 360.15 87.8542 361.238 89.0465L364.092 92.1647C364.991 93.1464 364.991 94.7412 364.092 95.7267L361.3 98.7772C360.264 99.9094 360.164 101.76 361.156 102.945C362.209 104.201 363.993 104.231 365.084 103.043L371.391 96.1517C371.946 95.5462 372.204 94.7412 372.176 93.9438C372.204 93.1507 371.946 92.3464 371.392 91.7372C371.392 91.7364 371.391 91.7359 371.39 91.7359Z" fill="#6D98F5"/>
<path d="M371.39 137.368C371.388 137.368 371.387 137.367 371.387 137.366L365.143 130.869C364.106 129.791 362.412 129.687 361.328 130.719C360.178 131.815 360.15 133.671 361.238 134.806L364.092 137.776C364.991 138.711 364.991 140.23 364.092 141.168L361.3 144.074C360.264 145.152 360.164 146.914 361.156 148.043C362.209 149.239 363.993 149.268 365.084 148.136L371.391 141.573C371.946 140.996 372.204 140.23 372.176 139.47C372.204 138.715 371.946 137.949 371.392 137.369C371.392 137.368 371.391 137.368 371.39 137.368Z" fill="#6D98F5"/>
<path d="M402.616 23.7359C402.615 23.7359 402.614 23.7354 402.613 23.7346L395.849 16.9128C394.726 15.7806 392.891 15.6715 391.716 16.7548C390.47 17.9058 390.44 19.8542 391.619 21.0465L394.711 24.1647C395.684 25.1464 395.684 26.7412 394.711 27.7267L391.686 30.7772C390.564 31.9094 390.455 33.7599 391.53 34.9448C392.671 36.201 394.603 36.2311 395.785 35.0426L402.618 28.1517C403.218 27.5462 403.498 26.7412 403.468 25.9438C403.498 25.1507 403.219 24.3464 402.619 23.7372C402.618 23.7364 402.617 23.7359 402.616 23.7359Z" fill="#6D98F5"/>
<path d="M402.616 69.7359C402.615 69.7359 402.614 69.7354 402.613 69.7346L395.849 62.9128C394.726 61.7806 392.891 61.6715 391.716 62.7548C390.47 63.9058 390.44 65.8542 391.619 67.0465L394.711 70.1647C395.684 71.1464 395.684 72.7412 394.711 73.7267L391.686 76.7772C390.564 77.9094 390.455 79.7599 391.53 80.9448C392.671 82.201 394.603 82.2311 395.785 81.0426L402.618 74.1517C403.218 73.5462 403.498 72.7412 403.468 71.9438C403.498 71.1507 403.219 70.3464 402.619 69.7372C402.618 69.7364 402.617 69.7359 402.616 69.7359Z" fill="#6D98F5"/>
<path d="M402.616 114.368C402.615 114.368 402.614 114.367 402.613 114.366L395.849 107.869C394.726 106.791 392.891 106.687 391.716 107.719C390.47 108.815 390.44 110.671 391.619 111.806L394.711 114.776C395.684 115.711 395.684 117.23 394.711 118.168L391.686 121.074C390.564 122.152 390.455 123.914 391.53 125.043C392.671 126.239 394.603 126.268 395.785 125.136L402.618 118.573C403.218 117.996 403.498 117.23 403.468 116.47C403.498 115.715 403.219 114.949 402.619 114.369C402.618 114.368 402.617 114.368 402.616 114.368Z" fill="#6D98F5"/>
<path d="M432.931 1.36753C432.929 1.36753 432.928 1.36707 432.927 1.36624L426.163 -5.13068C425.04 -6.20893 423.205 -6.31281 422.03 -5.28113C420.785 -4.18496 420.755 -2.32934 421.934 -1.19377L425.025 1.77591C425.999 2.71088 425.999 4.22974 425.025 5.16829L422.001 8.07351C420.878 9.15176 420.77 10.9142 421.844 12.0426C422.985 13.2391 424.917 13.2678 426.1 12.1358L432.932 5.57308C433.533 4.99634 433.813 4.22974 433.783 3.4703C433.813 2.71501 433.533 1.94899 432.934 1.36882C432.933 1.36799 432.932 1.36753 432.931 1.36753Z" fill="#6D98F5"/>
<path d="M432.931 46.7359C432.929 46.7359 432.928 46.7354 432.927 46.7346L426.163 39.9128C425.04 38.7806 423.205 38.6715 422.03 39.7548C420.785 40.9058 420.755 42.8542 421.934 44.0465L425.025 47.1647C425.999 48.1464 425.999 49.7412 425.025 50.7267L422.001 53.7772C420.878 54.9094 420.77 56.7599 421.844 57.9448C422.985 59.201 424.917 59.2311 426.1 58.0426L432.932 51.1517C433.533 50.5462 433.813 49.7412 433.783 48.9438C433.813 48.1507 433.533 47.3464 432.934 46.7372C432.933 46.7364 432.932 46.7359 432.931 46.7359Z" fill="#6D98F5"/>
<path d="M432.931 91.7359C432.929 91.7359 432.928 91.7354 432.927 91.7346L426.163 84.9128C425.04 83.7806 423.205 83.6715 422.03 84.7548C420.785 85.9058 420.755 87.8542 421.934 89.0465L425.025 92.1647C425.999 93.1464 425.999 94.7412 425.025 95.7267L422.001 98.7772C420.878 99.9094 420.77 101.76 421.844 102.945C422.985 104.201 424.917 104.231 426.1 103.043L432.932 96.1517C433.533 95.5462 433.813 94.7412 433.783 93.9438C433.813 93.1507 433.533 92.3464 432.934 91.7372C432.933 91.7364 432.932 91.7359 432.931 91.7359Z" fill="#6D98F5"/>
<path d="M432.932 137.368C432.93 137.368 432.929 137.367 432.928 137.366L426.164 130.869C425.041 129.791 423.206 129.687 422.031 130.719C420.786 131.815 420.756 133.671 421.934 134.806L425.026 137.776C426 138.711 426 140.23 425.026 141.168L422.002 144.074C420.879 145.152 420.771 146.914 421.845 148.043C422.986 149.239 424.918 149.268 426.101 148.136L432.933 141.573C433.534 140.996 433.814 140.23 433.784 139.47C433.814 138.715 433.534 137.949 432.935 137.369C432.934 137.368 432.933 137.368 432.932 137.368Z" fill="#6D98F5"/>
<path d="M463.246 23.7359C463.245 23.7359 463.244 23.7354 463.243 23.7346L456.478 16.9128C455.356 15.7806 453.521 15.6715 452.346 16.7548C451.1 17.9058 451.07 19.8542 452.249 21.0465L455.341 24.1647C456.314 25.1464 456.314 26.7412 455.341 27.7267L452.316 30.7772C451.193 31.9094 451.085 33.7599 452.159 34.9448C453.301 36.201 455.233 36.2311 456.415 35.0426L463.248 28.1517C463.848 27.5462 464.128 26.7412 464.098 25.9438C464.128 25.1507 463.849 24.3464 463.249 23.7372C463.248 23.7364 463.247 23.7359 463.246 23.7359Z" fill="#6D98F5"/>
<path d="M463.246 69.7359C463.245 69.7359 463.244 69.7354 463.243 69.7346L456.478 62.9128C455.356 61.7806 453.521 61.6715 452.346 62.7548C451.1 63.9058 451.07 65.8542 452.249 67.0465L455.341 70.1647C456.314 71.1464 456.314 72.7412 455.341 73.7267L452.316 76.7772C451.193 77.9094 451.085 79.7599 452.159 80.9448C453.301 82.201 455.233 82.2311 456.415 81.0426L463.248 74.1517C463.848 73.5462 464.128 72.7412 464.098 71.9438C464.128 71.1507 463.849 70.3464 463.249 69.7372C463.248 69.7364 463.247 69.7359 463.246 69.7359Z" fill="#6D98F5"/>
<path d="M463.246 114.368C463.245 114.368 463.244 114.367 463.243 114.366L456.478 107.869C455.356 106.791 453.521 106.687 452.346 107.719C451.1 108.815 451.07 110.671 452.249 111.806L455.341 114.776C456.314 115.711 456.314 117.23 455.341 118.168L452.316 121.074C451.193 122.152 451.085 123.914 452.159 125.043C453.301 126.239 455.233 126.268 456.415 125.136L463.248 118.573C463.848 117.996 464.128 117.23 464.098 116.47C464.128 115.715 463.849 114.949 463.249 114.369C463.248 114.368 463.247 114.368 463.246 114.368Z" fill="#6D98F5"/>
<path d="M493.561 1.36753C493.56 1.36753 493.559 1.36707 493.558 1.36624L486.794 -5.13068C485.671 -6.20893 483.836 -6.31281 482.661 -5.28113C481.416 -4.18496 481.386 -2.32934 482.564 -1.19377L485.656 1.77591C486.63 2.71088 486.63 4.22974 485.656 5.16829L482.632 8.07351C481.509 9.15176 481.401 10.9142 482.475 12.0426C483.616 13.2391 485.548 13.2678 486.73 12.1358L493.563 5.57308C494.164 4.99634 494.444 4.22974 494.414 3.4703C494.444 2.71501 494.164 1.94899 493.565 1.36882C493.564 1.36799 493.563 1.36753 493.561 1.36753Z" fill="#6D98F5"/>
<path d="M493.561 46.7359C493.56 46.7359 493.559 46.7354 493.558 46.7346L486.794 39.9128C485.671 38.7806 483.836 38.6715 482.661 39.7548C481.416 40.9058 481.386 42.8542 482.564 44.0465L485.656 47.1647C486.63 48.1464 486.63 49.7412 485.656 50.7267L482.632 53.7772C481.509 54.9094 481.401 56.7599 482.475 57.9448C483.616 59.201 485.548 59.2311 486.73 58.0426L493.563 51.1517C494.164 50.5462 494.444 49.7412 494.414 48.9438C494.444 48.1507 494.164 47.3464 493.565 46.7372C493.564 46.7364 493.563 46.7359 493.561 46.7359Z" fill="#6D98F5"/>
<path d="M493.561 91.7359C493.56 91.7359 493.559 91.7354 493.558 91.7346L486.794 84.9128C485.671 83.7806 483.836 83.6715 482.661 84.7548C481.416 85.9058 481.386 87.8542 482.564 89.0465L485.656 92.1647C486.63 93.1464 486.63 94.7412 485.656 95.7267L482.632 98.7772C481.509 99.9094 481.401 101.76 482.475 102.945C483.616 104.201 485.548 104.231 486.73 103.043L493.563 96.1517C494.164 95.5462 494.444 94.7412 494.414 93.9438C494.444 93.1507 494.164 92.3464 493.565 91.7372C493.564 91.7364 493.563 91.7359 493.561 91.7359Z" fill="#6D98F5"/>
<path d="M493.561 137.368C493.56 137.368 493.559 137.367 493.558 137.366L486.794 130.869C485.671 129.791 483.836 129.687 482.661 130.719C481.416 131.815 481.386 133.671 482.564 134.806L485.656 137.776C486.63 138.711 486.63 140.23 485.656 141.168L482.632 144.074C481.509 145.152 481.401 146.914 482.475 148.043C483.616 149.239 485.548 149.268 486.73 148.136L493.563 141.573C494.164 140.996 494.444 140.23 494.414 139.47C494.444 138.715 494.164 137.949 493.565 137.369C493.564 137.368 493.563 137.368 493.561 137.368Z" fill="#6D98F5"/>
<path d="M523.876 22.7359C523.875 22.7359 523.874 22.7354 523.873 22.7346L517.108 15.9128C515.986 14.7806 514.151 14.6715 512.976 15.7548C511.73 16.9058 511.7 18.8542 512.879 20.0465L515.971 23.1647C516.944 24.1464 516.944 25.7412 515.971 26.7267L512.946 29.7772C511.823 30.9094 511.715 32.7599 512.789 33.9448C513.931 35.201 515.863 35.2311 517.045 34.0426L523.878 27.1517C524.478 26.5462 524.758 25.7412 524.728 24.9438C524.758 24.1507 524.479 23.3464 523.879 22.7372C523.878 22.7364 523.877 22.7359 523.876 22.7359Z" fill="#6D98F5"/>
<path d="M523.876 68.3675C523.875 68.3675 523.874 68.3671 523.873 68.3662L517.108 61.8693C515.986 60.7911 514.151 60.6872 512.976 61.7189C511.73 62.815 511.7 64.6707 512.879 65.8062L515.971 68.7759C516.944 69.7109 516.944 71.2297 515.971 72.1683L512.946 75.0735C511.823 76.1518 511.715 77.9142 512.789 79.0426C513.931 80.2391 515.863 80.2678 517.045 79.1358L523.878 72.5731C524.478 71.9963 524.758 71.2297 524.728 70.4703C524.758 69.715 524.479 68.949 523.879 68.3688C523.878 68.368 523.877 68.3675 523.876 68.3675Z" fill="#6D98F5"/>
<path d="M523.876 113.368C523.875 113.368 523.874 113.367 523.873 113.366L517.108 106.869C515.986 105.791 514.151 105.687 512.976 106.719C511.73 107.815 511.7 109.671 512.879 110.806L515.971 113.776C516.944 114.711 516.944 116.23 515.971 117.168L512.946 120.074C511.823 121.152 511.715 122.914 512.789 124.043C513.931 125.239 515.863 125.268 517.045 124.136L523.878 117.573C524.478 116.996 524.758 116.23 524.728 115.47C524.758 114.715 524.479 113.949 523.879 113.369C523.878 113.368 523.877 113.368 523.876 113.368Z" fill="#6D98F5"/>
<path d="M523.876 158.736C523.875 158.736 523.874 158.735 523.873 158.735L517.108 151.913C515.986 150.781 514.151 150.672 512.976 151.755C511.73 152.906 511.7 154.854 512.879 156.047L515.971 159.165C516.944 160.146 516.944 161.741 515.971 162.727L512.946 165.777C511.823 166.909 511.715 168.76 512.789 169.945C513.931 171.201 515.863 171.231 517.045 170.043L523.878 163.152C524.478 162.546 524.758 161.741 524.728 160.944C524.758 160.151 524.479 159.346 523.879 158.737C523.878 158.736 523.877 158.736 523.876 158.736Z" fill="#6D98F5"/>
<path d="M554.19 -0.264097C554.189 -0.264097 554.188 -0.264571 554.187 -0.265412L547.423 -7.08721C546.3 -8.21938 544.465 -8.32845 543.29 -7.24518C542.045 -6.09421 542.015 -4.14581 543.193 -2.95346L546.285 0.164703C547.259 1.14642 547.259 2.74122 546.285 3.7267L543.26 6.77718C542.138 7.90935 542.03 9.75993 543.104 10.9448C544.245 12.201 546.177 12.2311 547.359 11.0426L554.192 4.15174C554.793 3.54616 555.072 2.74123 555.043 1.94382C555.072 1.15075 554.793 0.346413 554.194 -0.262768C554.193 -0.263616 554.192 -0.264097 554.19 -0.264097Z" fill="#6D98F5"/>
<path d="M554.19 45.3675C554.189 45.3675 554.188 45.3671 554.187 45.3662L547.423 38.8693C546.3 37.7911 544.465 37.6872 543.29 38.7189C542.045 39.815 542.015 41.6707 543.193 42.8062L546.285 45.7759C547.259 46.7109 547.259 48.2297 546.285 49.1683L543.26 52.0735C542.138 53.1518 542.03 54.9142 543.104 56.0426C544.245 57.2391 546.177 57.2678 547.359 56.1358L554.192 49.5731C554.793 48.9963 555.072 48.2297 555.043 47.4703C555.072 46.715 554.793 45.949 554.194 45.3688C554.193 45.368 554.192 45.3675 554.19 45.3675Z" fill="#6D98F5"/>
<path d="M554.19 90.3675C554.189 90.3675 554.188 90.3671 554.187 90.3662L547.423 83.8693C546.3 82.7911 544.465 82.6872 543.29 83.7189C542.045 84.815 542.015 86.6707 543.193 87.8062L546.285 90.7759C547.259 91.7109 547.259 93.2297 546.285 94.1683L543.26 97.0735C542.138 98.1518 542.03 99.9142 543.104 101.043C544.245 102.239 546.177 102.268 547.359 101.136L554.192 94.5731C554.793 93.9963 555.072 93.2297 555.043 92.4703C555.072 91.715 554.793 90.949 554.194 90.3688C554.193 90.368 554.192 90.3675 554.19 90.3675Z" fill="#6D98F5"/>
<path d="M554.19 136.368C554.189 136.368 554.188 136.367 554.187 136.366L547.423 129.869C546.3 128.791 544.465 128.687 543.29 129.719C542.045 130.815 542.015 132.671 543.193 133.806L546.285 136.776C547.259 137.711 547.259 139.23 546.285 140.168L543.26 143.074C542.138 144.152 542.03 145.914 543.104 147.043C544.245 148.239 546.177 148.268 547.359 147.136L554.192 140.573C554.793 139.996 555.072 139.23 555.043 138.47C555.072 137.715 554.793 136.949 554.194 136.369C554.193 136.368 554.192 136.368 554.19 136.368Z" fill="#6D98F5"/>
<path d="M584.506 22.7359C584.505 22.7359 584.503 22.7354 584.503 22.7346L577.738 15.9128C576.616 14.7806 574.781 14.6715 573.606 15.7548C572.36 16.9058 572.33 18.8542 573.509 20.0465L576.601 23.1647C577.574 24.1464 577.574 25.7412 576.601 26.7267L573.576 29.7772C572.453 30.9094 572.345 32.7599 573.419 33.9448C574.56 35.201 576.493 35.2311 577.675 34.0426L584.508 27.1517C585.108 26.5462 585.388 25.7412 585.358 24.9438C585.388 24.1507 585.109 23.3464 584.509 22.7372C584.508 22.7364 584.507 22.7359 584.506 22.7359Z" fill="#6D98F5"/>
<path d="M584.506 68.3675C584.505 68.3675 584.503 68.3671 584.503 68.3662L577.738 61.8693C576.616 60.7911 574.781 60.6872 573.606 61.7189C572.36 62.815 572.33 64.6707 573.509 65.8062L576.601 68.7759C577.574 69.7109 577.574 71.2297 576.601 72.1683L573.576 75.0735C572.453 76.1518 572.345 77.9142 573.419 79.0426C574.56 80.2391 576.493 80.2678 577.675 79.1358L584.508 72.5731C585.108 71.9963 585.388 71.2297 585.358 70.4703C585.388 69.715 585.109 68.949 584.509 68.3688C584.508 68.368 584.507 68.3675 584.506 68.3675Z" fill="#6D98F5"/>
<path d="M584.506 113.368C584.505 113.368 584.503 113.367 584.503 113.366L577.738 106.869C576.616 105.791 574.781 105.687 573.606 106.719C572.36 107.815 572.33 109.671 573.509 110.806L576.601 113.776C577.574 114.711 577.574 116.23 576.601 117.168L573.576 120.074C572.453 121.152 572.345 122.914 573.419 124.043C574.56 125.239 576.493 125.268 577.675 124.136L584.508 117.573C585.108 116.996 585.388 116.23 585.358 115.47C585.388 114.715 585.109 113.949 584.509 113.369C584.508 113.368 584.507 113.368 584.506 113.368Z" fill="#6D98F5"/>
<path d="M584.506 158.736C584.505 158.736 584.503 158.735 584.503 158.735L577.738 151.913C576.616 150.781 574.781 150.672 573.606 151.755C572.36 152.906 572.33 154.854 573.509 156.047L576.601 159.165C577.574 160.146 577.574 161.741 576.601 162.727L573.576 165.777C572.453 166.909 572.345 168.76 573.419 169.945C574.56 171.201 576.493 171.231 577.675 170.043L584.508 163.152C585.108 162.546 585.388 161.741 585.358 160.944C585.388 160.151 585.109 159.346 584.509 158.737C584.508 158.736 584.507 158.736 584.506 158.736Z" fill="#6D98F5"/>
<path d="M614.821 -0.264097C614.82 -0.264097 614.819 -0.264571 614.818 -0.265412L608.054 -7.08721C606.931 -8.21938 605.096 -8.32845 603.921 -7.24518C602.675 -6.09421 602.646 -4.14581 603.824 -2.95346L606.916 0.164703C607.89 1.14642 607.89 2.74122 606.916 3.7267L603.891 6.77718C602.769 7.90935 602.66 9.75993 603.735 10.9448C604.876 12.201 606.808 12.2311 607.99 11.0426L614.823 4.15174C615.424 3.54616 615.703 2.74123 615.673 1.94382C615.703 1.15075 615.424 0.346413 614.824 -0.262768C614.824 -0.263616 614.822 -0.264097 614.821 -0.264097Z" fill="#6D98F5"/>
<path d="M614.821 45.3675C614.82 45.3675 614.819 45.3671 614.818 45.3662L608.054 38.8693C606.931 37.7911 605.096 37.6872 603.921 38.7189C602.675 39.815 602.646 41.6707 603.824 42.8062L606.916 45.7759C607.89 46.7109 607.89 48.2297 606.916 49.1683L603.891 52.0735C602.769 53.1518 602.66 54.9142 603.735 56.0426C604.876 57.2391 606.808 57.2678 607.99 56.1358L614.823 49.5731C615.424 48.9963 615.703 48.2297 615.673 47.4703C615.703 46.715 615.424 45.949 614.824 45.3688C614.824 45.368 614.822 45.3675 614.821 45.3675Z" fill="#6D98F5"/>
<path d="M614.821 90.3675C614.82 90.3675 614.819 90.3671 614.818 90.3662L608.054 83.8693C606.931 82.7911 605.096 82.6872 603.921 83.7189C602.675 84.815 602.646 86.6707 603.824 87.8062L606.916 90.7759C607.89 91.7109 607.89 93.2297 606.916 94.1683L603.891 97.0735C602.769 98.1518 602.66 99.9142 603.735 101.043C604.876 102.239 606.808 102.268 607.99 101.136L614.823 94.5731C615.424 93.9963 615.703 93.2297 615.673 92.4703C615.703 91.715 615.424 90.949 614.824 90.3688C614.824 90.368 614.822 90.3675 614.821 90.3675Z" fill="#6D98F5"/>
<path d="M614.821 136.368C614.82 136.368 614.819 136.367 614.818 136.366L608.054 129.869C606.931 128.791 605.096 128.687 603.921 129.719C602.675 130.815 602.646 132.671 603.824 133.806L606.916 136.776C607.89 137.711 607.89 139.23 606.916 140.168L603.891 143.074C602.769 144.152 602.66 145.914 603.735 147.043C604.876 148.239 606.808 148.268 607.99 147.136L614.823 140.573C615.424 139.996 615.703 139.23 615.673 138.47C615.703 137.715 615.424 136.949 614.824 136.369C614.824 136.368 614.822 136.368 614.821 136.368Z" fill="#6D98F5"/>
<path d="M645.136 22.7359C645.134 22.7359 645.133 22.7354 645.133 22.7346L638.368 15.9128C637.245 14.7806 635.41 14.6715 634.236 15.7548C632.99 16.9058 632.96 18.8542 634.139 20.0465L637.231 23.1647C638.204 24.1464 638.204 25.7412 637.231 26.7267L634.206 29.7772C633.083 30.9094 632.975 32.7599 634.049 33.9448C635.19 35.201 637.122 35.2311 638.305 34.0426L645.138 27.1517C645.738 26.5462 646.018 25.7412 645.988 24.9438C646.018 24.1507 645.738 23.3464 645.139 22.7372C645.138 22.7364 645.137 22.7359 645.136 22.7359Z" fill="#6D98F5"/>
<path d="M645.136 68.3675C645.134 68.3675 645.133 68.3671 645.132 68.3662L638.368 61.8693C637.245 60.7911 635.41 60.6872 634.236 61.7189C632.99 62.815 632.96 64.6707 634.139 65.8062L637.231 68.7759C638.204 69.7109 638.204 71.2297 637.231 72.1683L634.206 75.0735C633.083 76.1518 632.975 77.9142 634.049 79.0426C635.19 80.2391 637.122 80.2678 638.305 79.1358L645.138 72.5731C645.738 71.9963 646.018 71.2297 645.988 70.4703C646.018 69.715 645.738 68.949 645.139 68.3688C645.138 68.368 645.137 68.3675 645.136 68.3675Z" fill="#6D98F5"/>
<path d="M645.136 113.368C645.134 113.368 645.133 113.367 645.132 113.366L638.368 106.869C637.245 105.791 635.41 105.687 634.236 106.719C632.99 107.815 632.96 109.671 634.139 110.806L637.231 113.776C638.204 114.711 638.204 116.23 637.231 117.168L634.206 120.074C633.083 121.152 632.975 122.914 634.049 124.043C635.19 125.239 637.122 125.268 638.305 124.136L645.138 117.573C645.738 116.996 646.018 116.23 645.988 115.47C646.018 114.715 645.738 113.949 645.139 113.369C645.138 113.368 645.137 113.368 645.136 113.368Z" fill="#6D98F5"/>
<path d="M645.136 158.736C645.134 158.736 645.133 158.735 645.133 158.735L638.368 151.913C637.245 150.781 635.41 150.672 634.236 151.755C632.99 152.906 632.96 154.854 634.139 156.047L637.231 159.165C638.204 160.146 638.204 161.741 637.231 162.727L634.206 165.777C633.083 166.909 632.975 168.76 634.049 169.945C635.19 171.201 637.122 171.231 638.305 170.043L645.138 163.152C645.738 162.546 646.018 161.741 645.988 160.944C646.018 160.151 645.738 159.346 645.139 158.737C645.138 158.736 645.137 158.736 645.136 158.736Z" fill="#6D98F5"/>
<path d="M675.45 -0.264097C675.449 -0.264097 675.448 -0.264571 675.447 -0.265412L668.683 -7.08721C667.56 -8.21938 665.725 -8.32845 664.55 -7.24518C663.304 -6.09421 663.274 -4.14581 664.453 -2.95346L667.545 0.164703C668.518 1.14642 668.518 2.74122 667.545 3.7267L664.52 6.77718C663.398 7.90935 663.289 9.75993 664.364 10.9448C665.505 12.201 667.437 12.2311 668.619 11.0426L675.452 4.15174C676.052 3.54616 676.332 2.74123 676.302 1.94382C676.332 1.15075 676.053 0.346413 675.453 -0.262768C675.452 -0.263616 675.451 -0.264097 675.45 -0.264097Z" fill="#6D98F5"/>
<path d="M675.45 45.3675C675.449 45.3675 675.448 45.3671 675.447 45.3662L668.683 38.8693C667.56 37.7911 665.725 37.6872 664.55 38.7189C663.304 39.815 663.274 41.6707 664.453 42.8062L667.545 45.7759C668.518 46.7109 668.518 48.2297 667.545 49.1683L664.52 52.0735C663.398 53.1518 663.289 54.9142 664.364 56.0426C665.505 57.2391 667.437 57.2678 668.619 56.1358L675.452 49.5731C676.052 48.9963 676.332 48.2297 676.302 47.4703C676.332 46.715 676.053 45.949 675.453 45.3688C675.452 45.368 675.451 45.3675 675.45 45.3675Z" fill="#6D98F5"/>
<path d="M675.45 90.3675C675.449 90.3675 675.448 90.3671 675.447 90.3662L668.683 83.8693C667.56 82.7911 665.725 82.6872 664.55 83.7189C663.304 84.815 663.274 86.6707 664.453 87.8062L667.545 90.7759C668.518 91.7109 668.518 93.2297 667.545 94.1683L664.52 97.0735C663.398 98.1518 663.289 99.9142 664.364 101.043C665.505 102.239 667.437 102.268 668.619 101.136L675.452 94.5731C676.052 93.9963 676.332 93.2297 676.302 92.4703C676.332 91.715 676.053 90.949 675.453 90.3688C675.452 90.368 675.451 90.3675 675.45 90.3675Z" fill="#6D98F5"/>
<path d="M675.45 136.368C675.449 136.368 675.448 136.367 675.447 136.366L668.683 129.869C667.56 128.791 665.725 128.687 664.55 129.719C663.304 130.815 663.274 132.671 664.453 133.806L667.545 136.776C668.518 137.711 668.518 139.23 667.545 140.168L664.52 143.074C663.398 144.152 663.289 145.914 664.364 147.043C665.505 148.239 667.437 148.268 668.619 147.136L675.452 140.573C676.052 139.996 676.332 139.23 676.302 138.47C676.332 137.715 676.053 136.949 675.453 136.369C675.452 136.368 675.451 136.368 675.45 136.368Z" fill="#6D98F5"/>
<path d="M705.767 22.7359C705.765 22.7359 705.764 22.7354 705.763 22.7346L698.999 15.9128C697.876 14.7806 696.041 14.6715 694.866 15.7548C693.621 16.9058 693.591 18.8542 694.769 20.0465L697.861 23.1647C698.835 24.1464 698.835 25.7412 697.861 26.7267L694.837 29.7772C693.714 30.9094 693.606 32.7599 694.68 33.9448C695.821 35.201 697.753 35.2311 698.936 34.0426L705.768 27.1517C706.369 26.5462 706.649 25.7412 706.619 24.9438C706.649 24.1507 706.369 23.3464 705.77 22.7372C705.769 22.7364 705.768 22.7359 705.767 22.7359Z" fill="#6D98F5"/>
<path d="M705.767 68.3675C705.765 68.3675 705.764 68.3671 705.763 68.3662L698.999 61.8693C697.876 60.7911 696.041 60.6872 694.866 61.7189C693.621 62.815 693.591 64.6707 694.769 65.8062L697.861 68.7759C698.835 69.7109 698.835 71.2297 697.861 72.1683L694.837 75.0735C693.714 76.1518 693.606 77.9142 694.68 79.0426C695.821 80.2391 697.753 80.2678 698.936 79.1358L705.768 72.5731C706.369 71.9963 706.649 71.2297 706.619 70.4703C706.649 69.715 706.369 68.949 705.77 68.3688C705.769 68.368 705.768 68.3675 705.767 68.3675Z" fill="#6D98F5"/>
<path d="M705.767 113.368C705.765 113.368 705.764 113.367 705.763 113.366L698.999 106.869C697.876 105.791 696.041 105.687 694.866 106.719C693.621 107.815 693.591 109.671 694.769 110.806L697.861 113.776C698.835 114.711 698.835 116.23 697.861 117.168L694.837 120.074C693.714 121.152 693.606 122.914 694.68 124.043C695.821 125.239 697.753 125.268 698.936 124.136L705.768 117.573C706.369 116.996 706.649 116.23 706.619 115.47C706.649 114.715 706.369 113.949 705.77 113.369C705.769 113.368 705.768 113.368 705.767 113.368Z" fill="#6D98F5"/>
<path d="M705.767 158.736C705.765 158.736 705.764 158.735 705.763 158.735L698.999 151.913C697.876 150.781 696.041 150.672 694.866 151.755C693.621 152.906 693.591 154.854 694.769 156.047L697.861 159.165C698.835 160.146 698.835 161.741 697.861 162.727L694.837 165.777C693.714 166.909 693.606 168.76 694.68 169.945C695.821 171.201 697.753 171.231 698.936 170.043L705.768 163.152C706.369 162.546 706.649 161.741 706.619 160.944C706.649 160.151 706.369 159.346 705.77 158.737C705.769 158.736 705.768 158.736 705.767 158.736Z" fill="#6D98F5"/>
<path d="M736.081 -0.264097C736.08 -0.264097 736.079 -0.264571 736.078 -0.265412L729.313 -7.08721C728.191 -8.21938 726.356 -8.32845 725.181 -7.24518C723.935 -6.09421 723.905 -4.14581 725.084 -2.95346L728.176 0.164703C729.149 1.14642 729.149 2.74122 728.176 3.7267L725.151 6.77718C724.028 7.90935 723.92 9.75993 724.994 10.9448C726.136 12.201 728.068 12.2311 729.25 11.0426L736.083 4.15174C736.683 3.54616 736.963 2.74123 736.933 1.94382C736.963 1.15075 736.684 0.346413 736.084 -0.262768C736.083 -0.263616 736.082 -0.264097 736.081 -0.264097Z" fill="#6D98F5"/>
<path d="M736.081 45.3675C736.08 45.3675 736.079 45.3671 736.078 45.3662L729.313 38.8693C728.191 37.7911 726.356 37.6872 725.181 38.7189C723.935 39.815 723.905 41.6707 725.084 42.8062L728.176 45.7759C729.149 46.7109 729.149 48.2297 728.176 49.1683L725.151 52.0735C724.028 53.1518 723.92 54.9142 724.994 56.0426C726.136 57.2391 728.068 57.2678 729.25 56.1358L736.083 49.5731C736.683 48.9963 736.963 48.2297 736.933 47.4703C736.963 46.715 736.684 45.949 736.084 45.3688C736.083 45.368 736.082 45.3675 736.081 45.3675Z" fill="#6D98F5"/>
<path d="M736.081 90.3675C736.08 90.3675 736.079 90.3671 736.078 90.3662L729.313 83.8693C728.191 82.7911 726.356 82.6872 725.181 83.7189C723.935 84.815 723.905 86.6707 725.084 87.8062L728.176 90.7759C729.149 91.7109 729.149 93.2297 728.176 94.1683L725.151 97.0735C724.028 98.1518 723.92 99.9142 724.994 101.043C726.136 102.239 728.068 102.268 729.25 101.136L736.083 94.5731C736.683 93.9963 736.963 93.2297 736.933 92.4703C736.963 91.715 736.684 90.949 736.084 90.3688C736.083 90.368 736.082 90.3675 736.081 90.3675Z" fill="#6D98F5"/>
<path d="M736.081 136.368C736.08 136.368 736.079 136.367 736.078 136.366L729.313 129.869C728.191 128.791 726.356 128.687 725.181 129.719C723.935 130.815 723.905 132.671 725.084 133.806L728.176 136.776C729.149 137.711 729.149 139.23 728.176 140.168L725.151 143.074C724.028 144.152 723.92 145.914 724.994 147.043C726.136 148.239 728.068 148.268 729.25 147.136L736.083 140.573C736.683 139.996 736.963 139.23 736.933 138.47C736.963 137.715 736.684 136.949 736.084 136.369C736.083 136.368 736.082 136.368 736.081 136.368Z" fill="#6D98F5"/>
<path d="M766.395 23.7359C766.394 23.7359 766.393 23.7354 766.392 23.7346L759.628 16.9128C758.505 15.7806 756.67 15.6715 755.495 16.7548C754.25 17.9058 754.22 19.8542 755.398 21.0465L758.49 24.1647C759.464 25.1464 759.464 26.7412 758.49 27.7267L755.465 30.7772C754.343 31.9094 754.235 33.7599 755.309 34.9448C756.45 36.201 758.382 36.2311 759.564 35.0426L766.397 28.1517C766.998 27.5462 767.278 26.7412 767.248 25.9438C767.278 25.1507 766.998 24.3464 766.399 23.7372C766.398 23.7364 766.397 23.7359 766.395 23.7359Z" fill="#6D98F5"/>
<path d="M766.395 69.7359C766.394 69.7359 766.393 69.7354 766.392 69.7346L759.628 62.9128C758.505 61.7806 756.67 61.6715 755.495 62.7548C754.25 63.9058 754.22 65.8542 755.398 67.0465L758.49 70.1647C759.464 71.1464 759.464 72.7412 758.49 73.7267L755.465 76.7772C754.343 77.9094 754.235 79.7599 755.309 80.9448C756.45 82.201 758.382 82.2311 759.564 81.0426L766.397 74.1517C766.998 73.5462 767.278 72.7412 767.248 71.9438C767.278 71.1507 766.998 70.3464 766.399 69.7372C766.398 69.7364 766.397 69.7359 766.395 69.7359Z" fill="#6D98F5"/>
<path d="M766.395 114.368C766.394 114.368 766.393 114.367 766.392 114.366L759.628 107.869C758.505 106.791 756.67 106.687 755.495 107.719C754.25 108.815 754.22 110.671 755.398 111.806L758.49 114.776C759.464 115.711 759.464 117.23 758.49 118.168L755.465 121.074C754.343 122.152 754.235 123.914 755.309 125.043C756.45 126.239 758.382 126.268 759.564 125.136L766.397 118.573C766.998 117.996 767.278 117.23 767.248 116.47C767.278 115.715 766.998 114.949 766.399 114.369C766.398 114.368 766.397 114.368 766.395 114.368Z" fill="#6D98F5"/>
<path d="M796.711 1.36753C796.71 1.36753 796.709 1.36707 796.708 1.36624L789.943 -5.13068C788.821 -6.20893 786.986 -6.31281 785.811 -5.28113C784.565 -4.18496 784.535 -2.32934 785.714 -1.19377L788.806 1.77591C789.779 2.71088 789.779 4.22974 788.806 5.16829L785.781 8.07351C784.658 9.15176 784.55 10.9142 785.624 12.0426C786.766 13.2391 788.698 13.2678 789.88 12.1358L796.713 5.57308C797.313 4.99634 797.593 4.22974 797.563 3.4703C797.593 2.71501 797.314 1.94899 796.714 1.36882C796.713 1.36799 796.712 1.36753 796.711 1.36753Z" fill="#6D98F5"/>
<path d="M796.711 46.7359C796.71 46.7359 796.709 46.7354 796.708 46.7346L789.943 39.9128C788.821 38.7806 786.986 38.6715 785.811 39.7548C784.565 40.9058 784.535 42.8542 785.714 44.0465L788.806 47.1647C789.779 48.1464 789.779 49.7412 788.806 50.7267L785.781 53.7772C784.658 54.9094 784.55 56.7599 785.624 57.9448C786.766 59.201 788.698 59.2311 789.88 58.0426L796.713 51.1517C797.313 50.5462 797.593 49.7412 797.563 48.9438C797.593 48.1507 797.314 47.3464 796.714 46.7372C796.713 46.7364 796.712 46.7359 796.711 46.7359Z" fill="#6D98F5"/>
<path d="M796.711 91.7359C796.71 91.7359 796.709 91.7354 796.708 91.7346L789.943 84.9128C788.821 83.7806 786.986 83.6715 785.811 84.7548C784.565 85.9058 784.535 87.8542 785.714 89.0465L788.806 92.1647C789.779 93.1464 789.779 94.7412 788.806 95.7267L785.781 98.7772C784.658 99.9094 784.55 101.76 785.624 102.945C786.766 104.201 788.698 104.231 789.88 103.043L796.713 96.1517C797.313 95.5462 797.593 94.7412 797.563 93.9438C797.593 93.1507 797.314 92.3464 796.714 91.7372C796.713 91.7364 796.712 91.7359 796.711 91.7359Z" fill="#6D98F5"/>
<path d="M796.711 137.368C796.71 137.368 796.709 137.367 796.708 137.366L789.943 130.869C788.821 129.791 786.986 129.687 785.811 130.719C784.565 131.815 784.535 133.671 785.714 134.806L788.806 137.776C789.779 138.711 789.779 140.23 788.806 141.168L785.781 144.074C784.658 145.152 784.55 146.914 785.624 148.043C786.766 149.239 788.698 149.268 789.88 148.136L796.713 141.573C797.313 140.996 797.593 140.23 797.563 139.47C797.593 138.715 797.314 137.949 796.714 137.369C796.713 137.368 796.712 137.368 796.711 137.368Z" fill="#6D98F5"/>
</g>
</g>
<defs>
<linearGradient id="paint0_linear_3292_24991" x1="981.5" y1="287.5" x2="605.5" y2="-186.5" gradientUnits="userSpaceOnUse">
<stop offset="0.0399558" stop-color="#0C54EE" stop-opacity="0.5"/>
<stop offset="1" stop-color="#0C54EE" stop-opacity="0"/>
</linearGradient>
<clipPath id="clip0_3292_24991">
<rect width="960" height="1080" fill="white" transform="translate(0 -928)"/>
</clipPath>
</defs>
</svg>
