<svg width="65" height="82" viewBox="0 0 65 82" fill="none" xmlns="http://www.w3.org/2000/svg">
<path opacity="0.45" d="M60.6762 25.3023C60.6701 25.3023 60.6644 25.2999 60.66 25.2958L26.4286 -7.5822C20.7474 -13.0388 11.4611 -13.5645 5.51567 -8.34355C-0.788388 -2.79634 -0.939403 6.5941 5.02491 12.3407L20.6719 27.3689C25.5981 32.1003 25.5981 39.7866 20.6719 44.5362L5.36464 59.2382C-0.31656 64.6948 -0.863886 73.6137 4.57195 79.3241C10.3475 85.3789 20.1245 85.5239 26.1077 79.7954L60.6856 46.5847C63.7243 43.6661 65.14 39.7866 64.989 35.9435C65.1399 32.1213 63.7265 28.2448 60.6924 25.3088C60.688 25.3046 60.6822 25.3023 60.6762 25.3023Z" fill="#CBD5E1"/>
</svg>
