<svg width="426" height="128" viewBox="0 0 426 128" fill="none" xmlns="http://www.w3.org/2000/svg">
<path d="M14.1715 -66.5117C29.8615 -81.549 54.4093 -80.0716 69.4645 -64.29L162.305 33.0303L162.601 33.3398H162.642C170.483 41.783 174.145 52.8573 173.75 63.7969L173.749 63.832L173.75 63.8682C174.15 74.997 170.394 86.2092 162.356 94.6348L68.5953 192.92C53.023 209.192 27.7514 209.043 12.3971 192.365L11.6735 191.559C-2.70255 175.075 -1.27986 149.264 13.7936 133.463L55.3014 89.9531L55.3024 89.9512C69.0265 75.5097 69.0287 52.1553 55.3014 37.7656L12.8727 -6.70898C-2.92396 -23.3212 -2.52038 -50.4803 14.1715 -66.5117Z" stroke="white" stroke-opacity="0.6" stroke-width="2"/>
<path d="M264.216 -66.6934C280.014 -81.8336 304.72 -80.3361 319.863 -64.4629L412.703 32.8584L412.925 33.0898H412.969C420.909 41.5953 424.616 52.7708 424.217 63.8057L424.216 63.833L424.217 63.8594C424.62 75.0495 420.843 86.329 412.754 94.8076L318.994 193.093C303.073 209.729 277.073 209.309 261.703 191.723C247.236 175.135 248.674 149.178 263.83 133.29L305.338 89.7803L305.339 89.7793C318.972 75.4341 318.973 52.2314 305.338 37.9385L262.91 -6.53711C247.019 -23.2482 247.423 -50.5658 264.216 -66.6934Z" fill="url(#paint0_linear_3306_132822)" stroke="url(#paint1_linear_3306_132822)" stroke-width="1.5"/>
<defs>
<linearGradient id="paint0_linear_3306_132822" x1="364.207" y1="201.732" x2="230.941" y2="4.58483" gradientUnits="userSpaceOnUse">
<stop stop-color="#6D98F5" stop-opacity="0.2"/>
<stop offset="1" stop-color="#DBE5FD" stop-opacity="0"/>
</linearGradient>
<linearGradient id="paint1_linear_3306_132822" x1="337.772" y1="-78" x2="337.772" y2="206" gradientUnits="userSpaceOnUse">
<stop stop-color="white"/>
<stop offset="1" stop-color="white" stop-opacity="0"/>
</linearGradient>
</defs>
</svg>
