<svg width="426" height="230" viewBox="0 0 426 230" fill="none" xmlns="http://www.w3.org/2000/svg">
<path d="M162.305 84.0305L162.601 84.3402H162.647C170.486 92.7831 174.145 103.858 173.75 114.796L173.748 114.833L173.75 114.869C174.15 125.997 170.394 137.209 162.356 145.635L68.5951 243.92C52.7758 260.45 26.9475 260.033 11.6743 242.559C-2.70249 226.076 -1.28003 200.264 13.7937 184.463L55.3012 140.953L55.3025 140.951C69.0267 126.51 69.0285 103.156 55.3012 88.7661L12.8736 44.2917C-2.92418 27.6793 -2.5207 0.519066 14.1723 -15.5125C29.8624 -30.549 54.409 -29.0716 69.464 -13.2903L162.305 84.0305Z" stroke="white" stroke-width="2"/>
<path d="M412.704 83.8579L412.925 84.0902H412.973C420.912 92.5954 424.616 103.772 424.217 114.805L424.216 114.833L424.217 114.86C424.62 126.05 420.843 137.329 412.755 145.807L318.993 244.093C303.073 260.729 277.073 260.309 261.703 242.723C247.236 226.135 248.674 200.178 263.831 184.29L305.338 140.78L305.339 140.779C318.972 126.434 318.973 103.232 305.338 88.9387L262.91 44.464C247.019 27.7531 247.424 0.435678 264.216 -15.6923C280.014 -30.833 304.72 -29.3362 319.863 -13.4628L412.704 83.8579Z" fill="url(#paint0_linear_1236_82828)" stroke="url(#paint1_linear_1236_82828)" stroke-width="1.5"/>
<defs>
<linearGradient id="paint0_linear_1236_82828" x1="364.208" y1="252.732" x2="230.941" y2="55.5848" gradientUnits="userSpaceOnUse">
<stop stop-color="#58BC8C" stop-opacity="0.16"/>
<stop offset="1" stop-color="#58BC8C" stop-opacity="0"/>
</linearGradient>
<linearGradient id="paint1_linear_1236_82828" x1="337.772" y1="-27" x2="337.772" y2="257" gradientUnits="userSpaceOnUse">
<stop stop-color="white"/>
<stop offset="1" stop-color="white" stop-opacity="0"/>
</linearGradient>
</defs>
</svg>
