<svg width="160" height="80" viewBox="0 0 160 80" fill="none" xmlns="http://www.w3.org/2000/svg">
<g clip-path="url(#clip0_500_81773)">
<path fill-rule="evenodd" clip-rule="evenodd" d="M45.3224 25.9695L44.0406 32.0653H46.4588L45.3672 25.9695H45.328H45.3224ZM39.736 37.7358L43.2457 22.7788H48.2052L51.4015 37.7358H47.5783L46.9905 34.713H43.5256L42.8763 37.7358H39.7472H39.736Z" fill="#130F26"/>
<path fill-rule="evenodd" clip-rule="evenodd" d="M52.1685 37.7357V22.7732H55.3255L59.6301 30.8226H59.6749V22.7732H62.6977V37.7357H59.6749L55.2416 29.3896H55.1968V37.7357H52.1685Z" fill="#130F26"/>
<path fill-rule="evenodd" clip-rule="evenodd" d="M69.0622 25.9695L67.7803 32.0653H70.1985L69.107 25.9695H69.0622ZM63.4757 37.7358L66.9854 22.7788H71.945L75.1412 37.7358H71.318L70.7303 34.713H67.2653L66.616 37.7358H63.4869H63.4757Z" fill="#130F26"/>
<path fill-rule="evenodd" clip-rule="evenodd" d="M79.7817 25.4209V35.0881H80.2015C81.3491 35.0881 82.1215 34.4667 82.5134 33.2184C82.7373 32.5019 82.8492 31.388 82.8492 29.8766C82.8492 26.9099 81.9312 25.4209 80.0952 25.4209H79.7817ZM75.9977 37.7357V22.7732H80.0952C82.2951 22.7732 83.98 23.4057 85.1611 24.6652C86.3366 25.9135 86.9243 27.6991 86.9243 30.0222C86.9243 32.4739 86.3702 34.3716 85.2674 35.715C84.1759 37.0584 82.6029 37.7302 80.5598 37.7302H75.9977V37.7357Z" fill="#130F26"/>
<path fill-rule="evenodd" clip-rule="evenodd" d="M91.8167 30.2517C91.8167 32.0878 91.8839 33.2857 92.0294 33.8454C92.2645 34.7858 92.7795 35.256 93.5632 35.256C94.3468 35.256 94.8562 34.7858 95.0969 33.8454C95.2369 33.2857 95.3096 32.0878 95.3096 30.2517C95.3096 28.4157 95.2425 27.1954 95.0969 26.6356C94.873 25.712 94.3636 25.2474 93.5632 25.2474C92.7627 25.2474 92.2533 25.712 92.0294 26.6356C91.8894 27.1954 91.8167 28.3989 91.8167 30.2517ZM87.7416 30.2517C87.7416 27.7999 88.2454 25.8967 89.2529 24.5365C90.2773 23.1651 91.7103 22.4766 93.5632 22.4766C95.416 22.4766 96.8434 23.1651 97.851 24.5365C98.8753 25.8967 99.3847 27.7999 99.3847 30.2517C99.3847 32.7035 98.8753 34.6123 97.851 35.9893C96.8434 37.3496 95.416 38.0269 93.5632 38.0269C91.7103 38.0269 90.2773 37.3496 89.2529 35.9893C88.2454 34.6179 87.7416 32.7035 87.7416 30.2517Z" fill="#130F26"/>
<path fill-rule="evenodd" clip-rule="evenodd" d="M100.56 37.7357V22.7732H104.344V35.0881H109.466V37.7357H100.56Z" fill="#130F26"/>
<path fill-rule="evenodd" clip-rule="evenodd" d="M120.27 22.7732V32.9833C120.27 36.3475 118.546 38.0268 115.103 38.0268C111.66 38.0268 110.143 36.3475 110.143 32.9833V22.7732H113.927V33.1513C113.927 34.5507 114.476 35.2504 115.568 35.2504C116.659 35.2504 117.124 34.4891 117.124 32.961V22.7732H120.275H120.27Z" fill="#130F26"/>
<path fill-rule="evenodd" clip-rule="evenodd" d="M59.4174 57.3219V42.3594H64.7128L66.3305 50.7447H66.3753L68.2897 42.3594H73.4339V57.3219H69.6555V46.2665H69.6107L67.0246 57.3219H64.7351L62.3617 45.8915H62.317V57.3219H59.4174Z" fill="#130F26"/>
<path fill-rule="evenodd" clip-rule="evenodd" d="M78.6901 49.8379C78.6901 51.6739 78.7573 52.8718 78.9028 53.4316C79.1435 54.372 79.6529 54.8422 80.4366 54.8422C81.2202 54.8422 81.7296 54.372 81.9703 53.4316C82.1103 52.8718 82.1774 51.6739 82.1774 49.8379C82.1774 48.0019 82.1103 46.7816 81.9703 46.2218C81.7464 45.2982 81.237 44.8336 80.4366 44.8336C79.6361 44.8336 79.1267 45.2982 78.9028 46.2218C78.7629 46.7816 78.6901 47.9851 78.6901 49.8379ZM74.615 49.8379C74.615 47.3861 75.1188 45.4829 76.1264 44.1227C77.1507 42.7513 78.5837 42.0627 80.4366 42.0627C82.2894 42.0627 83.7168 42.7513 84.7244 44.1227C85.7488 45.4829 86.2581 47.3861 86.2581 49.8379C86.2581 52.2897 85.7488 54.1985 84.7244 55.5755C83.7168 56.9357 82.2894 57.6131 80.4366 57.6131C78.5837 57.6131 77.1507 56.9357 76.1264 55.5755C75.1188 54.2041 74.615 52.2897 74.615 49.8379Z" fill="#130F26"/>
<path fill-rule="evenodd" clip-rule="evenodd" d="M86.2526 45.259V42.3594H96.7986V45.259H93.4176V57.3219H89.6336V45.259H86.2526Z" fill="#130F26"/>
<path fill-rule="evenodd" clip-rule="evenodd" d="M100.879 49.8379C100.879 51.6739 100.946 52.8718 101.086 53.4316C101.327 54.372 101.837 54.8422 102.62 54.8422C103.404 54.8422 103.919 54.372 104.154 53.4316C104.294 52.8718 104.367 51.6739 104.367 49.8379C104.367 48.0019 104.294 46.7816 104.154 46.2218C103.93 45.2982 103.421 44.8336 102.62 44.8336C101.82 44.8336 101.31 45.2982 101.086 46.2218C100.946 46.7816 100.879 47.9851 100.879 49.8379ZM96.8042 49.8379C96.8042 47.3861 97.308 45.4829 98.3156 44.1227C99.3399 42.7513 100.773 42.0627 102.626 42.0627C104.479 42.0627 105.906 42.7513 106.914 44.1227C107.938 45.4829 108.447 47.3861 108.447 49.8379C108.447 52.2897 107.938 54.1985 106.914 55.5755C105.906 56.9357 104.479 57.6131 102.626 57.6131C100.773 57.6131 99.3399 56.9357 98.3156 55.5755C97.308 54.2041 96.8042 52.2897 96.8042 49.8379Z" fill="#130F26"/>
<path fill-rule="evenodd" clip-rule="evenodd" d="M113.485 45.1358V48.4552H114.219C115.786 48.4552 116.57 47.9067 116.57 46.8151C116.57 46.1994 116.396 45.7628 116.043 45.5109C115.691 45.259 115.047 45.1302 114.112 45.1302H113.48L113.485 45.1358ZM109.701 57.3219V42.365H115.333C116.917 42.365 118.148 42.7456 119.033 43.5013C119.917 44.2458 120.359 45.2814 120.359 46.6136C120.359 47.3861 120.13 48.0858 119.665 48.7127C119.201 49.3285 118.602 49.7763 117.857 50.0562L120.359 57.3275H116.62L114.75 50.8566H113.491V57.3275H109.707L109.701 57.3219Z" fill="#130F26"/>
<path fill-rule="evenodd" clip-rule="evenodd" d="M36.2766 16H123.723C126.086 16 128 17.9144 128 20.2766V59.7234C128 62.0856 126.086 64 123.723 64H36.2766C33.9144 64 32 62.0856 32 59.7234V20.2766C32 17.9144 33.9144 16 36.2766 16ZM36.8028 18.1831H123.203C124.647 18.1831 125.823 19.353 125.823 20.8028V59.1972C125.823 60.6414 124.653 61.8169 123.203 61.8169H53.607V42.3594H34.1831V20.8028C34.1831 19.3586 35.353 18.1831 36.8028 18.1831Z" fill="#C00000"/>
</g>
<defs>
<clipPath id="clip0_500_81773">
<rect width="96" height="48" fill="white" transform="translate(32 16)"/>
</clipPath>
</defs>
</svg>
