<svg width="300" height="80" viewBox="0 0 300 80" fill="none" xmlns="http://www.w3.org/2000/svg">
<path d="M29.1687 29.4747C28.6683 29.7261 27.9731 30.3963 27.6395 30.9548C27 31.9322 27 32.0997 27 40.8963V49.8324H31.1706L31.3097 45.7832L31.4487 41.734L35.5359 41.6503C38.9558 41.5944 39.6787 41.6503 40.0402 42.0133C40.4017 42.4043 40.4851 43.1582 40.4851 46.2301V49.9721H44.6557V41.2872C44.6557 28.6649 44.9059 29.0279 35.8696 29.0279C31.115 29.0279 29.8916 29.1117 29.1687 29.4747ZM38.511 33.6636C39.2895 33.9707 39.7065 34.3338 39.9012 34.9481C40.346 36.2048 40.2904 36.7912 39.6787 37.1263C39.0949 37.4335 32.5052 37.5173 31.7545 37.238C31.1706 37.0146 31.1706 35.6184 31.7823 34.6968C32.0326 34.3059 32.6443 33.8032 33.1169 33.6077C34.2847 33.1051 37.1764 33.133 38.511 33.6636ZM49.438 29.6423C48.9098 29.9774 48.2425 30.7872 47.9088 31.5133C47.3249 32.742 47.2971 33.133 47.2971 41.3152V49.8324H51.7458L51.8848 42.4322C51.9682 38.3551 52.135 34.8364 52.2463 34.5851C52.6355 33.7753 54.3038 33.2168 56.3335 33.2168C58.6969 33.2168 60.0871 33.8032 60.5041 34.9761C60.671 35.4787 60.7822 38.7181 60.7822 42.879V49.9721H65.2309V41.5944C65.2309 32.1556 65.1196 31.4574 63.4792 29.9774L62.4504 29.0279H56.3891C50.717 29.0279 50.3 29.0838 49.438 29.6423ZM70.2356 29.391C69.8742 29.5864 69.2069 30.2287 68.7898 30.8431L68.0113 31.9601L67.9557 40.8963L67.9001 49.8324H72.0429L72.1263 46.0904C72.1541 43.8843 72.3209 42.1809 72.5156 41.9574C72.9326 41.4269 80.6066 41.4269 81.0237 41.9574C81.2183 42.1809 81.3851 43.8843 81.4129 46.0904L81.4963 49.8324H85.667V32.4069L84.9719 31.1223C83.8875 29.1396 83.4426 29.0279 76.714 29.0279C72.6546 29.0279 70.7361 29.1396 70.2356 29.391ZM79.4666 33.6636C80.4398 34.1104 81.3573 35.3949 81.3573 36.2886C81.3573 37.1822 80.4398 37.4056 76.6584 37.4056C73.7668 37.4056 72.9604 37.3218 72.6268 36.9588C72.0707 36.4282 72.0707 36.2606 72.6268 35.0878C72.877 34.5572 73.4887 33.9149 73.9614 33.6915C75.1292 33.1051 78.2711 33.0771 79.4666 33.6636ZM88.3084 39.5V50L96.0658 49.9162L103.823 49.8324L104.574 49.1343C106.131 47.6543 106.242 47.0957 106.242 39.5C106.242 32.8258 106.214 32.4628 105.63 31.3737C105.297 30.7314 104.574 29.9495 104.073 29.6144C103.156 29.0559 102.739 29.0279 95.7043 29.0279H88.3084V39.5ZM100.236 33.7753C100.848 34.0824 101.376 34.5851 101.488 34.9481C101.682 35.7859 101.71 43.2141 101.488 44.0239C101.126 45.3085 99.7915 45.7832 96.4272 45.7832C93.6468 45.7832 93.3132 45.7274 93.0351 45.2527C92.8683 44.9176 92.7571 42.5439 92.7571 39.5C92.7571 36.4561 92.8683 34.0824 93.0351 33.7473C93.3132 33.2726 93.6468 33.2168 96.2604 33.2168C98.596 33.2168 99.3745 33.3285 100.236 33.7753ZM110.885 29.6144C110.385 29.9495 109.745 30.7314 109.44 31.4295C108.939 32.5186 108.884 33.2447 108.884 39.4721C108.884 46.9561 109.023 47.8777 110.496 49.1622C111.247 49.8324 111.358 49.8324 117.586 49.9162C124.676 50 124.704 50 125.872 48.1011C126.539 47.0678 126.539 46.9282 126.539 39.5C126.539 32.4628 126.511 31.9043 125.983 31.0386C124.843 29.1396 124.398 29.0279 117.753 29.0279C112.192 29.0279 111.747 29.0838 110.885 29.6144ZM120.645 33.6915C122.146 34.4734 122.202 34.6689 122.202 39.5C122.23 44.3032 122.091 44.7221 120.645 45.4761C119.699 45.9508 116.029 45.867 114.889 45.3085C113.499 44.6662 113.193 43.5771 113.193 39.3604C113.221 35.3949 113.555 34.2779 115.084 33.6356C116.335 33.0771 119.533 33.1051 120.645 33.6915ZM129.375 29.1955C129.264 29.3072 129.181 32.7979 129.181 36.9588C129.208 46.0346 129.431 47.6543 130.96 49.0785L131.961 49.9721L139.552 49.9162L147.114 49.8324V45.9229L141.693 45.8391C135.909 45.7832 134.881 45.5598 134.213 44.2753C134.019 43.9122 133.88 40.9242 133.824 36.4282L133.768 29.1676L131.683 29.0838C130.515 29.0559 129.487 29.0838 129.375 29.1955ZM149.95 29.1955C149.839 29.3072 149.756 33.2447 149.756 37.9362C149.756 47.5984 149.867 48.1848 151.786 49.3856C152.759 49.9721 153.009 50 158.987 49.9162C165.827 49.8324 165.604 49.8883 166.883 47.8777C167.356 47.1516 167.411 46.2859 167.551 38.2992C167.662 31.8484 167.606 29.4747 167.356 29.2793C167.189 29.1117 166.188 29.0279 165.132 29.0838L163.241 29.1676L163.185 36.4282C163.13 41.4827 162.991 43.8843 162.768 44.3311C162.24 45.3644 161.1 45.7832 158.82 45.7832C156.179 45.7832 154.9 45.2247 154.483 43.9122C154.288 43.3816 154.149 40.1702 154.121 36.0931L154.065 29.1676L152.119 29.0838C151.035 29.0559 150.062 29.0838 149.95 29.1955ZM184.789 39.5V50L186.819 49.9162L188.821 49.8324V29.1676L186.819 29.0838L184.789 29V39.5ZM193.742 29.8657C192.241 30.9548 191.685 32.2952 191.629 34.7527C191.601 36.2327 191.74 36.9029 192.13 37.4614C192.463 37.992 194.409 39.137 198.58 41.2314C204.169 44.0239 204.558 44.2753 204.475 44.9455L204.391 45.6436L197.996 45.7832L191.601 45.9229L191.518 47.7101C191.462 48.6875 191.546 49.609 191.685 49.7487C191.824 49.8883 195.522 50 200.109 49.9721C209.229 49.9441 208.812 50.0279 209.841 47.9056C210.703 46.1184 210.452 43.1024 209.313 41.8178C209.09 41.5386 206.81 40.2819 204.28 38.9694C197.329 35.4508 196.689 35.0878 196.523 34.6689C196.161 33.6636 197.19 33.496 203.891 33.496H210.369V29.0279H194.882L193.742 29.8657ZM212.983 29.4468C212.899 29.6702 212.871 33.6636 212.927 38.2992C213.094 50.4468 212.732 49.9721 221.908 49.9721C228.831 49.9721 229.304 49.8324 230.277 47.6822C230.75 46.5931 230.805 45.7553 230.805 37.8245V29.1676H226.635L226.496 36.4282C226.357 44.0798 226.273 44.4707 224.994 45.3364C224.16 45.867 220.24 45.9787 219.155 45.4481C217.543 44.7221 217.459 44.3311 217.32 36.4282L217.181 29.1676L215.151 29.0838C213.539 29.0279 213.122 29.0838 212.983 29.4468ZM233.447 31.1223V33.2168H239.675C245.013 33.2168 245.931 33.2726 246.264 33.6636C246.515 33.9707 246.542 34.2221 246.32 34.5572C246.181 34.8085 243.428 36.3444 240.231 37.9641C233.808 41.2035 233.474 41.5106 233.474 44.1077C233.474 46.4814 234.086 48.0731 235.365 49.0785L236.561 49.9721L244.374 49.9162L252.214 49.8324L252.298 48.3245C252.354 47.4867 252.326 46.5093 252.214 46.1463L252.048 45.4761L245.486 45.504C239.981 45.5319 238.868 45.4761 238.507 45.113C237.895 44.4987 238.368 44.0519 241.343 42.5439C242.733 41.8178 245.486 40.3936 247.46 39.3883C251.436 37.3497 251.964 36.7912 252.27 34.3338C252.465 32.7141 251.992 31.234 250.908 29.9774L250.074 29.0279H233.447V31.1223ZM254.967 29.391C254.884 29.6144 254.856 33.6636 254.912 38.4109C255.023 48.0173 255.051 48.2407 256.913 49.3856C257.775 49.9441 258.276 49.9721 263.976 49.9721H270.12L271.094 49.1343C271.789 48.5199 272.122 47.9056 272.345 46.9282C272.539 45.9508 272.79 33.133 272.651 29.363C272.651 29.0838 272.122 29.0279 270.51 29.0838L268.341 29.1676L268.202 36.8471C268.119 41.0638 268.007 44.5545 267.98 44.6104C267.952 44.6383 267.507 44.9176 267.034 45.2247C265.199 46.3418 260.333 45.7832 259.666 44.4149C259.555 44.1636 259.388 40.6449 259.305 36.5678L259.166 29.1676L257.136 29.0838C255.607 29.0279 255.078 29.0838 254.967 29.391Z" fill="#E12B2B"/>
</svg>
