<svg width="160" height="80" viewBox="0 0 160 80" fill="none" xmlns="http://www.w3.org/2000/svg">
<g clip-path="url(#clip0_500_81839)">
<path d="M135.11 12.762C134.306 13.143 133.205 14.159 132.655 14.9633C131.808 16.191 131.681 16.826 131.808 18.6886C131.977 20.5936 132.231 21.1863 133.501 22.4563C136.168 25.1233 140.867 24.7 142.73 21.652C144.042 19.493 143.915 16.2333 142.434 14.4976C140.402 12.0846 137.692 11.4496 135.11 12.762ZM141.291 14.7093C142.518 15.937 142.73 16.445 142.73 18.096C142.73 21.779 139.174 24.2766 135.872 22.8796C134.009 22.0753 132.993 20.89 132.697 19.0273C132.189 15.81 134.517 13.27 138.031 13.27C139.555 13.27 140.105 13.524 141.291 14.7093Z" fill="#130F26"/>
<path d="M135.11 18.1382C135.11 20.2549 135.279 21.7366 135.533 21.7366C135.787 21.7366 135.957 21.0592 135.957 20.2549C135.957 19.0696 136.126 18.7732 136.761 18.7732C137.227 18.7732 137.946 19.4082 138.497 20.2549C139.005 21.0592 139.597 21.7366 139.809 21.7366C140.444 21.7366 140.275 21.1016 139.343 19.9162L138.454 18.8156L139.343 17.9266C141.079 16.1909 139.936 14.5399 136.973 14.5399H135.11V18.1382ZM138.243 15.6406C139.301 16.0639 139.047 17.4609 137.904 17.7572C136.634 18.0536 135.957 17.7149 135.957 16.6989C135.957 15.4289 136.761 15.0902 138.243 15.6406Z" fill="#130F26"/>
<path d="M23.2654 39.1779C20.302 45.7819 17.8044 51.4546 17.635 51.7933C17.4234 52.3436 18.1007 52.3859 22.334 52.2166L27.287 52.0049L27.9644 50.2269L28.5994 48.4066H33.5947H38.6324L39.4367 50.3116L40.241 52.2166H45.1517C47.8187 52.2166 50.02 52.1319 50.02 52.0049C50.02 51.8356 47.5647 46.2899 44.559 39.6012L39.0557 27.4516L33.8487 27.3246L28.6417 27.2399L23.2654 39.1779ZM35.161 38.5852C35.8807 40.5326 36.4734 42.3106 36.4734 42.5222C36.4734 42.7339 35.2457 42.9032 33.7217 42.9032C32.1977 42.9032 30.97 42.7339 30.97 42.5222C30.97 41.8872 33.5947 34.7752 33.764 34.9446C33.8064 35.0292 34.4837 36.6802 35.161 38.5852Z" fill="#130F26"/>
<path d="M52.4331 27.5362C52.2637 27.6632 52.1367 33.2935 52.1367 40.0245V52.2166H57.0051H61.8734V47.3482V42.4799H63.0587C64.5404 42.4799 65.3447 43.2842 68.6044 48.2795L71.1867 52.2166H76.4784C79.3994 52.2166 81.77 52.0896 81.77 51.9626C81.77 51.1582 76.8594 44.0462 75.4624 42.7762L73.8114 41.2945L75.7587 40.2785C78.341 38.9662 79.7804 36.3839 79.5264 33.6322C79.1877 30.4572 77.0287 28.3405 73.3457 27.6632C70.848 27.1975 52.8564 27.0705 52.4331 27.5362ZM69.2817 33.5899C69.7897 34.1402 69.9167 34.7329 69.7474 35.4525C69.451 36.7225 67.4614 37.3999 64.117 37.3999H61.8734V35.0715V32.7432H65.1754C67.9694 32.7432 68.6467 32.8702 69.2817 33.5899Z" fill="#130F26"/>
<path d="M84.3101 39.7282V52.2166H89.1784H94.0467V39.7282V27.2399H89.1784H84.3101V39.7282Z" fill="#130F26"/>
<path d="M99.55 39.7282V52.2166H111.615H123.722L123.595 49.1262L123.468 46.0782L116.399 45.9512L109.287 45.8665V36.5532V27.2399H104.418H99.55V39.7282Z" fill="#130F26"/>
<path d="M127.067 39.7282V52.2166H131.935H136.803V39.7282V27.2399H131.935H127.067V39.7282Z" fill="#130F26"/>
</g>
<defs>
<clipPath id="clip0_500_81839">
<rect width="127" height="40.64" fill="white" transform="translate(17 12)"/>
</clipPath>
</defs>
</svg>
