<svg width="160" height="80" viewBox="0 0 160 80" fill="none" xmlns="http://www.w3.org/2000/svg">
<path fill-rule="evenodd" clip-rule="evenodd" d="M43.2439 43.9285C43.2439 42.5128 42.9005 41.6277 42.2136 41.0965C41.6978 40.5658 41.1826 40.3889 39.8082 40.212C40.8392 40.0351 41.1826 40.0351 41.6984 39.5045C42.3859 38.9732 42.7293 38.0887 42.7293 36.6724C42.7293 35.0792 42.2142 34.0179 41.0109 33.3097C40.324 32.9559 39.2925 32.779 37.5746 32.779H24V47.9994H38.0892C39.8076 47.9994 40.838 47.9994 41.5255 47.6456C42.7288 46.9374 43.2439 45.6986 43.2439 43.9285ZM38.2615 37.5575C38.2615 38.0881 37.9181 38.4419 37.574 38.6188C37.4023 38.7957 37.0588 38.7957 36.1996 38.7957H28.4678V36.1411H37.4023C37.9181 36.3186 38.2615 36.8493 38.2615 37.5575ZM38.7773 43.221C38.7773 43.9285 38.4332 44.2823 38.0898 44.4592C37.7458 44.6361 37.574 44.6361 36.5431 44.6361H28.4678V41.8046H36.5437C37.4029 41.8046 37.7463 41.8046 37.9181 41.9815C38.4332 42.159 38.7773 42.5128 38.7773 43.221ZM65.5807 37.7344C65.5807 35.433 65.0655 34.0179 63.8629 33.3097C63.0036 32.9559 61.9727 32.779 59.7391 32.779H46.8525V47.9994H51.3198V44.2829H58.3641C59.5667 44.2829 59.9108 44.2829 60.2542 44.4598C60.7694 44.8142 60.7694 45.3448 60.7694 46.2305V48H65.4084V45.6992C65.4084 44.4604 65.4084 43.9291 65.0649 43.3985C64.5498 42.6909 63.8623 42.3365 62.1438 42.3365H61.4563C63.3465 41.9827 63.8617 41.8058 64.3774 41.4521C65.2373 40.7427 65.5807 39.6814 65.5807 37.7344ZM61.1135 38.7957C61.1135 40.2114 60.5977 40.3889 58.5364 40.3889H51.3198V36.4955H58.7081C59.9108 36.4955 60.4266 36.4955 60.77 36.8493C60.9417 37.2031 61.1135 37.7344 61.1135 38.7957ZM69.361 30.4777H74V28H69.361V30.4777ZM69.361 47.9994H74V32.7784H69.361V47.9994Z" fill="#130F26"/>
<path fill-rule="evenodd" clip-rule="evenodd" d="M78 40C78 31.7246 84.5212 25 92.7574 25C99.4495 25 104.941 29.3103 107 35.345C108.888 29.3103 114.55 25 121.071 25C129.308 25 136 31.724 136 40C136 48.276 129.308 55 121.071 55C114.55 55 108.888 50.6897 107 44.655C104.941 50.6891 99.4495 55 92.7574 55C84.5212 55 78 48.276 78 40Z" fill="#305DA2"/>
<path fill-rule="evenodd" clip-rule="evenodd" d="M101.74 43.0907C101.74 41.4539 101.397 40.1811 100.709 39.4542C100.021 38.5449 99.1611 38.3632 96.9261 38.1814H90.2217C88.8458 38.1814 88.6734 38.1814 88.5016 37.9997C87.8143 37.9997 87.4706 37.4545 87.4706 36.7269C87.4706 36 87.9861 35.6365 89.0177 35.4548H93.1434C96.2382 35.4548 96.5818 35.6365 96.5818 36.9093H101.053C101.053 34.182 100.538 33.091 98.9893 32.5452C97.9583 32 96.7537 32 92.2843 32C89.5332 32 88.1585 32 86.7833 32.1817C84.0322 32.5452 83 34.0003 83 37.0917C83 39.6372 83.6885 40.7276 85.2356 41.2734C85.9229 41.6369 87.2994 41.6369 89.5338 41.6369H93.4877C95.3796 41.6369 95.5514 41.8186 95.7233 41.8186C96.7543 41.8186 97.0979 42.3644 97.0979 43.0913C97.0979 44.5458 96.5824 44.7282 91.2533 44.7282C90.0493 44.7282 88.8458 44.5465 88.5022 44.5465C87.8149 44.3641 87.643 44.0006 87.4712 42.9096H83.173C83 43.2731 83 43.6365 83 43.8183C83 46.0009 83.8603 47.0913 85.4074 47.6365C86.6114 48 88.1585 48 91.4251 48C94.6917 48 95.8951 48 97.7864 47.8183C100.538 47.4542 101.74 46.182 101.74 43.0907ZM132 47.8183L123.747 32.1805H117.729L109.305 47.8183H114.463L115.838 45.091H125.466L127.013 47.8183H132Z" fill="white"/>
<path fill-rule="evenodd" clip-rule="evenodd" d="M124 41H118L120.919 36L124 41Z" fill="#305DA2"/>
</svg>
