<svg width="160" height="80" viewBox="0 0 160 80" fill="none" xmlns="http://www.w3.org/2000/svg">
<path d="M41.1726 14.0131C39.7429 14.0757 39.2125 14.1815 38.9714 14.4558C38.8822 14.5593 38.846 14.6675 38.8292 14.8961C38.8123 15.1294 38.8509 15.2618 38.9835 15.4085C39.2221 15.6756 39.2221 15.7935 38.969 16.4022C38.6652 17.1384 38.6001 17.3886 38.6508 17.6532C38.6845 17.8361 38.7327 17.9371 38.8605 18.0766L38.9666 18.1945V19.1882C38.9666 20.1457 38.9449 20.8073 38.8943 21.3101L38.8702 21.5483L39.0895 21.9597C40.7048 24.9863 43.123 27.5317 46.5006 29.7596C47.1733 30.2023 47.4264 30.3586 47.4433 30.3418C47.4505 30.337 47.2938 29.8294 47.0937 29.2159C46.1269 26.2302 45.4929 24.0504 45.2373 22.8186C45.0107 21.724 44.9504 21.0575 44.9287 19.3373L44.9143 18.2018L45.0493 18.0574C45.2253 17.8649 45.2687 17.7398 45.2542 17.4439C45.2421 17.1865 45.1795 16.9892 44.9167 16.3637C44.7624 16.0004 44.7407 15.933 44.7431 15.8055C44.7431 15.6395 44.7768 15.5649 44.9191 15.4085C45.0469 15.2666 45.0782 15.1728 45.0758 14.9394C45.071 14.7301 45.0276 14.5785 44.936 14.4582C44.8612 14.362 44.6442 14.2465 44.4176 14.1839C43.9499 14.054 42.2502 13.965 41.1726 14.0131Z" fill="#E61D2B"/>
<path d="M68.7529 22.8452C62.5015 23.2133 57.306 26.4083 54.519 31.593C52.9881 34.4415 52.3275 37.8483 52.6482 41.2478C53.0387 45.3738 54.9216 49.1511 57.9401 51.8673C60.1846 53.8858 62.9354 55.2476 65.9925 55.8514C67.2317 56.0968 68.2949 56.1955 69.6932 56.1931C70.5756 56.1931 71.159 56.169 71.875 56.1016C75.8578 55.736 78.951 54.3911 81.914 51.7398C82.307 51.3885 83.2593 50.4599 83.2496 50.4382C83.2448 50.4286 82.1985 49.3941 80.9207 48.1406C78.8136 46.0764 78.5942 45.8671 78.558 45.8983C77.5093 46.8005 76.8246 47.337 76.1062 47.8062C74.4233 48.9057 72.7839 49.4686 70.8167 49.6202C70.0669 49.678 68.9675 49.6395 68.3166 49.536C65.937 49.1535 63.9215 47.9722 62.4243 46.0836C61.4094 44.8037 60.6789 43.1508 60.3895 41.4763C59.8616 38.4209 60.5438 35.4087 62.2869 33.0991C62.8366 32.3677 63.5984 31.6291 64.3555 31.0878C66.0985 29.8439 68.2949 29.2376 70.537 29.3844C73.201 29.56 75.4841 30.5777 78.018 32.7237C78.1916 32.8729 78.3459 32.9956 78.3555 32.9956C78.3676 32.9956 78.9775 32.322 79.7153 31.4968C80.4506 30.6739 81.4945 29.5023 82.0369 28.896L83.023 27.7917L82.8687 27.6474C82.225 27.0555 81.7187 26.6273 81.1425 26.1966C78.0542 23.8797 74.4523 22.8019 69.8764 22.8212C69.4449 22.8236 68.9386 22.8356 68.7529 22.8452Z" fill="#E61D2B"/>
<path d="M99.95 22.8454C96.1142 23.0715 92.6449 24.3587 89.8724 26.5817C88.9828 27.2938 88.0763 28.2008 87.3651 29.0862C86.0198 30.7655 85.0265 32.683 84.4238 34.7785C83.6065 37.615 83.5462 40.8004 84.255 43.6899C84.8939 46.2954 86.1669 48.7061 87.9461 50.6789C88.2595 51.0254 88.9225 51.6846 89.2576 51.9805C91.7143 54.153 94.8726 55.5749 98.2527 56.0296C100.208 56.2943 102.542 56.2486 104.579 55.9093C107.831 55.368 110.457 54.0905 113.053 51.7881C113.477 51.4103 114.456 50.4648 114.447 50.4384C114.442 50.4311 113.396 49.3966 112.118 48.1432L109.794 45.8648L109.738 45.9081C109.709 45.9322 109.538 46.0765 109.362 46.2305C107.409 47.9146 105.775 48.8481 103.976 49.3028C102.939 49.565 102.064 49.6589 100.859 49.6372C99.9138 49.6204 99.3569 49.5458 98.5034 49.3196C95.9527 48.6508 93.7829 46.856 92.5461 44.3972C91.4058 42.1261 91.1044 39.3401 91.7288 36.8091C91.9265 36.0055 92.1411 35.4233 92.5148 34.6678C93.8673 31.93 96.3505 30.0486 99.299 29.5217C100.83 29.2474 102.522 29.3412 104.065 29.7839C105.806 30.2819 107.539 31.2804 109.299 32.8009C109.475 32.9524 109.548 32.9982 109.572 32.9813C109.591 32.9693 110.642 31.7976 111.913 30.3758L114.22 27.7918L114.051 27.6379C112.954 26.6322 112.113 25.9802 111.1 25.3523C108.335 23.6345 105.056 22.8069 101.083 22.8237C100.647 22.8237 100.136 22.8357 99.95 22.8454Z" fill="#E61D2B"/>
<path d="M118.092 39.5033V56.0918H121.757H125.421V39.5033V22.9148H121.757H118.092V39.5033Z" fill="#E61D2B"/>
<path d="M38.3372 24.1709C38.2311 24.5751 37.8816 25.766 37.626 26.6104C37.4572 27.1662 37.2981 27.6907 37.2716 27.7797L37.2234 27.9409L37.2981 28.0323C37.4163 28.1791 38.3493 29.0861 38.6892 29.3844C40.8711 31.2899 43.5279 32.8008 46.9128 34.0614C47.7132 34.3598 48.029 34.468 48.0845 34.4584C48.164 34.4488 48.2436 34.3116 48.2629 34.1553C48.3039 33.8136 48.2074 32.9812 48.0531 32.346C47.9663 31.9972 47.7903 31.3909 47.5854 30.7341L47.5203 30.5272L47.3106 30.3973C47.1973 30.3275 46.4764 29.8872 45.7121 29.4205C43.0144 27.7749 42.1079 27.183 40.9072 26.2832C40.0682 25.6529 39.4486 25.1236 38.7639 24.4475C38.5518 24.2406 38.3758 24.0698 38.3734 24.0698C38.3686 24.0698 38.3541 24.1155 38.3372 24.1709Z" fill="#E61D2B"/>
<path d="M36.7123 29.5118C36.7051 29.5286 36.6135 29.8125 36.5074 30.1446C36.0638 31.5159 35.7962 32.459 35.7359 32.8632C35.7239 32.9546 35.707 33.0653 35.6998 33.1062C35.6877 33.1784 35.6949 33.188 36.0662 33.4478C38.5928 35.2137 41.6547 36.46 45.3795 37.2395C46.069 37.3838 46.6066 37.4849 47.706 37.6749C48.2099 37.7616 48.6487 37.8409 48.68 37.8482C48.7355 37.8626 48.7355 37.8578 48.721 37.7447C48.7138 37.6798 48.7017 37.5498 48.6921 37.4584C48.6101 36.5153 48.451 35.4808 48.3208 35.0381L48.2726 34.8793L47.8338 34.6676C46.8718 34.2057 45.9509 33.8015 44.3428 33.1399C41.3726 31.9153 40.6059 31.5833 39.4366 31.0131C38.4868 30.5487 37.4621 29.9785 36.898 29.5984C36.7774 29.5166 36.7196 29.4902 36.7123 29.5118Z" fill="#E61D2B"/>
<path d="M35.6611 34.7928C35.5213 35.1609 35.3766 35.9284 35.2657 36.8811C35.2223 37.2612 35.1331 38.2909 35.1331 38.4136C35.1331 38.5219 35.1138 38.5099 35.7599 38.7889C37.9273 39.72 40.3889 40.3143 43.1493 40.5717C44.2511 40.6752 44.9985 40.7112 46.6692 40.7425C47.3853 40.7545 48.1712 40.7714 48.4147 40.781L48.8583 40.7979L48.8439 40.0665C48.827 39.2364 48.786 38.5267 48.7571 38.4978C48.7185 38.4593 48.0025 38.1923 47.3925 37.9878C46.2497 37.6028 44.9647 37.2612 42.3055 36.6285C39.0002 35.8417 37.5392 35.4279 36.0661 34.8577C35.8805 34.7856 35.7214 34.7278 35.7093 34.7278C35.6973 34.7278 35.6756 34.7567 35.6611 34.7928Z" fill="#E61D2B"/>
<path d="M35.0537 40.0854C35.0006 41.1176 35.0706 42.6621 35.179 42.8546C35.1959 42.8835 35.1815 42.9099 35.1332 42.9557C35.0464 43.0375 35.0127 43.1602 35.0127 43.4056V43.6004L35.0923 43.6269C35.4105 43.7279 36.452 43.9565 37.074 44.06C38.5326 44.3054 39.6946 44.3872 41.4811 44.3679C43.3062 44.3487 44.3501 44.2548 47.0479 43.8723C47.6 43.7929 48.2364 43.7087 48.4607 43.6846L48.8705 43.6437L48.885 43.574C48.926 43.3647 48.8777 43.0832 48.7789 42.9725L48.7114 42.8955L48.7548 42.7271C48.8006 42.5467 48.8512 42.027 48.8512 41.7383V41.5627L48.7259 41.5266C48.2292 41.3846 47.3999 41.2066 46.7055 41.0935C45.5121 40.8986 44.3573 40.7783 41.6909 40.5738C38.6893 40.3429 37.5369 40.2202 36.0759 39.9724C35.7673 39.9194 35.4153 39.8545 35.2948 39.828C35.1742 39.8016 35.073 39.7799 35.073 39.7799C35.0706 39.7799 35.0609 39.917 35.0537 40.0854Z" fill="#E61D2B"/>
<path d="M45.3794 44.3056C44.4367 44.3369 43.7351 44.3826 41.5581 44.5558C38.6409 44.7868 38.2021 44.8109 36.5675 44.8301L35.1909 44.8445L35.2584 45.2776C35.4079 46.2448 35.6393 47.8543 35.7237 48.5039L35.7382 48.6266L36.1071 48.6554C38.3902 48.8287 40.8011 48.641 43.306 48.0901C44.4319 47.8423 45.5409 47.5415 47.1755 47.0387C47.6263 46.8992 48.094 46.7572 48.217 46.7211L48.4364 46.6538L48.4653 46.4589C48.4798 46.353 48.5569 45.8478 48.6365 45.3401C48.7136 44.8301 48.7763 44.4139 48.7715 44.4091C48.7522 44.3922 47.8047 44.3225 47.3322 44.3032C46.7029 44.2768 46.1581 44.2768 45.3794 44.3056Z" fill="#E61D2B"/>
<path d="M47.8627 47.3371C46.4402 47.5031 45.0974 47.7749 42.0283 48.5136C39.8055 49.0501 38.9448 49.2425 37.8333 49.4518C37.3246 49.5457 36.394 49.6948 36.0613 49.7333L35.8926 49.7526L35.895 49.8368C35.8974 49.8825 35.9336 50.241 35.9745 50.6307C36.0613 51.468 36.1096 52.0261 36.1457 52.6035C36.1578 52.8345 36.1771 53.1232 36.1843 53.2459L36.1988 53.4648L36.4302 53.4552C37.7658 53.3951 38.7302 53.2796 39.8947 53.0486C41.9584 52.6348 44.0438 51.9323 46.38 50.8593C46.8139 50.6596 47.9591 50.1111 47.976 50.0918C47.9808 50.0894 48.0121 49.8536 48.0459 49.5697C48.1086 49.0284 48.3111 47.4983 48.3352 47.3635C48.3521 47.2721 48.4003 47.2745 47.8627 47.3371Z" fill="#E61D2B"/>
<path d="M47.5492 50.6281C46.3727 51.0227 45.4638 51.3764 42.9082 52.4398C39.7692 53.7437 38.1298 54.3308 36.5314 54.7205C36.353 54.7638 36.1987 54.812 36.1891 54.8264C36.1794 54.8408 36.1698 54.9274 36.1698 55.0213C36.1698 55.4832 36.0372 56.5586 35.9046 57.2154C35.8323 57.5667 35.69 58.1369 35.6418 58.2644C35.5839 58.4135 35.5791 58.4111 35.9745 58.3943C37.0184 58.3486 38.3637 58.1393 39.574 57.8337C42.0692 57.2058 44.5259 56.0919 47.2044 54.3789L47.6938 54.0661V53.9675C47.6963 53.4189 47.783 52.0644 47.8747 51.1358C47.9446 50.4549 47.9398 50.5102 47.9181 50.5102C47.906 50.5102 47.7421 50.5632 47.5492 50.6281Z" fill="#E61D2B"/>
<path d="M47.5372 54.3308C46.9441 54.6748 46.0207 55.2306 44.9093 55.9114C41.9246 57.7423 40.6734 58.4424 39.1907 59.1137C38.0118 59.6454 36.6448 60.1001 35.5406 60.3262C35.3357 60.3671 35.1476 60.4104 35.1187 60.4225C35.0729 60.4393 35.0632 60.4754 35.0343 60.7521C34.9837 61.2068 34.9909 62.1884 35.044 62.5348C35.0898 62.8235 35.1766 63.1483 35.2585 63.3384L35.3067 63.4539H35.4442C35.6467 63.4539 36.3 63.4106 36.7123 63.3697C40.5311 62.9847 44.2029 61.3728 47.7976 58.4978C48.111 58.2499 48.2219 58.1465 48.2147 58.1176C48.2074 58.0936 48.1689 57.9516 48.1303 57.8C47.8988 56.8954 47.7638 55.9066 47.7204 54.7735C47.7084 54.492 47.6963 54.2586 47.6915 54.2538C47.6867 54.249 47.6168 54.2851 47.5372 54.3308Z" fill="#E61D2B"/>
<path d="M47.4288 58.9597C46.3776 59.8643 45.394 60.6944 44.8371 61.1491C42.7179 62.8741 41.0688 63.9471 39.3836 64.6929C39.2076 64.7723 39.0678 64.8397 39.0726 64.8445C39.0871 64.8589 40.0442 64.9407 40.5577 64.972C41.1822 65.0081 42.7396 65.0105 43.3544 64.972C45.4639 64.8445 47.2673 64.5293 47.9399 64.1709C48.7258 63.7522 49.0489 62.5421 48.8609 60.7353C48.8247 60.3888 48.7379 59.8716 48.668 59.5925C48.5957 59.2942 48.2605 58.2813 48.2364 58.2837C48.2244 58.2837 47.8603 58.5868 47.4288 58.9597Z" fill="#E61D2B"/>
</svg>
