<svg width="160" height="80" viewBox="0 0 160 80" fill="none" xmlns="http://www.w3.org/2000/svg">
<path fill-rule="evenodd" clip-rule="evenodd" d="M28 52H33V50H28V52Z" fill="#130F26"/>
<path fill-rule="evenodd" clip-rule="evenodd" d="M77 47V33H69.8554L64.5 42.3888L59.1446 33H52V47H56.2868L56.1066 36.0722L62.717 47H66.2893L72.7132 36.0722L72.5331 47H77Z" fill="#130F26"/>
<path fill-rule="evenodd" clip-rule="evenodd" d="M44 47H48V33H44V47Z" fill="#130F26"/>
<path fill-rule="evenodd" clip-rule="evenodd" d="M44 30H48V28H44V30Z" fill="#130F26"/>
<path fill-rule="evenodd" clip-rule="evenodd" d="M40 42.6733V41.9114H35.6561C35.6561 43.0509 35.4735 43.4352 34.9321 43.8128C34.2081 44.1905 33.8492 44.1905 30.0467 44.1905C25.8854 44.1905 25.5265 43.8128 25.5265 40.1888V37.9031C25.7091 36.5714 26.2505 36.0017 27.3333 35.8095H31.3121C35.1084 35.8095 35.4735 36.0017 35.4735 37.711H39.8174V37.1412C39.8174 34.4778 39.0934 33.1462 37.2866 32.5698C36.3801 32.1921 34.7558 32 30.0467 32C25.8854 32 24.4374 32.1921 22.9894 32.954C21.5414 33.9081 21 35.4319 21 39.619C21 44.376 21.3588 45.8998 22.9894 47.046C24.0722 47.8079 25.5202 48 29.8641 48C36.5563 48 37.4629 47.8079 38.7283 46.8605C39.8111 46.0985 39.9937 44.959 39.9937 42.6733H40Z" fill="#130F26"/>
<path fill-rule="evenodd" clip-rule="evenodd" d="M80 40C80 31.6855 86.7773 25 95.2059 25C101.805 25 107.479 29.3396 109.5 35.3019C111.515 29.3396 117.195 25 123.973 25C132.216 25 139 31.6855 139 40C139 48.3145 132.223 55 123.973 55C117.195 55 111.515 50.6604 109.5 44.6981C107.485 50.6604 101.805 55 95.2059 55C86.7773 55 80 48.3145 80 40Z" fill="#005DA6"/>
<path fill-rule="evenodd" clip-rule="evenodd" d="M105 43.0468C105 41.3295 104.634 40.189 104.076 39.4264C103.338 38.6639 102.414 38.286 100.2 38.286C98.9105 38.286 97.9865 38.0937 97.8004 38.0937H91.5312C90.9794 37.9014 90.6072 37.5234 90.6072 36.7609C90.6072 35.9983 90.973 35.6204 92.0831 35.4281H96.3246C99.4623 35.4281 99.8281 35.6204 99.8281 36.9532H104.435C104.435 34.2876 103.883 33.1405 102.408 32.5702C101.118 32.1923 100.008 32 95.5866 32C92.6349 32 91.3452 32 89.8693 32.1923C86.9176 32.5702 86 33.9097 86 37.1455C86 39.6254 86.5518 40.7659 88.2138 41.3361C88.9517 41.5284 90.2415 41.7141 92.4553 41.7141H99.0966C100.021 41.9063 100.386 42.2843 100.386 43.0468C100.386 44.5719 99.8345 44.5719 94.3033 44.5719C93.1996 44.5719 91.9034 44.5719 91.5377 44.3796C90.7997 44.3796 90.6136 44.0017 90.6136 42.8545H86.0064V43.8094C86.0064 46.097 86.7443 47.2375 88.4063 47.622C89.51 47.8143 91.1719 48 94.6755 48C97.8132 48 99.103 48 100.945 47.8077C103.896 47.4298 105 46.0903 105 43.0468Z" fill="white"/>
<path fill-rule="evenodd" clip-rule="evenodd" d="M135 47L126.721 33H120.465L112 47H117.155L118.627 44.6112H128.379L129.852 47H135Z" fill="white"/>
<path fill-rule="evenodd" clip-rule="evenodd" d="M127 42H121L124.089 36L127 42Z" fill="#005DA6"/>
</svg>
