<svg width="160" height="80" viewBox="0 0 160 80" fill="none" xmlns="http://www.w3.org/2000/svg">
<g clip-path="url(#clip0_500_81918)">
<path opacity="0.25" d="M29.5828 39.1157L25.9093 32.7564L22.174 26.3354C21.9579 25.965 21.6492 25.6563 21.3096 25.4402H21.2787C20.9083 25.6563 20.5996 25.965 20.3835 26.3663L17.6052 31.182C17.2039 31.8612 17.2039 32.7256 17.6052 33.4047L20.9392 39.1774C21.1861 39.5787 21.2787 40.0418 21.2787 40.5048C21.2787 40.9679 21.1553 41.4309 20.9392 41.8323L17.6361 47.5432C17.2347 48.2224 17.2347 49.0868 17.6361 49.7659L20.4144 54.5817C20.6305 54.9521 20.9392 55.2917 21.3096 55.5078H21.3405C21.7109 55.2917 21.9888 54.983 22.2048 54.6125L25.9093 48.1915L29.5828 41.7705C30.0459 40.937 30.0459 39.9492 29.5828 39.1157Z" fill="url(#paint0_linear_500_81918)"/>
<path opacity="0.25" d="M47.3022 38.9305L43.5978 32.5404L39.8008 25.965C39.6156 25.6563 39.3995 25.4094 39.1216 25.1933C38.9673 25.0698 38.8129 25.0081 38.6277 25.0081C36.6829 25.0081 35.3555 25.0698 34.3676 25.0698C34.2133 25.0698 34.1207 25.255 34.1515 25.4094L35.1085 30.7808C35.1085 30.8425 35.1085 30.9043 35.0776 30.966C34.7072 31.6451 34.7381 32.4786 35.1394 33.1578L38.5351 39.0849C38.7821 39.5171 38.9055 39.9801 38.9055 40.4432C38.9055 40.9062 38.7821 41.3693 38.5351 41.8014L35.1085 47.7285C34.7072 48.4077 34.7072 49.2412 35.0468 49.9203C35.0776 49.982 35.0776 50.0438 35.0776 50.1055L34.1207 55.4461C34.0898 55.6004 34.1824 55.7856 34.3368 55.7856C35.232 55.7856 33.9663 55.8783 38.7203 55.8783C38.8129 55.8783 38.9364 55.8474 39.029 55.8165C39.3686 55.693 39.5847 55.2917 39.7699 54.9522L43.5669 48.3459L47.2405 41.9558C47.827 41.0297 47.827 39.8875 47.3022 38.9305Z" fill="url(#paint1_linear_500_81918)"/>
<path d="M45.7899 39.1157L38.4119 26.3355C37.9489 25.5329 37.0845 25.0081 36.1275 25.0081H21.3716C20.8777 25.0081 20.4146 25.1624 19.9824 25.4094V25.4402C20.322 25.6563 20.6307 25.965 20.8468 26.3355L24.5512 32.7565C24.8908 32.6021 25.2921 32.5095 25.6625 32.5095H31.7748C32.7318 32.5095 33.5962 33.0034 34.0592 33.8369L37.1154 39.1157C37.5784 39.9184 37.5784 40.9371 37.1154 41.7706L34.0592 47.0494C33.5962 47.852 32.7009 48.3768 31.7748 48.3768H25.6934C25.2921 48.3768 24.9217 48.2842 24.5821 48.1298L20.8777 54.5508C20.6616 54.9213 20.3529 55.23 20.0133 55.4461V55.4769C20.4146 55.7239 20.9085 55.8783 21.4025 55.8783H36.1893C37.1463 55.8783 38.0106 55.3843 38.4737 54.5508L45.8517 41.7706C46.2838 40.9371 46.2838 39.9492 45.7899 39.1157Z" fill="url(#paint2_linear_500_81918)"/>
<path d="M28.2247 39.1157L24.5511 32.7564L20.8467 26.3354C20.6306 25.965 20.3219 25.6563 19.9824 25.4402H19.9515C19.581 25.6563 19.2723 25.965 19.0562 26.3663L16.3088 31.1512C15.9075 31.8303 15.9075 32.6947 16.3088 33.3738L19.6428 39.1466C19.8897 39.5479 19.9824 40.0109 19.9824 40.474C19.9824 40.937 19.8589 41.4001 19.6428 41.8014L16.3088 47.5432C15.9075 48.2224 15.9075 49.0868 16.3088 49.7659L19.0871 54.5817C19.3032 54.9521 19.6119 55.2917 19.9824 55.5078H20.0132C20.3837 55.2917 20.6615 54.983 20.8776 54.6125L24.582 48.1915L28.2556 41.8323C28.7186 40.937 28.7186 39.9492 28.2247 39.1157Z" fill="url(#paint3_linear_500_81918)"/>
<path d="M67.6768 35.7508C66.9977 35.1026 66.2259 34.6086 65.3307 34.2691C64.4663 33.9295 63.5402 33.7443 62.5832 33.7443H57.644C56.6561 33.7443 55.8535 34.516 55.8535 35.473V47.0802C55.8535 48.0372 56.6561 48.8089 57.644 48.8089H62.5832C63.5093 48.8089 64.4354 48.6237 65.3307 48.2841C66.2259 47.9446 66.9977 47.4506 67.6768 46.8024C69.1586 45.3823 69.8995 43.4993 69.8995 41.2766C69.9303 39.0539 69.1586 37.2017 67.6768 35.7508ZM66.2259 45.0736C65.2998 46.1232 64.065 46.648 62.5524 46.648H58.1996V35.8743H62.5524C64.065 35.8743 65.2998 36.3991 66.2259 37.4487C67.152 38.4674 67.6151 39.764 67.6151 41.2457C67.5842 42.7892 67.1211 44.0549 66.2259 45.0736ZM88.3907 38.4365C87.7424 37.8191 86.9707 37.387 86.0755 37.2017C85.9211 37.1709 85.7359 37.14 85.5507 37.14C84.8098 37.1091 84.1615 37.1709 83.575 37.387C82.5871 37.7265 81.7845 38.3131 81.2288 39.0539C80.8584 38.4983 80.3645 38.0352 79.7471 37.6957C78.9136 37.2326 77.8948 37.0474 76.8761 37.1709C75.8574 37.2943 74.993 37.6957 74.3139 38.4057C74.3139 37.8191 73.7891 37.3252 73.1408 37.3252C72.4926 37.3252 71.9678 37.8191 71.9678 38.4365V47.7285C71.9678 48.3459 72.4926 48.8398 73.1408 48.8398C73.7891 48.8398 74.3139 48.3459 74.3139 47.7285V41.9866C74.3139 41.1223 74.5917 40.4122 75.1474 39.9183C75.6722 39.4244 76.3513 39.1774 77.1231 39.1774C77.864 39.1774 78.4814 39.4244 78.9444 39.9183C79.4384 40.4431 79.6853 41.1223 79.6853 41.9557V47.6976C79.6853 48.315 80.2101 48.8089 80.8584 48.8089C81.5067 48.8089 82.0315 48.315 82.0315 47.6976V41.9866C82.0315 41.1223 82.3093 40.4122 82.865 39.9183C83.3897 39.4244 84.0689 39.1774 84.8406 39.1774C85.5815 39.1774 86.1989 39.4244 86.662 39.9183C87.1559 40.4431 87.4029 41.1223 87.4029 41.9557V47.6976C87.4029 48.315 87.9277 48.8089 88.5759 48.8089C89.2242 48.8089 89.749 48.315 89.749 47.6976V41.9249C89.7799 40.5357 89.3168 39.3626 88.3907 38.4365ZM102.097 37.1091C101.449 37.1091 100.924 37.603 100.924 38.2205V38.3748C99.9671 37.4178 98.7322 36.9548 97.2196 36.9548C95.3983 36.9548 93.9165 37.5413 92.836 38.6835C91.7864 39.8257 91.2308 41.2149 91.2308 42.8819C91.2308 44.5488 91.7556 45.938 92.836 47.0802C93.9474 48.2224 95.3674 48.8089 97.127 48.8089C98.7322 48.8089 99.9979 48.3459 100.955 47.3889V47.5124C100.955 48.1298 101.48 48.6237 102.128 48.6237C102.776 48.6237 103.301 48.1298 103.301 47.5124V38.2205C103.239 37.603 102.745 37.1091 102.097 37.1091ZM100.06 45.5984C99.4114 46.3393 98.4853 46.7098 97.3431 46.7098C96.2009 46.7098 95.2748 46.3393 94.5648 45.5676C93.8856 44.8575 93.546 43.9314 93.546 42.8201C93.546 41.7088 93.8856 40.8135 94.5648 40.0727C95.2748 39.3318 96.2009 38.9305 97.3431 38.9305C98.4853 38.9305 99.4114 39.3009 100.06 40.0418C100.708 40.7518 101.017 41.6779 101.017 42.7892C101.017 43.9623 100.708 44.8884 100.06 45.5984ZM111.79 37.1091C111.019 37.1091 110.37 37.2326 109.815 37.4796C108.981 37.85 108.302 38.3748 107.839 39.0231V38.4057C107.839 37.7883 107.314 37.2943 106.666 37.2943C106.018 37.2943 105.493 37.7883 105.493 38.4057V47.6976C105.493 48.315 106.018 48.8089 106.666 48.8089C107.314 48.8089 107.839 48.315 107.839 47.6976V43.7153C107.839 42.5423 108.179 41.5236 108.889 40.6592C109.599 39.7948 110.556 39.3318 111.698 39.3318H112.192V37.1091H111.79ZM122.996 47.0802L119.107 41.9249L122.07 39.1774C122.41 38.8687 122.502 38.4057 122.317 37.9735C122.132 37.5722 121.731 37.2943 121.267 37.2943C120.959 37.2943 120.65 37.4178 120.465 37.6339L115.649 42.2953V34.0221C115.649 33.4356 115.124 32.9417 114.507 32.9417H114.476C113.859 32.9417 113.334 33.4356 113.334 34.0221V47.7285C113.334 48.315 113.859 48.8089 114.476 48.8089H114.507C115.124 48.8089 115.649 48.315 115.649 47.7285V45.1971L117.47 43.4684L121.051 48.3459C121.267 48.6237 121.607 48.8089 121.978 48.8089H122.008C122.441 48.8089 122.811 48.5928 123.027 48.2224C123.274 47.852 123.243 47.4198 122.996 47.0802ZM133.924 38.6835C132.782 37.5413 131.3 36.9548 129.51 36.9548C127.719 36.9548 126.238 37.5413 125.095 38.6835C124.046 39.7948 123.49 41.184 123.49 42.8819C123.49 44.5488 124.046 45.9689 125.157 47.0802C126.299 48.2224 127.812 48.8089 129.602 48.8089C131.022 48.8089 132.226 48.4694 133.122 47.8211C133.616 47.4815 134.017 47.0802 134.387 46.6171C134.634 46.2776 134.665 45.8454 134.48 45.4749C134.295 45.1045 133.893 44.8884 133.461 44.8884C133.091 44.8884 132.72 45.0736 132.504 45.3823C131.887 46.2776 130.899 46.7098 129.633 46.7098C128.584 46.7098 127.689 46.4011 127.009 45.7837C126.423 45.2589 126.052 44.5797 125.898 43.808H135.159C135.375 43.808 135.53 43.6536 135.53 43.4375V42.851C135.53 41.184 134.974 39.764 133.924 38.6835ZM125.929 41.7088C126.114 40.9679 126.485 40.3505 127.009 39.8874C127.689 39.3009 128.522 39.0231 129.479 39.0231C130.467 39.0231 131.3 39.3009 131.949 39.8874C132.504 40.3505 132.844 40.9679 133.029 41.7088H125.929ZM141.951 37.2943H140.345V34.4852C140.345 33.8678 139.82 33.3738 139.172 33.3738C138.524 33.3738 137.999 33.8678 137.999 34.4852V37.2943H136.703C136.116 37.2943 135.653 37.7574 135.653 38.3131C135.653 38.8687 136.116 39.3318 136.703 39.3318H137.999V47.6976C137.999 48.315 138.524 48.8089 139.172 48.8089C139.82 48.8089 140.345 48.315 140.345 47.6976V39.3318H141.951C142.537 39.3318 143 38.8687 143 38.3131C143 37.7574 142.537 37.2943 141.951 37.2943Z" fill="#3C4562"/>
</g>
<defs>
<linearGradient id="paint0_linear_500_81918" x1="17.3323" y1="40.474" x2="29.9239" y2="40.474" gradientUnits="userSpaceOnUse">
<stop stop-color="#00BA96"/>
<stop offset="0.525" stop-color="#00D9AF"/>
<stop offset="1" stop-color="#00D9AF"/>
</linearGradient>
<linearGradient id="paint1_linear_500_81918" x1="34.137" y1="40.4432" x2="47.7106" y2="40.4432" gradientUnits="userSpaceOnUse">
<stop stop-color="#008D85"/>
<stop offset="1" stop-color="#00FFE0"/>
</linearGradient>
<linearGradient id="paint2_linear_500_81918" x1="19.9824" y1="40.4432" x2="46.1684" y2="40.4432" gradientUnits="userSpaceOnUse">
<stop stop-color="#008D94"/>
<stop offset="1" stop-color="#00FFE0"/>
</linearGradient>
<linearGradient id="paint3_linear_500_81918" x1="16.0078" y1="40.474" x2="28.5992" y2="40.474" gradientUnits="userSpaceOnUse">
<stop stop-color="#00BA96"/>
<stop offset="0.525" stop-color="#00D9AF"/>
<stop offset="1" stop-color="#00FAAF"/>
</linearGradient>
<clipPath id="clip0_500_81918">
<rect width="127" height="30.8864" fill="white" transform="translate(16 25)"/>
</clipPath>
</defs>
</svg>
