<svg width="160" height="80" viewBox="0 0 160 80" fill="none" xmlns="http://www.w3.org/2000/svg">
<path d="M77.8 22.2V24H81.25H84.7001V22.2V20.4H81.25H77.8V22.2Z" fill="#130F26"/>
<path d="M53.8999 25.86C53.7599 25.88 53.3099 25.95 52.8999 26.01C50.7299 26.33 48.2499 27.54 46.6 29.1L45.95 29.72L46.42 29.46C50.5499 27.18 54.1699 26.46 57.8299 27.2C59.2499 27.49 61.0399 28.11 62.3399 28.76L63.4499 29.31L62.9999 28.91C61.6999 27.75 59.7399 26.69 58.0999 26.26C56.6999 25.89 54.8899 25.72 53.8999 25.86Z" fill="#130F26"/>
<path d="M79.5699 26.3001C76.9299 26.7201 74.8499 27.7701 72.9499 29.6501C71.4399 31.1301 70.6199 32.4201 69.9999 34.2801C68.1599 39.7701 70.6399 45.8501 75.7999 48.4901C81.5699 51.4401 88.5199 49.2901 91.6399 43.5901C92.5799 41.8701 92.9999 40.0601 92.9999 37.7101V36.1001H87.9999H82.9999V38.2001V40.3001H84.9099H86.8099L86.7399 40.5201C86.6099 40.9601 85.7799 42.1001 85.2699 42.5501C84.6799 43.0601 83.4999 43.7001 82.7499 43.9101C81.9499 44.1301 80.2899 44.0901 79.4499 43.8301C77.5399 43.2201 75.9599 41.6401 75.3699 39.7501C75.0599 38.7601 75.0699 37.1201 75.3899 36.2001C76.2199 33.8001 78.2499 32.1901 80.7699 31.9501C82.1899 31.8101 83.9199 32.3701 85.1599 33.3901L85.7699 33.8901L87.8999 31.9701L90.0199 30.0501L89.3399 29.4201C87.7699 27.9701 85.8399 26.9501 83.7999 26.4901C82.8199 26.2601 80.4699 26.1601 79.5699 26.3001Z" fill="#130F26"/>
<path d="M127.65 26.31C126.26 26.51 124.34 27.27 123.27 28.04C121.35 29.42 120.45 31.06 120.46 33.2C120.46 34.98 120.95 36.16 122.2 37.4C123.43 38.62 125.27 39.52 128.01 40.25C128.75 40.44 129.79 40.72 130.33 40.87C131.25 41.11 132.45 41.62 132.8 41.92C133.33 42.37 133.44 42.97 133.07 43.5C131.91 45.23 127.09 44.62 123.66 42.3L122.88 41.78L122.55 42.11C121.1 43.63 119.4 45.5 119.4 45.59C119.4 45.74 120.51 46.64 121.46 47.26C123.84 48.82 126.32 49.65 128.9 49.77C133.36 49.96 137.44 48.01 138.94 44.96C139.8 43.22 139.81 41.5 138.96 39.81C137.99 37.9 136.4 36.93 131.15 35.08C127.84 33.92 127.3 33.6 127.3 32.81C127.3 32.04 127.97 31.6 129.26 31.52C131.02 31.41 133.33 31.97 134.83 32.87C135.15 33.06 135.43 33.21 135.44 33.19C135.46 33.17 136.16 32.14 137 30.91C138.74 28.36 138.69 28.68 137.41 28.01C134.78 26.65 130.5 25.9 127.65 26.31Z" fill="#130F26"/>
<path d="M20.3999 38.01V49.21L25.6299 49.17C30.4799 49.13 30.9099 49.12 31.6999 48.92C33.6499 48.45 35.1199 47.76 36.4299 46.7C38.9099 44.69 40.2999 41.59 40.2999 38.05C40.2999 31.99 36.3599 27.58 30.3699 26.91C29.8299 26.85 27.4399 26.8 24.8999 26.8H20.3999V38.01ZM30.8499 32.45C32.9199 33.03 34.3199 34.51 34.7599 36.6C34.9699 37.57 34.8999 39.18 34.6099 40.11C34.1999 41.41 33.2599 42.51 32.0499 43.11C30.9399 43.65 30.5399 43.72 28.0799 43.77L25.7999 43.82V38V32.18L28.0299 32.23C29.6799 32.27 30.3999 32.32 30.8499 32.45Z" fill="#130F26"/>
<path d="M95.7398 26.9401C95.6298 27.2201 95.7698 39.9301 95.8898 40.5101C96.3898 43.0501 97.3298 44.9001 98.9998 46.6401C100.37 48.0601 101.99 49.0201 103.88 49.5101C104.89 49.7701 107.02 49.8701 108.07 49.7001C112.69 48.9601 116.28 45.4101 117.21 40.6701C117.39 39.7701 117.4 39.1901 117.4 33.2501V26.8001H114.55H111.71L111.68 33.2701L111.65 39.7501L111.39 40.4201C110.66 42.2901 109.39 43.5201 107.75 43.9501C105.22 44.6001 102.75 43.1701 101.78 40.5001L101.55 39.8501L101.5 33.3501L101.45 26.8501L98.6198 26.8201C96.2498 26.8001 95.7898 26.8201 95.7398 26.9401Z" fill="#130F26"/>
<path d="M52.4998 29.0499C51.3098 29.2099 50.6398 29.3899 48.9798 29.9699C47.1198 30.6099 46.2398 30.9999 45.4398 31.5199C44.2198 32.3199 43.8498 32.7099 43.5198 33.5799C43.0298 34.8499 43.0298 34.8499 43.6698 34.2299C46.8898 31.1099 51.6898 29.5599 56.2998 30.1399C59.2598 30.5199 60.6298 30.8899 62.6598 31.8499C63.9698 32.4699 64.9098 33.0599 65.8298 33.8399L66.4998 34.3999L66.1998 33.5899C66.0298 33.1099 65.8098 32.6999 65.6798 32.6099C63.9198 31.3299 61.7298 30.1599 60.4298 29.8199C58.8098 29.3799 55.2998 28.8899 54.0098 28.9099C53.6998 28.9199 53.0198 28.9799 52.4998 29.0499Z" fill="#130F26"/>
<path d="M53.45 30.9699C49.09 31.6699 46.22 33.0599 43.63 35.7299L42.7 36.6699V37.4099L42.71 38.1499L43.02 37.7499C43.19 37.5299 43.83 36.8499 44.44 36.2499C48.27 32.4299 53.67 31.0499 58.86 32.5599C60.3 32.9699 62.71 33.9699 63.59 34.5099C64.65 35.1699 65.86 36.3099 66.52 37.2899L67.03 38.0499L66.97 37.2199C66.91 36.2699 66.88 36.2199 65.92 35.1899C65.1 34.3099 64.12 33.5999 62.85 32.9699C61.6 32.3499 60.75 32.0599 58.45 31.4799C56.63 31.0299 56.33 30.9799 55.1 30.9499C54.36 30.9299 53.62 30.9399 53.45 30.9699Z" fill="#130F26"/>
<path d="M53.0998 33.4099C51.5198 33.6099 49.8598 34.1099 48.4598 34.8199C47.7298 35.1899 46.2998 36.2099 45.0098 37.2999C44.4298 37.7799 43.4598 38.9399 43.0598 39.6299C42.8098 40.0499 42.8098 40.0699 42.9598 40.6999C43.0398 41.0599 43.1298 41.4199 43.1598 41.4999C43.1898 41.5899 43.3998 41.2899 43.7098 40.6899C44.5098 39.1399 45.1598 38.4399 47.3398 36.8099C49.6998 35.0399 52.1098 34.3199 55.2898 34.4299C57.5298 34.4999 58.8898 34.8899 61.5298 36.2099C62.7498 36.8199 63.2198 37.1399 64.0598 37.9199C64.9198 38.7299 65.5398 39.5699 66.0598 40.6299L66.4798 41.4999L66.6398 40.8099C66.7298 40.4199 66.7998 40.0099 66.7998 39.8899C66.7998 39.5999 65.9898 38.4099 65.2598 37.6199C64.3698 36.6699 63.2198 35.8599 61.7498 35.1499C60.1998 34.3999 59.4498 34.0999 58.2798 33.7599C56.8498 33.3499 54.7098 33.1999 53.0998 33.4099Z" fill="#130F26"/>
<path d="M52.7498 36.5999C50.6898 36.8899 48.1798 38.5199 46.6298 40.5799C45.7798 41.6999 44.4998 44.3099 44.6298 44.6399C44.6598 44.6999 44.8198 44.9499 44.9998 45.1899L45.3198 45.6299L45.6998 44.6099C46.2198 43.2399 47.0198 41.7499 47.6498 40.9499C48.9298 39.3499 51.0398 37.9699 52.6498 37.6899C53.4898 37.5499 55.3298 37.6199 56.1098 37.8399C56.7598 38.0099 59.9598 39.3199 60.8898 39.7999C62.4498 40.5799 63.7698 42.4799 64.2098 44.5499C64.2698 44.8799 64.3698 45.1899 64.4098 45.2399C64.4498 45.2799 64.6498 45.0699 64.8598 44.7599L65.2398 44.1899L65.0098 43.4699C64.3598 41.4699 63.0298 39.7199 61.5498 38.9299C61.0598 38.6799 58.2898 37.4999 57.0498 37.0199C56.0698 36.6399 53.9198 36.4299 52.7498 36.5999Z" fill="#130F26"/>
<path d="M53.75 39.9C52.91 40.04 52.57 40.16 51.54 40.7C50.27 41.35 49.58 41.84 49.06 42.41C48.31 43.24 47.43 45.17 47.09 46.72C46.97 47.28 46.98 47.3 47.21 47.5C47.69 47.91 47.79 47.93 47.86 47.63C48.38 45.31 49.09 43.7 49.92 42.94C50.41 42.49 52.31 41.4 53.05 41.15C53.81 40.89 55.41 40.84 56.35 41.05C57.28 41.25 57.67 41.41 58.38 41.86C59.52 42.6 60.56 43.78 61.15 45.02C61.49 45.73 61.79 46.87 61.8 47.42C61.8 47.83 61.92 47.82 62.4 47.41C62.82 47.05 62.83 47.03 62.76 46.59C62.39 44.21 60.52 41.71 58.23 40.56C57.06 39.98 55.12 39.69 53.75 39.9Z" fill="#130F26"/>
<path d="M54.1 42.2999C52.82 42.4599 50.96 43.3399 50.25 44.1299C49.51 44.9399 48.94 46.4199 48.76 47.9699C48.7 48.4699 48.7 48.4899 49.02 48.6799C49.2 48.7899 49.45 48.9099 49.58 48.9499C49.79 49.0099 49.8 48.9899 49.8 48.2799C49.8 46.9399 50.23 45.7099 50.97 44.8899C51.41 44.3999 52.83 43.6599 53.73 43.4499C54.07 43.3699 54.79 43.2999 55.34 43.2999C56.31 43.2999 56.34 43.3099 57.09 43.7199C58.8 44.6599 59.71 45.9899 59.92 47.8499C59.98 48.3999 60.04 48.8699 60.06 48.8899C60.08 48.9099 60.3 48.7999 60.55 48.6599C60.97 48.4099 61 48.3699 61 47.9599C61 47.3299 60.65 46.0699 60.28 45.3699C59.81 44.4799 58.87 43.5399 57.89 42.9499C56.64 42.2099 55.91 42.0899 54.1 42.2999Z" fill="#130F26"/>
<path d="M54.55 45.2001C53.81 45.3101 53.29 45.4701 52.93 45.7001C52.25 46.1101 51.73 47.1701 51.5 48.6001C51.35 49.5901 51.36 49.6701 51.69 49.7301C51.85 49.7601 52.09 49.8201 52.22 49.8501C52.47 49.9101 52.47 49.9101 52.53 49.0801C52.63 47.5401 53.08 46.6601 53.88 46.4201C54.63 46.1901 55.43 46.1601 55.78 46.3401C56.54 46.7301 57.22 48.0901 57.22 49.2201C57.22 49.6801 57.26 49.8701 57.33 49.8501C57.4 49.8301 57.64 49.7601 57.88 49.7001L58.3 49.5901V49.1201C58.29 48.4601 58.14 47.8501 57.79 47.1501C57.03 45.6101 55.98 44.9801 54.55 45.2001Z" fill="#130F26"/>
<path d="M128.76 52.15C127.07 52.75 126.7 54.86 128.07 55.99C129.14 56.88 130.78 56.55 131.42 55.31C132.06 54.08 131.5 52.61 130.21 52.15C129.68 51.97 129.27 51.96 128.76 52.15Z" fill="#130F26"/>
<path d="M44.1398 54.1999C42.1698 54.6599 41.9498 57.5599 43.8198 58.3399C44.2498 58.5199 45.0598 58.5499 45.4698 58.3899C46.1598 58.1299 46.6898 57.2899 46.6998 56.4699V55.9999H45.7498H44.7998V56.3499V56.6999H45.3598H45.9198L45.8498 56.9699C45.7498 57.4099 45.3798 57.7199 44.8798 57.7699C43.9998 57.8699 43.3998 57.2799 43.3998 56.3199C43.3998 55.6999 43.5898 55.3099 44.0198 55.0599C44.3898 54.8399 45.1298 54.8299 45.4698 55.0499C45.7198 55.2199 45.7298 55.2099 45.9898 54.9599L46.2498 54.6899L45.9998 54.4999C45.5498 54.1599 44.7998 54.0399 44.1398 54.1999Z" fill="#130F26"/>
<path d="M54.44 54.21C53.88 54.34 53.26 54.9 53.05 55.45C52.78 56.13 52.88 57.08 53.25 57.62C53.67 58.21 54.27 58.5 55.06 58.5C56.08 58.5 56.7 58.14 57.08 57.32C57.57 56.24 57.21 54.96 56.25 54.43C55.77 54.17 55 54.08 54.44 54.21ZM55.89 55.09C56.15 55.24 56.49 55.92 56.5 56.33C56.51 57.38 55.45 58.08 54.48 57.67C53.61 57.31 53.44 55.83 54.18 55.16C54.57 54.81 55.31 54.78 55.89 55.09Z" fill="#130F26"/>
<path d="M48.3999 56.34V58.5H48.7999H49.1999V57.7C49.1999 56.91 49.1999 56.9 49.4499 56.9C49.6499 56.9 49.7999 57.05 50.2199 57.7L50.7499 58.5H51.2199H51.6899L51.1399 57.71C50.8499 57.27 50.5999 56.87 50.5999 56.82C50.5999 56.76 50.6899 56.68 50.8099 56.65C51.3099 56.49 51.5599 55.5 51.2499 54.9C50.9999 54.42 50.5799 54.27 49.4299 54.22L48.3999 54.18V56.34ZM50.3999 55.1C50.8799 55.58 50.4399 56.3 49.6499 56.3H49.1999V55.6V54.9H49.6999C50.0699 54.9 50.2499 54.95 50.3999 55.1Z" fill="#130F26"/>
<path d="M58.9199 55.82C58.9499 57.66 59.0499 57.97 59.6999 58.31C60.2099 58.59 61.1699 58.57 61.5999 58.27C62.2999 57.8 62.3499 57.66 62.3799 55.84L62.4199 54.2H62.0199H61.6199L61.5799 55.75C61.5499 57.26 61.5399 57.3 61.2899 57.56C60.9299 57.92 60.3699 57.92 60.0099 57.56C59.7599 57.3 59.7499 57.26 59.7199 55.75L59.6799 54.2H59.2799H58.8799L58.9199 55.82Z" fill="#130F26"/>
<path d="M64.2 56.35V58.5H64.6H65V57.75V57H65.58C66.65 57 67.25 56.42 67.17 55.47C67.14 55.12 67.05 54.91 66.84 54.69C66.48 54.32 66.06 54.2 65.03 54.2H64.2V56.35ZM66.12 55.07C66.66 55.69 66.25 56.4 65.35 56.4H65V55.65V54.9H65.48C65.82 54.9 66.02 54.95 66.12 55.07Z" fill="#130F26"/>
</svg>
