<svg width="160" height="80" viewBox="0 0 160 80" fill="none" xmlns="http://www.w3.org/2000/svg">
<path fill-rule="evenodd" clip-rule="evenodd" d="M59 33L58.8362 35.3502H52.7378L52.4409 39.5427H58.191L58.0118 41.8672H52.2821L51.9544 46.6498H58.3856L58.2217 49H49L50.147 33H59Z" fill="#6D5F56"/>
<path fill-rule="evenodd" clip-rule="evenodd" d="M69 37.4437L68.5418 39.5703C67.9807 39.3408 67.3784 39.2235 66.7349 39.2235C65.8752 39.2235 65.139 39.4581 64.5367 39.9222C63.9344 40.3914 63.4917 40.9983 63.2137 41.7429C62.9408 42.4875 62.8482 43.2728 62.946 44.0888C63.0489 44.9354 63.3527 45.5984 63.8675 46.0778C64.3823 46.5572 65.0309 46.7918 65.8134 46.7918C66.6371 46.7918 67.4299 46.6133 68.2021 46.2512L68.5779 48.3421C68.166 48.541 67.6924 48.6991 67.157 48.8215C66.6216 48.9388 66.009 49 65.3192 49C64.3771 49 63.5277 48.8113 62.7607 48.4288C61.9936 48.0463 61.381 47.5108 60.9177 46.8122C60.4544 46.1135 60.1661 45.3077 60.058 44.3948C59.8984 43.0637 60.0683 41.8347 60.5676 40.7025C61.067 39.5703 61.8443 38.6728 62.8945 38.0047C63.9447 37.3366 65.1648 37 66.5547 37C67.4916 37 68.305 37.153 68.9897 37.4488L69 37.4437Z" fill="#6D5F56"/>
<path fill-rule="evenodd" clip-rule="evenodd" d="M78.9954 37L78.8793 38.8359L75.3266 43.9552C74.6115 44.9823 73.9149 45.8656 73.2415 46.6V46.6745H78.5263L78.387 49H70L70.1068 47.2705L73.7198 42.0448C74.4164 41.0656 75.1176 40.1823 75.8282 39.4L75.8421 39.3308H70.9752L71.1192 37.0053H79L78.9954 37Z" fill="#6D5F56"/>
<path fill-rule="evenodd" clip-rule="evenodd" d="M91 37.5191L90.5092 43.4987C90.3839 45.0712 90.4205 46.6692 90.6136 48.2875L90.6711 48.7354H88.0501C87.9875 48.0534 87.9614 47.1985 87.9614 46.1654H87.8935C87.0633 48.0534 85.7737 49 84.0195 49C82.97 49 82.0877 48.6387 81.362 47.9211C80.6362 47.1985 80.2029 46.257 80.0619 45.0916C79.9418 44.0789 79.994 43.0967 80.2394 42.145C80.4744 41.1934 80.9025 40.3282 81.5134 39.5445C82.119 38.7608 82.923 38.145 83.9255 37.687C84.9227 37.229 86.0766 37 87.3818 37C88.6871 37 89.8357 37.173 91 37.5191ZM88.0553 39.2494C87.716 39.1628 87.3244 39.1221 86.8963 39.1221C86.2593 39.1221 85.6798 39.2799 85.1629 39.5903C84.6408 39.9059 84.2074 40.3232 83.8524 40.8422C83.4974 41.3664 83.2415 41.9567 83.0797 42.6285C82.9178 43.3003 82.8708 43.9517 82.9492 44.5878C83.0275 45.2341 83.2311 45.7583 83.56 46.1654C83.8889 46.5725 84.3432 46.7761 84.9175 46.7761C85.3769 46.7761 85.8051 46.6031 86.2175 46.2519C86.6248 45.8957 86.9798 45.3766 87.267 44.6794C87.5646 43.9873 87.7473 43.1781 87.8152 42.257L88.0658 39.2443L88.0553 39.2494Z" fill="#6D5F56"/>
<path fill-rule="evenodd" clip-rule="evenodd" d="M100.995 37.4437L100.588 39.5703C100.089 39.3408 99.5486 39.2235 98.9762 39.2235C98.2116 39.2235 97.5614 39.4581 97.0212 39.9222C96.4855 40.3914 96.0917 40.9983 95.849 41.7429C95.6018 42.4875 95.524 43.2728 95.611 44.0888C95.7025 44.9354 95.9772 45.5984 96.4351 46.0778C96.893 46.5572 97.4699 46.7918 98.1658 46.7918C98.8984 46.7918 99.6081 46.6133 100.295 46.2512L100.629 48.3421C100.263 48.541 99.8416 48.6991 99.3654 48.8215C98.8893 48.9388 98.3444 49 97.7309 49C96.8975 49 96.1375 48.8113 95.4599 48.4288C94.7776 48.0463 94.2328 47.5108 93.8161 46.8122C93.3995 46.1135 93.1476 45.3077 93.0515 44.3948C92.9096 43.0637 93.0607 41.8347 93.5094 40.7025C93.9535 39.5703 94.6449 38.6728 95.5789 38.0047C96.5129 37.3366 97.5981 37 98.8297 37C99.6676 37 100.391 37.153 101 37.4488L100.995 37.4437Z" fill="#6D5F56"/>
<path fill-rule="evenodd" clip-rule="evenodd" d="M106 37L105.314 49H103L103.677 37H106Z" fill="#6D5F56"/>
<path fill-rule="evenodd" clip-rule="evenodd" d="M118.946 41.0273C119.085 42.2907 118.956 43.5388 118.555 44.7717C118.155 46.0045 117.472 47.0183 116.514 47.813C115.555 48.6077 114.353 49 112.903 49C112.145 49 111.486 48.8828 110.919 48.6485C110.351 48.4141 110.027 48.2104 109.693 47.7417C109.354 47.273 109.111 46.7024 109.039 46.0249C108.987 45.5307 108.987 44.736 109.039 43.9158L109.817 32H112.402L111.949 38.9029L111.939 38.9233C112.307 38.2916 112.779 37.8127 113.342 37.4765C113.905 37.1453 114.544 36.9823 115.25 36.9823C116.337 36.9823 117.191 37.3746 117.816 38.1591C118.441 38.9437 118.822 39.9014 118.942 41.0222L118.946 41.0273ZM116.294 41.5265C116.223 40.8642 116.018 40.3141 115.684 39.8759C115.35 39.4378 114.902 39.2188 114.339 39.2188C113.905 39.2188 113.485 39.3716 113.089 39.6773C112.698 39.9829 112.369 40.4312 112.111 41.0018C111.849 41.5775 111.687 42.2397 111.62 42.9937L111.544 44.0584C111.51 44.5373 111.51 44.9449 111.544 45.2709L111.563 45.4339C111.629 45.8975 111.796 46.2541 112.068 46.5037C112.34 46.7534 112.703 46.8807 113.156 46.8807C113.862 46.8807 114.467 46.6056 114.978 46.0503C115.488 45.4951 115.86 44.7971 116.084 43.9616C116.313 43.1262 116.385 42.3161 116.294 41.5265Z" fill="#6D5F56"/>
<path fill-rule="evenodd" clip-rule="evenodd" d="M131 37.5191L130.509 43.4987C130.378 45.0712 130.42 46.6692 130.613 48.2875L130.671 48.7354H128.048C127.986 48.0534 127.96 47.1985 127.96 46.1654H127.892C127.066 48.0534 125.776 49 124.021 49C122.976 49 122.088 48.6387 121.362 47.9211C120.641 47.1985 120.207 46.257 120.061 45.0916C119.941 44.0789 119.998 43.0967 120.238 42.145C120.479 41.1934 120.902 40.3282 121.513 39.5445C122.124 38.7608 122.924 38.145 123.927 37.687C124.924 37.229 126.079 37 127.385 37C128.691 37 129.84 37.173 131 37.5191ZM128.054 39.2494C127.714 39.1628 127.327 39.1221 126.894 39.1221C126.257 39.1221 125.677 39.2799 125.159 39.5903C124.637 39.9059 124.203 40.3232 123.848 40.8422C123.493 41.3664 123.232 41.9567 123.075 42.6285C122.913 43.3003 122.871 43.9517 122.944 44.5878C123.023 45.2341 123.227 45.7583 123.556 46.1654C123.885 46.5725 124.334 46.7761 124.909 46.7761C125.368 46.7761 125.802 46.6031 126.21 46.2519C126.617 45.8957 126.972 45.3766 127.265 44.6794C127.557 43.9873 127.74 43.1781 127.808 42.257L128.059 39.2443L128.054 39.2494Z" fill="#6D5F56"/>
<path fill-rule="evenodd" clip-rule="evenodd" d="M137.972 51H135L135.028 49H138L137.972 51Z" fill="#6D5F56"/>
<path fill-rule="evenodd" clip-rule="evenodd" d="M139.837 37.5865L139.409 39.5652C139.188 39.4326 138.899 39.3153 138.545 39.2082C138.191 39.1011 137.814 39.0451 137.409 39.0451C136.945 39.0451 136.582 39.1675 136.315 39.4122C136.048 39.657 135.938 39.9783 135.979 40.3761C136.011 40.6821 136.149 40.9626 136.393 41.2023C136.637 41.4471 137 41.7072 137.487 41.9826C139.014 42.8241 139.841 43.844 139.97 45.0527C140.039 45.6851 139.988 46.2461 139.827 46.7357C139.666 47.2202 139.404 47.6332 139.05 47.9698C138.696 48.3013 138.264 48.5614 137.749 48.7348C137.239 48.9082 136.678 49 136.067 49H135.984C135.409 48.9898 134.853 48.9082 134.31 48.7501C133.768 48.5971 133.331 48.3982 133 48.1585L133.432 46.2053C133.768 46.3991 134.172 46.5725 134.641 46.7255C135.106 46.8785 135.556 46.955 135.993 46.955C136.476 46.955 136.853 46.8224 137.115 46.5572C137.377 46.292 137.487 45.9503 137.441 45.5321C137.404 45.17 137.271 44.8589 137.046 44.5937C136.825 44.3336 136.439 44.0531 135.896 43.7624C135.221 43.3952 134.678 42.9567 134.255 42.4467C133.841 41.9418 133.598 41.3859 133.533 40.7841C133.455 40.0599 133.566 39.4071 133.86 38.8309C134.154 38.2495 134.605 37.8007 135.211 37.4794C135.818 37.1632 136.522 37 137.326 37C138.342 37 139.179 37.1938 139.832 37.5865H139.837Z" fill="#6D5F56"/>
<path fill-rule="evenodd" clip-rule="evenodd" d="M146 37L145.104 49H142L142.93 37H146Z" fill="#6D5F56"/>
<path fill-rule="evenodd" clip-rule="evenodd" d="M34.445 25.0091C29.7776 24.8601 24.4061 26.5396 20.4077 29.9335C17.6717 32.254 15.9415 35.0019 15.2475 39.0269C12.6573 55.3751 31.0752 59.2659 39.0067 53.467C44.7051 49.3029 40.3999 45.7152 34.626 45.8345C33.6805 45.8544 33.6604 46.068 34.4651 46.386C35.5414 46.8134 36.1902 47.1811 36.6026 47.5091C38.2774 48.8308 33.8565 50.247 31.0199 50.247C22.9426 50.252 18.8083 43.986 21.8612 37.6206C25.8496 29.3024 39.5851 27.5483 39.8718 32.6863C40.0931 36.597 33.5195 37.3026 29.6217 37.9684C28.4347 38.1722 24.0692 38.5349 24.1345 41.8145C24.1597 43.0766 25.1203 44.2841 26.4229 44.8357C27.9972 45.5065 30.014 45.6854 31.3015 45.5115C31.7592 45.4469 31.8296 45.2879 31.3518 45.1338C30.8439 44.9649 30.4516 44.8109 30.1498 44.6618C28.0676 43.6481 29.6418 43.3301 31.9503 43.012C35.0233 42.5946 38.8055 41.7847 41.5214 39.7474C47.5618 35.2206 46.063 25.3868 34.4399 25.0091H34.445Z" fill="#6D5F56"/>
</svg>
