<svg width="160" height="80" viewBox="0 0 160 80" fill="none" xmlns="http://www.w3.org/2000/svg">
<path d="M94.0801 32.0399C94.0801 32.7439 94.3881 32.9199 95.6201 32.9199C96.8521 32.9199 97.1601 32.7439 97.1601 32.0399C97.1601 31.3359 96.8521 31.1599 95.6201 31.1599C94.3881 31.1599 94.0801 31.3359 94.0801 32.0399Z" fill="#130F26"/>
<path d="M18.8401 39.96V45.24H24.7801H30.7201V44.14V43.04H26.3201H21.9201V41.94C21.9201 40.84 21.9641 40.84 25.8801 40.84C29.5321 40.84 29.8401 40.796 29.8401 39.96C29.8401 39.124 29.5321 39.08 25.8801 39.08C21.9641 39.08 21.9201 39.08 21.9201 37.98C21.9201 36.88 21.9201 36.88 26.1001 36.88C30.2801 36.88 30.2801 36.88 30.2801 35.78V34.68H24.5601H18.8401V39.96Z" fill="#130F26"/>
<path d="M32.9202 39.96V45.24H34.4602H35.9562L36.0882 41.28L36.2202 37.32L39.3002 41.28L42.3362 45.24H45.1082H47.8802V39.96V34.68H46.3402H44.8442L44.7122 38.728L44.5802 42.732L41.5002 38.728L38.4202 34.724H35.6922L32.9202 34.68V39.96Z" fill="#130F26"/>
<path d="M50.52 39.96V45.24H56.46H62.4V44.14V43.04H57.956C53.644 43.04 53.556 43.04 53.688 42.028C53.82 41.104 54.04 41.06 57.912 40.928C61.564 40.84 61.96 40.708 61.96 39.96C61.96 39.212 61.564 39.08 57.912 38.992C54.172 38.86 53.82 38.772 53.82 37.98C53.82 37.188 54.172 37.1 58.132 36.968C62.356 36.836 62.4 36.836 62.4 35.78V34.68H56.46H50.52V39.96Z" fill="#130F26"/>
<path d="M65.04 39.96V45.24H66.58C67.988 45.24 68.12 45.152 68.12 43.92V42.6H71.112C74.192 42.6 75.16 43.04 75.16 44.448C75.16 45.064 75.512 45.24 76.7 45.24C78.152 45.24 78.24 45.152 78.24 43.744C78.24 42.732 77.932 42.072 77.272 41.588C76.48 41.016 76.436 40.884 76.964 40.884C77.888 40.84 78.24 39.96 78.24 37.76C78.24 35.032 77.316 34.68 70.672 34.68H65.04V39.96ZM74.94 38.64C74.94 39.696 74.852 39.74 71.552 39.872L68.12 40.004V38.64V37.276L71.552 37.408C74.852 37.54 74.94 37.584 74.94 38.64Z" fill="#130F26"/>
<path d="M87.9199 38.64C87.9199 42.468 87.8759 42.6 86.8199 42.864C85.1479 43.304 83.5199 42.732 83.5199 41.72C83.5199 41.016 83.2119 40.84 81.9799 40.84C80.5279 40.84 80.4399 40.928 80.4399 42.292C80.4399 44.668 81.4519 45.24 85.5879 45.24C90.78 45.24 91.132 44.844 91.352 39.124L91.528 34.68H89.724H87.9199V38.64Z" fill="#130F26"/>
<path d="M94.0801 39.96V45.24H95.6201H97.1601V39.96V34.68H95.6201H94.0801V39.96Z" fill="#130F26"/>
<path fill-rule="evenodd" clip-rule="evenodd" d="M100 40.5C100 34.09 105.389 29 111.74 29C116.937 29 121.364 32.3937 123.096 36.9179C124.636 32.3931 129.063 29 134.26 29C140.803 29 146 34.09 146 40.5C146 46.91 140.803 52 134.26 52C129.063 52 124.636 48.7953 123.096 44.0827C121.557 48.7953 116.937 52 111.74 52C105.389 52 100 46.91 100 40.5Z" fill="#305DA2"/>
<path fill-rule="evenodd" clip-rule="evenodd" d="M119.557 43.0166C119.557 41.5484 119.179 40.7102 118.8 40.0809C118.233 39.4523 117.477 39.242 115.776 39.0325H109.347C108.781 38.823 108.403 38.4039 108.403 37.9841C108.403 37.1452 108.781 36.9357 109.726 36.9357C110.293 36.7254 111.807 36.7254 112.94 36.7254C115.209 36.7254 115.587 36.9357 115.587 37.9841H118.99C118.99 35.8873 118.612 34.8389 117.478 34.4191C116.533 34 115.588 34 112.184 34C110.106 34 108.971 34 107.836 34.2102C105.757 34.6293 105.001 35.4682 105.001 38.1936C105.001 40.0809 105.567 41.1293 106.702 41.5484C107.269 41.7586 108.404 41.9675 109.916 41.9675H115.02C115.587 41.9675 115.966 42.3866 115.966 43.0159C115.966 44.2739 115.587 44.2739 111.427 44.2739H109.159C108.781 44.0636 108.591 43.8548 108.591 42.8057H105V43.6445C105 45.3223 105.567 46.3707 106.891 46.7905C107.835 47 108.969 47 111.616 47C114.074 47 115.02 47 116.342 46.7905C118.611 46.5809 119.557 45.5325 119.557 43.0166ZM143 47L136.572 34H131.845L125.418 47H129.387L130.522 44.6936H137.896L139.03 47H143Z" fill="white"/>
<path fill-rule="evenodd" clip-rule="evenodd" d="M137 43H131L134 36L137 43Z" fill="#305DA2"/>
</svg>
