<svg width="160" height="80" viewBox="0 0 160 80" fill="none" xmlns="http://www.w3.org/2000/svg">
<path d="M47.3793 12.0169C46.1224 13.5486 45.5173 17.1225 45.5173 23.2494C45.5173 29.0977 45.4707 29.4226 44.5862 29.4226C43.3759 29.4226 43.3759 30.6294 44.5862 30.9543C45.4707 31.1864 45.5173 31.6041 45.5173 45.6215V60.0566H46.9138H48.3104L48.4035 45.5287L48.5431 31.0471L50.5448 30.9079C51.8483 30.815 52.5 30.5365 52.5 30.0724C52.5 29.6082 51.9414 29.4226 50.4052 29.4226H48.3104L48.4035 21.0214C48.5431 13.595 48.6362 12.5274 49.3345 12.0633C49.9862 11.692 50.3586 11.7384 50.9638 12.3882C51.6155 13.038 51.8483 14.2448 52.0345 18.4222L52.2673 23.6207L53.8035 23.7599C55.4793 23.9456 55.4328 24.1312 54.8276 19.3505C54.3621 15.6837 53.0121 12.5738 51.6155 11.7848C50.3121 11.0886 48.0311 11.2278 47.3793 12.0169Z" fill="#130F26"/>
<path d="M87.8793 35.9207C87.8793 59.7317 87.8793 60.0566 88.8103 60.0566C89.5551 60.0566 89.7413 59.7317 89.7879 58.2928C89.7879 56.7147 89.8344 56.6683 90.2534 57.7358C90.9982 59.5924 92.1155 60.5208 93.5586 60.5208C95.6534 60.5208 96.7241 59.7317 97.7948 57.3645C98.7258 55.3687 98.8189 54.3011 98.9586 44.2754C99.1448 30.1652 98.6327 24.1312 96.9569 21.2534C94.8155 17.6331 91.8827 17.3546 90.1603 20.6036L89.2758 22.2282V16.9832C89.2758 12.6666 89.1362 11.7847 88.5775 11.7847C87.9724 11.7847 87.8793 14.7553 87.8793 35.9207ZM94.4431 19.6753C95.281 20.1395 95.3275 20.8821 95.3275 39.309C95.3275 58.757 95.2344 59.5924 93.6517 59.5924C93.3258 59.5924 92.7207 59.2675 92.3482 58.8498C91.6965 58.2464 91.6034 55.8328 91.6034 39.5411C91.6034 22.8316 91.6965 20.8357 92.3948 20.0466C93.2793 19.0719 93.2793 19.0719 94.4431 19.6753Z" fill="#130F26"/>
<path d="M62.369 18.1436C61.3914 18.515 60.5535 20.6501 59.5293 25.338C58.9707 27.8444 58.5518 29.9795 58.5518 30.1188C58.5518 30.258 59.2966 30.3509 60.1811 30.3509H61.8104V25.7557C61.8104 20.8357 62.2759 18.747 63.3931 18.747C64.9293 18.747 65.5345 20.6501 65.5345 25.5701V30.3509H64.2311C61.9035 30.3509 60.4138 32.8573 59.2035 38.7056C57.7604 45.8071 59.1569 56.9468 61.8569 59.6389C62.369 60.1494 63.3931 60.5208 64.3707 60.5208C65.8138 60.5208 66.1862 60.2887 67.0707 58.757L68.0949 57.0396L68.2345 58.5713C68.3276 59.3604 68.5604 60.0566 68.8397 60.0566C69.5845 60.0566 69.3518 31.5576 68.5604 26.9161C67.3966 20.2787 65.1156 17.0297 62.369 18.1436ZM65.3018 45.4358C65.3018 58.4785 65.2552 59.3604 64.4638 59.4996C62.369 59.9174 62.2759 59.314 62.2759 45.4822C62.2759 31.6969 62.369 31.0935 64.3707 31.372C65.3018 31.5112 65.3018 31.8361 65.3018 45.4358Z" fill="#130F26"/>
<path d="M76.7535 19.4899C76.1949 20.1861 75.7759 21.3465 75.7759 22.0427C75.7759 22.7854 75.5897 23.3888 75.3104 23.3888C75.0776 23.3888 74.8449 22.3212 74.8449 21.068C74.8449 19.7684 74.6586 18.7472 74.3793 18.7472C74.0535 18.7472 73.9138 25.8488 73.9138 39.17V59.5927H75.0311C75.6362 59.5927 76.4742 59.7319 76.8931 59.8712C77.5449 60.1032 77.638 58.1074 77.7311 40.0983C77.8707 21.3001 77.9173 19.954 78.7086 19.4899C80.2914 18.5152 80.8966 20.2325 80.8966 25.5703V30.3511H82.9914H85.1328L84.8069 28.5873C83.2707 20.0469 79.5931 15.9159 76.7535 19.4899Z" fill="#130F26"/>
<path d="M106.547 19.3971C104.871 21.1608 104.266 24.1778 103.66 33.2288C102.822 46.8285 103.893 55.9259 106.733 58.9428C108.548 60.8459 110.503 61.0315 111.993 59.4534C113.483 57.8753 114.786 54.5798 115.159 51.3772L115.484 48.453H113.297H111.155V53.4194C111.155 59.0357 110.736 60.3353 109.433 59.0357C108.595 58.1538 107.99 52.1198 107.943 43.4402L107.897 39.17H111.388H114.879V36.0137C114.833 28.6337 113.25 21.7178 111.155 19.6291C109.526 18.0046 107.943 17.9118 106.547 19.3971ZM110.69 20.1397C111.016 20.6967 111.109 24.2242 111.062 29.5156L110.922 38.0096H109.06H107.198L107.059 29.2371C106.966 23.2031 107.105 20.2789 107.478 19.8612C108.269 18.8865 110.131 19.0722 110.69 20.1397Z" fill="#130F26"/>
<path d="M45.8897 64.0947C46.7742 64.2804 46.9139 64.6053 46.9139 66.6011C46.9139 67.8544 47.1466 68.8755 47.3794 68.8755C47.6587 68.8755 47.8449 67.8544 47.8449 66.6011C47.8449 64.7909 48.0311 64.234 48.6828 64.0947C49.1018 63.9555 48.4501 63.8626 47.1466 63.9091C45.8897 63.9091 45.2846 64.0019 45.8897 64.0947Z" fill="#130F26"/>
<path d="M57.1552 66.3227V68.8755L59.1569 68.7827C60.8327 68.7362 60.9258 68.6898 59.6224 68.5506C57.6207 68.2721 57.4345 66.694 59.3896 66.4155L60.6465 66.2298L59.3896 66.137C58.412 66.0906 58.0862 65.8585 58.0862 65.2087C58.0862 64.5125 58.4586 64.234 59.6224 64.0947C60.9258 63.9555 60.8327 63.9091 59.1569 63.8626L57.1552 63.7698V66.3227Z" fill="#130F26"/>
<path d="M69.0724 64.9766C69.8172 66.0906 69.8172 66.2298 69.0724 67.5294C68.6534 68.2721 68.4672 68.8755 68.7465 68.8755C69.0259 68.8755 69.4914 68.4113 69.7707 67.8544L70.2828 66.8796L71.1672 67.9936C72.2379 69.4325 72.8431 68.8755 71.819 67.3438C71.1207 66.2298 71.1207 66.0906 71.819 64.9766C72.2845 64.2804 72.4241 63.7698 72.1448 63.7698C71.8655 63.7698 71.4465 64.1411 71.1672 64.5589C70.7483 65.3479 70.7017 65.3479 69.8638 64.5589C68.5603 63.3985 68.1879 63.5842 69.0724 64.9766Z" fill="#130F26"/>
<path d="M80.6639 64.1877C81.3622 64.4661 81.688 65.116 81.8742 66.8333L82.1535 69.1077L82.2001 66.6941C82.2932 64.6054 82.4328 64.2805 83.3639 64.0948C83.9225 64.002 83.3639 63.8627 82.0604 63.8627C80.4777 63.8627 80.0587 63.9556 80.6639 64.1877Z" fill="#130F26"/>
<path d="M91.6035 66.3227C91.6035 67.7151 91.8363 68.8755 92.069 68.8755C92.3483 68.8755 92.5345 67.7151 92.5345 66.3227C92.5345 64.9302 92.3483 63.7698 92.069 63.7698C91.8363 63.7698 91.6035 64.9302 91.6035 66.3227Z" fill="#130F26"/>
<path d="M101.007 66.1834L100.914 68.8755L102.683 68.8291C104.359 68.7827 104.359 68.7362 103.009 68.4578C101.752 68.1793 101.566 67.9936 101.333 65.8585L101.053 63.5377L101.007 66.1834Z" fill="#130F26"/>
<path d="M112.086 66.3227V68.8755L114.088 68.8291L116.043 68.7362L114.414 68.4578C112.365 68.0864 112.226 66.926 114.181 66.5083L115.578 66.2298L114.181 66.0442C112.226 65.7657 112.365 64.5589 114.414 64.1876L116.043 63.9091L114.088 63.8162L112.086 63.7698V66.3227Z" fill="#130F26"/>
</svg>
