<svg width="158" height="26" viewBox="0 0 158 26" fill="none" xmlns="http://www.w3.org/2000/svg">
<path fill-rule="evenodd" clip-rule="evenodd" d="M10.6957 5.6126C11.437 5.9303 12.0459 6.43331 12.5489 7.0687C12.946 7.62467 13.2108 8.20711 13.2902 8.78955C13.3696 9.37198 13.4226 10.3251 13.4226 11.6753V20.4383H9.45141V11.3576C9.45141 10.5369 9.31904 9.90147 9.05429 9.39846C8.71012 8.71012 8.02178 8.36595 7.04223 8.36595C6.00972 8.36595 5.24196 8.71012 4.71247 9.39846C4.18298 10.0868 3.91823 11.0664 3.91823 12.3371V20.4119H0V0.0794235H3.89176V6.80396C4.60657 6.08914 4.97721 5.85087 5.69202 5.55965C6.43331 5.26843 7.35992 5.10958 8.18063 5.10958C9.10724 5.13606 9.95442 5.29491 10.6957 5.6126ZM20.2001 9.18666C19.6441 9.7691 19.2999 10.5369 19.1676 11.4899H25.8921C25.8127 10.4574 25.4685 9.6632 24.8596 9.13371C24.2242 8.60422 23.4564 8.33948 22.5563 8.33948C21.5238 8.33948 20.7296 8.6307 20.2001 9.18666ZM26.0245 5.8244C27.057 6.30094 27.9306 7.01575 28.5925 8.02178C29.2014 8.89544 29.5985 9.92795 29.7838 11.0928C29.8897 11.7812 29.9427 12.7607 29.9162 14.058H19.0617C19.1146 15.567 19.6441 16.5995 20.6237 17.2084C21.2061 17.5791 21.9474 17.7644 22.7681 17.7644C23.6682 17.7644 24.383 17.5261 24.939 17.0761C25.2302 16.8378 25.5214 16.4936 25.7332 16.0436H29.7309C29.625 16.9172 29.1485 17.8174 28.2748 18.744C26.9511 20.2001 25.0714 20.9149 22.6622 20.9149C20.6766 20.9149 18.9293 20.306 17.4202 19.0881C15.9112 17.8703 15.1434 15.8847 15.1434 13.1314C15.1434 10.5369 15.8318 8.57775 17.2084 7.1746C18.5851 5.79792 20.3589 5.10958 22.5298 5.10958C23.8271 5.13606 24.992 5.37433 26.0245 5.8244ZM41.4062 9.92795C40.8767 9.05429 40.003 8.60422 38.8381 8.60422C37.4085 8.60422 36.429 9.26609 35.8995 10.6163C35.6082 11.3311 35.4759 12.2312 35.4759 13.3167C35.4759 15.064 35.9524 16.2554 36.879 16.9702C37.435 17.3938 38.0704 17.5791 38.8381 17.5791C39.9236 17.5791 40.7708 17.1555 41.3532 16.3348C41.9357 15.4876 42.2269 14.3757 42.2269 12.9725C42.2004 11.8341 41.9357 10.8281 41.4062 9.92795ZM44.3978 7.12165C45.6156 8.4189 46.2245 10.2986 46.2245 12.7872C46.2245 15.4082 45.6421 17.4202 44.4507 18.7969C43.2594 20.1736 41.7239 20.8619 39.8442 20.8619C38.6528 20.8619 37.6468 20.5707 36.879 19.9618C36.4554 19.6441 36.0318 19.1411 35.6082 18.5322V25.9186H31.743V5.53318H35.4759V7.73056C35.8995 7.09517 36.3495 6.56568 36.8261 6.19504C37.6997 5.53318 38.7322 5.18901 39.9501 5.18901C41.6974 5.18901 43.18 5.85087 44.3978 7.12165ZM51.44 15.6729C51.5194 16.3613 51.7048 16.8643 51.9695 17.1555C52.446 17.685 53.3462 17.9233 54.6699 17.9233C55.4377 17.9233 56.0466 17.8174 56.4967 17.5791C56.9467 17.3408 57.185 16.9967 57.185 16.5466C57.185 16.0965 56.9997 15.7788 56.629 15.5406C56.2584 15.3023 54.9082 14.9316 52.5519 14.3757C50.8576 13.9521 49.6662 13.4226 48.9779 12.7872C48.2895 12.1783 47.9454 11.2782 47.9454 10.1133C47.9454 8.7366 48.4749 7.54524 49.5603 6.56568C50.6458 5.58613 52.1813 5.08311 54.1404 5.08311C55.9936 5.08311 57.5292 5.45375 58.694 6.19504C59.8589 6.93633 60.5473 8.20711 60.7061 10.0338H56.8144C56.7614 9.53083 56.629 9.13371 56.3908 8.84249C55.9672 8.313 55.2259 8.04826 54.1934 8.04826C53.3462 8.04826 52.7373 8.18063 52.3666 8.44538C51.996 8.71012 51.8371 9.02782 51.8371 9.37198C51.8371 9.82205 52.0225 10.1397 52.4196 10.3515C52.8167 10.5633 54.1669 10.934 56.4967 11.437C58.0586 11.8076 59.2235 12.3371 59.9913 13.0784C60.7591 13.8197 61.1297 14.7728 61.1297 15.8847C61.1297 17.3673 60.5737 18.5586 59.4883 19.5117C58.3763 20.4383 56.682 20.9149 54.3787 20.9149C52.0225 20.9149 50.3016 20.4119 49.1632 19.4323C48.0513 18.4527 47.4953 17.182 47.4953 15.6464L51.44 15.6729ZM63.1947 20.4383V5.53318H67.1394V20.4383H63.1947ZM79.7942 16.4142C80.3502 15.5935 80.6414 14.5345 80.6414 13.2108C80.6414 12.1518 80.5091 11.2782 80.2178 10.5898C79.6883 9.29256 78.7353 8.6307 77.3056 8.6307C75.876 8.6307 74.8965 9.26609 74.367 10.5633C74.1022 11.2517 73.9434 12.1253 73.9434 13.2108C73.9434 14.4816 74.2346 15.5406 74.7906 16.3877C75.373 17.2349 76.2202 17.632 77.4115 17.632C78.444 17.632 79.2118 17.2084 79.7942 16.4142ZM83.0506 7.33345C84.1625 8.7366 84.7185 10.5633 84.7185 12.8137C84.7185 15.1434 84.1625 17.0496 83.0771 18.5851C81.9916 20.1206 80.4561 20.8619 78.4705 20.8619C77.2262 20.8619 76.2467 20.6237 75.4789 20.1206C75.0288 19.8294 74.5523 19.3264 74.0228 18.5851V20.4648H70.184V0.052949H74.0757V7.49229C74.5788 6.80395 75.1082 6.27446 75.7172 5.90382C76.432 5.45375 77.3321 5.21548 78.4176 5.21548C80.3767 5.18901 81.9387 5.90382 83.0506 7.33345ZM90.7547 5.53318V14.508C90.7547 15.3552 90.8606 15.9906 91.0459 16.4142C91.4166 17.1555 92.1049 17.5526 93.1374 17.5526C94.4611 17.5526 95.3613 17.0231 95.8643 15.9377C96.129 15.3552 96.2349 14.5875 96.2349 13.6344V5.5067H100.18V20.4119H96.3938V18.2939C96.2879 18.4263 96.2085 18.5586 96.129 18.7175C95.9967 18.9558 95.8113 19.1411 95.5995 19.3264C94.9906 19.8824 94.4082 20.253 93.8257 20.4383C93.2698 20.6237 92.5814 20.7296 91.8401 20.7296C89.6428 20.7296 88.1602 19.9353 87.3924 18.3469C86.9688 17.4732 86.757 16.1759 86.757 14.4816V5.48023L90.7547 5.53318ZM111.484 5.16253C111.537 5.16253 111.643 5.18901 111.828 5.18901V9.18666C111.458 9.13371 111.087 9.10724 110.716 9.10724C109.155 9.10724 108.096 9.61026 107.566 10.6428C107.275 11.2252 107.116 12.0989 107.116 13.2902V20.4119H103.198V5.5067H106.931V8.10121C107.54 7.09517 108.069 6.43331 108.493 6.06267C109.234 5.45375 110.161 5.13606 111.352 5.13606C111.378 5.16253 111.431 5.16253 111.484 5.16253ZM138.091 16.3877C138.674 15.567 138.965 14.508 138.965 13.2108C138.965 11.384 138.515 10.0868 137.588 9.29256C137.032 8.81602 136.344 8.57775 135.629 8.57775C134.491 8.57775 133.643 9.00134 133.114 9.875C132.584 10.7222 132.32 11.8076 132.32 13.0784C132.32 14.4551 132.584 15.567 133.14 16.3877C133.696 17.2084 134.517 17.632 135.603 17.632C136.688 17.632 137.535 17.2084 138.091 16.3877ZM137.138 5.77145C137.853 6.16857 138.435 6.75101 138.859 7.41287V0.0264745H142.804V20.4383H139.018V18.3733C138.462 19.247 137.826 19.9088 137.112 20.306C136.397 20.7031 135.523 20.9149 134.464 20.9149C132.717 20.9149 131.261 20.2001 130.069 18.7969C128.878 17.3938 128.269 15.567 128.269 13.3696C128.269 10.8281 128.852 8.81602 130.016 7.35992C131.181 5.90382 132.743 5.16253 134.729 5.16253C135.629 5.16253 136.45 5.37433 137.138 5.77145ZM122.445 13.2108C122.206 13.3696 121.942 13.502 121.703 13.5814C121.439 13.6609 121.095 13.7668 120.644 13.8462L119.771 14.005C118.95 14.1374 118.341 14.3227 117.971 14.5345C117.362 14.8787 117.044 15.4347 117.044 16.1759C117.044 16.8378 117.229 17.3143 117.6 17.6056C117.971 17.8968 118.421 18.0556 118.95 18.0556C119.797 18.0556 120.591 17.8174 121.306 17.3143C122.021 16.8378 122.392 15.9377 122.418 14.6404L122.445 13.2108ZM122.551 20.4648C122.551 20.4648 122.577 19.0617 122.551 18.7175C121.995 19.2999 121.386 19.803 120.697 20.2001C119.85 20.6766 118.897 20.9149 117.838 20.9149C116.488 20.9149 115.376 20.5178 114.476 19.75C113.602 18.9822 113.152 17.8968 113.152 16.4672C113.152 14.6404 113.867 13.3167 115.27 12.496C116.064 12.0459 117.203 11.7282 118.712 11.5429L120.036 11.384C120.75 11.3046 121.28 11.1723 121.598 11.0399C122.153 10.8016 122.445 10.431 122.445 9.92795C122.445 9.31904 122.233 8.89544 121.809 8.65717C121.386 8.4189 120.75 8.313 119.93 8.313C119.003 8.313 118.341 8.55127 117.944 9.00134C117.653 9.34551 117.467 9.79558 117.388 10.378H113.629C113.708 9.08076 114.079 7.99531 114.714 7.1746C115.747 5.87735 117.52 5.21548 120.036 5.21548C121.677 5.21548 123.133 5.53318 124.404 6.16857C125.675 6.83043 126.31 8.04826 126.31 9.82205V16.6525C126.31 17.129 126.31 19.75 126.336 20.4383L122.551 20.4648ZM154.135 13.2108C153.896 13.3696 153.632 13.4755 153.367 13.5814C153.023 13.6873 152.679 13.7932 152.334 13.8462L151.461 14.005C150.64 14.1374 150.031 14.3227 149.661 14.5345C149.052 14.8787 148.734 15.4347 148.734 16.1759C148.734 16.8378 148.919 17.3143 149.29 17.6056C149.661 17.8968 150.111 18.0556 150.64 18.0556C151.487 18.0556 152.282 17.8174 152.996 17.3143C153.711 16.8378 154.082 15.9377 154.108 14.6404V13.2108H154.135ZM154.241 20.4648C154.241 20.4648 154.267 19.0617 154.241 18.7175C153.685 19.2999 153.076 19.803 152.361 20.2001C151.514 20.6766 150.561 20.9149 149.502 20.9149C148.151 20.9149 147.04 20.5178 146.139 19.75C145.266 18.9822 144.816 17.8968 144.816 16.4672C144.816 14.6404 145.531 13.3167 146.934 12.496C147.701 12.0459 148.866 11.7282 150.375 11.5429L151.699 11.384C152.414 11.3046 152.943 11.1723 153.261 11.0399C153.817 10.8016 154.108 10.431 154.108 9.92795C154.108 9.31904 153.896 8.89544 153.473 8.65717C153.049 8.4189 152.414 8.313 151.593 8.313C150.667 8.313 150.005 8.55127 149.608 9.00134C149.316 9.34551 149.131 9.79558 149.052 10.378H145.292C145.372 9.08076 145.742 7.99531 146.378 7.1746C147.41 5.87735 149.184 5.21548 151.699 5.21548C153.34 5.21548 154.797 5.53318 156.067 6.16857C157.338 6.83043 157.974 8.04826 157.974 9.82205V16.6525C157.974 17.129 157.974 19.75 158 20.4383L154.241 20.4648ZM67.2453 2.14444C67.2718 3.36227 66.2922 4.34182 65.1009 4.34182C63.9095 4.34182 62.93 3.36227 62.9564 2.14444C62.9564 -0.714812 67.2453 -0.714812 67.2453 2.14444Z" fill="#FF6000"/>
</svg>
