<svg width="160" height="80" viewBox="0 0 160 80" fill="none" xmlns="http://www.w3.org/2000/svg">
<path fill-rule="evenodd" clip-rule="evenodd" d="M37.128 46L29.654 40.0003L36.5377 34.0006H31.4242L26.5072 38.4524H24.5405V34.0006H21V46H24.5405V41.3549H26.5072L31.8173 46H37.128ZM54.8284 40.1944C54.8284 38.4524 54.6318 37.6787 54.6318 37.0978C54.2381 35.3558 53.4512 34.3881 51.4851 34.1947C50.6983 34.0006 49.5183 34.0006 46.1744 34.0006C44.0111 34.0006 43.4208 34.0006 42.2408 34.1947C40.2741 34.3881 39.0941 34.969 38.701 36.3235C38.3073 37.0978 38.3073 37.6787 38.3073 40.0003C38.3073 41.3555 38.3073 42.3232 38.5038 42.9034C38.701 44.2586 39.2907 45.0323 40.2741 45.4198C41.2575 46 42.2408 46 46.371 46H50.8942C52.8609 45.8066 54.0409 44.8389 54.4346 43.2903C54.6325 42.516 54.8284 41.9357 54.8284 40.1944ZM51.092 39.8069C51.092 41.9357 50.8948 42.71 50.1086 42.9028C49.5183 43.0969 48.7315 43.0969 45.9785 43.0969C42.2415 43.0969 42.0449 43.0969 42.0449 40.0003C42.0449 38.0649 42.2415 37.4846 42.8318 37.0972C43.4214 36.9038 44.2083 36.9038 46.3716 36.9038C49.3218 36.9038 49.9121 36.9038 50.5017 37.2906C50.8948 37.484 51.092 38.0649 51.092 39.8069ZM72.7266 38.0649C72.7266 36.1295 72.3328 35.1618 71.3494 34.5809C70.7598 34.194 69.7764 34 68.0062 34H57.5826V45.9994H61.319V42.9028H66.8262C68.0062 42.9028 68.2027 42.9028 68.3999 43.0969C68.793 43.4837 68.9896 43.8712 68.9896 44.452V46H72.7266V44.0646C72.7266 43.0969 72.5294 42.7094 72.3328 42.3226C71.9397 41.7417 71.3494 41.5483 69.973 41.5483L69.3833 41.3542C70.957 41.1608 71.3501 41.1608 71.7432 40.7733C72.5294 40.3871 72.7266 39.4194 72.7266 38.0649ZM69.1861 38.8392C69.1861 39.8069 68.793 40.0003 67.0228 40.0003H61.319V37.0972H67.2193C68.2027 37.0972 68.5965 37.0972 68.793 37.2906C68.9896 37.6781 69.1861 37.8715 69.1861 38.8392ZM92 40.0003C92 37.2906 91.6075 35.9361 90.8207 35.1618C90.0339 34.3875 88.8539 34.0006 86.2969 34.0006H75.8733V46H86.6912C89.2477 46 90.0345 45.8066 90.8213 44.8389C91.6075 44.0652 92 42.9034 92 40.0003ZM88.2643 40.0003C88.2643 42.1292 88.0671 42.71 87.0837 42.9034C86.6912 43.0975 86.6912 43.0975 85.7072 43.0975H79.4131V37.0978H85.7072C87.8699 37.0972 88.2643 37.484 88.2643 40.0003Z" fill="#130F26"/>
<path fill-rule="evenodd" clip-rule="evenodd" d="M94 39.5C94 33.09 99.3894 28 105.74 28C110.937 28 115.364 31.3937 117.096 35.9179C118.636 31.3931 123.063 28 128.26 28C134.803 28 140 33.09 140 39.5C140 45.91 134.803 51 128.26 51C123.063 51 118.636 47.7953 117.096 43.0827C115.557 47.7953 110.937 51 105.74 51C99.3894 51 94 45.91 94 39.5Z" fill="#305DA2"/>
<path fill-rule="evenodd" clip-rule="evenodd" d="M113.557 41.323C113.557 39.9678 113.179 39.1941 112.8 38.6131C112.233 38.0329 111.477 37.8388 109.776 37.6454H103.347C102.781 37.452 102.403 37.0651 102.403 36.6776C102.403 35.9033 102.781 35.7099 103.726 35.7099C104.293 35.5158 105.807 35.5158 106.94 35.5158C109.209 35.5158 109.587 35.7099 109.587 36.6776H112.99C112.99 34.7421 112.612 33.7743 111.478 33.3869C110.533 33 109.588 33 106.184 33C104.106 33 102.971 33 101.836 33.1941C99.7569 33.5809 99.0006 34.3552 99.0006 36.871C99.0006 38.6131 99.5674 39.5809 100.702 39.9678C101.269 40.1618 102.404 40.3546 103.916 40.3546H109.02C109.587 40.3546 109.966 40.7415 109.966 41.3224C109.966 42.4836 109.587 42.4836 105.427 42.4836H103.159C102.781 42.2895 102.591 42.0967 102.591 41.1283H99V41.9027C99 43.4513 99.5668 44.4191 100.891 44.8066C101.835 45 102.969 45 105.616 45C108.074 45 109.02 45 110.342 44.8066C112.611 44.6131 113.557 43.6454 113.557 41.323ZM137 45L130.572 33H125.845L119.418 45H123.387L124.522 42.871H131.896L133.03 45H137Z" fill="white"/>
<path fill-rule="evenodd" clip-rule="evenodd" d="M130 41H126L128 36L130 41Z" fill="#305DA2"/>
</svg>
