<svg width="160" height="80" viewBox="0 0 160 80" fill="none" xmlns="http://www.w3.org/2000/svg">
<path fill-rule="evenodd" clip-rule="evenodd" d="M31 53.3H40.1V40.2C40.1 37.7 40.9 35.9 43.2 35.9C45.9 35.9 46.2 37.9 46.2 40.2V53.3H55.3V40.2C55.3 37.7 56.1 35.9 58.4 35.9C61.1 35.9 61.4 37.9 61.4 40.2V53.3H70.5V36.7C70.5 32.8 68.4 28.5 62.3 28.5C56.4 28.5 54.6 32 54.2 32.3C53.1 29.9 50.4 28.5 47.8 28.5C44.5 28.5 41.8 29.5 40 32.3H39.9V29.1H31.1V53.3" fill="#03467B"/>
<path fill-rule="evenodd" clip-rule="evenodd" d="M86.6998 44.7C86.5998 47.2 84.9998 48.5 82.8998 48.5C81.2998 48.5 80.0998 47.4 80.0998 46.3C80.0998 44.7 81.1998 44.2 83.1998 43.7C84.3998 43.4 85.6998 43.1 86.7998 42.5V44.7H86.6998ZM95.3998 38C95.3998 33.3 95.4998 28.5 84.0998 28.5C78.4998 28.5 72.0998 29.6 71.8998 36.4H80.2998C80.2998 35.4 80.8998 33.9 83.6998 33.9C85.1998 33.9 86.6998 34.5 86.6998 36.1C86.6998 37.6 85.4998 38 84.1998 38.2C79.5998 39.1 70.7998 38.8 70.7998 46.4C70.7998 51.5 74.5998 53.7 79.1998 53.7C82.0998 53.7 84.8998 53 86.8998 50.8C86.8998 51.5 86.9998 52.4 87.1998 53.1H96.4998C95.4998 51.6 95.3998 49.5 95.3998 47.7V38Z" fill="#03467B"/>
<path fill-rule="evenodd" clip-rule="evenodd" d="M120.6 29.1001H111.3L107.5 43.8001H107.4L103.7 29.1001H94.1001L102 53.3001H112.7L120.6 29.1001Z" fill="#03467B"/>
<path fill-rule="evenodd" clip-rule="evenodd" d="M119.8 53.3H128.9V29.1H119.8V53.3ZM119.8 26.5H128.9V20H119.8V26.5Z" fill="#03467B"/>
</svg>
