<svg width="211" height="80" viewBox="0 0 211 80" fill="none" xmlns="http://www.w3.org/2000/svg">
<g clip-path="url(#clip0_500_81817)">
<path fill-rule="evenodd" clip-rule="evenodd" d="M67.3161 26.4114H85.0729C86.852 26.4114 88.3095 27.8652 88.3095 29.6412V40.9632C88.3095 42.7392 86.852 44.193 85.0729 44.193H70.5338V53.2895C68.1949 53.9961 63.7145 52.3095 64.1011 49.6807V41.3287C64.0876 41.2068 64.0795 41.0877 64.0795 40.9632V29.6412C64.0795 27.8652 65.5369 26.4114 67.3161 26.4114ZM165.802 33.8619H182.187C183.867 33.8673 185.024 35.0315 184.981 36.9239V52.9511H179.205V37.9364C179.205 37.6955 179.008 37.4978 178.764 37.4978H171.775C171.531 37.4978 171.334 37.6955 171.334 37.9364V52.9511H167.902C166.507 52.9782 165.715 52.3149 165.802 50.6391V33.8619ZM158.452 33.8917H160.258C161.508 33.7293 163.317 34.1949 164.009 36.4609V50.4035C163.571 51.7843 162.727 52.6235 161.478 52.9186H160.894L160.878 52.9322H147.518C145.692 52.7372 144.795 51.7707 144.668 50.1653H144.654V45.284H144.611V44.1145C144.624 43.7436 144.676 43.4025 144.765 43.0965C144.954 41.7591 145.581 40.6816 147.645 40.8089H158.231V38.0609H145.633V33.8917H158.452ZM158.452 48.4462V45.5927C158.447 45.3923 158.352 45.2894 158.171 45.284H150.668C150.449 45.2678 150.332 45.3815 150.313 45.6279V48.5978C150.294 48.7142 150.351 48.7683 150.489 48.7629H158.133C158.314 48.744 158.441 48.6627 158.452 48.4462ZM140.69 40.8089H130.64V38.0609H143.237V33.8917H128.336C126.424 34.0975 125.526 35.1452 125.472 36.8941V38.0609H125.513V42.2112H125.526C125.551 42.5253 125.605 42.815 125.691 43.0776V43.1074C126.056 44.6126 127.168 45.2461 128.79 45.284H138.554V48.7629H128.503C127.316 48.6871 126.419 49.1798 125.916 50.1788V52.9322H140.817C142.642 52.7372 143.54 51.7707 143.667 50.1653H143.681V45.284H143.724V44.1145C143.71 43.7436 143.662 43.4025 143.57 43.0965C143.381 41.7591 142.753 40.6816 140.69 40.8089ZM117.874 26.314H123.658V31.6853H117.874V26.314ZM123.658 34.3357V53.3058H121.544C119.407 53.2408 118.126 52.1822 117.874 49.9298V34.3357H123.658ZM110.422 26.314H116.203V53.3058H114.091C111.955 53.2408 110.674 52.1822 110.422 49.9298V26.314ZM108.565 36.4312V50.5172C108.565 51.9305 107.056 53.0865 105.206 53.0865H93.4226C91.5731 53.0865 90.0616 51.9305 90.0616 50.5172V36.4312C90.0616 35.0152 91.5731 33.8619 93.4226 33.8619H105.206C107.056 33.8619 108.565 35.0152 108.565 36.4312ZM103.973 39.4092V47.5392C103.973 48.3568 103.211 49.0201 102.281 49.0201H96.3483C95.4154 49.0201 94.6556 48.3568 94.6556 47.5392V39.4092C94.6556 38.5916 95.4154 37.9256 96.3483 37.9256H102.281C103.211 37.9256 103.973 38.5916 103.973 39.4092ZM72.1967 30.9949H80.8006C81.6632 30.9949 82.3689 31.6988 82.3689 32.5597V38.0447C82.3689 38.9056 81.6632 39.6095 80.8006 39.6095H72.1967C71.3342 39.6095 70.6284 38.9056 70.6284 38.0447V32.5597C70.6284 31.6988 71.3342 30.9949 72.1967 30.9949Z" fill="#130F26"/>
<path fill-rule="evenodd" clip-rule="evenodd" d="M26.1649 36.7182C26.5975 37.1866 27.0626 37.6333 27.5601 38.0502C28.3335 38.7081 29.1906 39.3091 30.1126 39.8424C31.0266 40.3649 32.0081 40.8144 33.0491 41.1907C34.0874 41.5562 35.1771 41.8485 36.3074 42.0462C37.4376 42.2384 38.6111 42.3467 39.8171 42.3467C41.023 42.3467 42.1938 42.2384 43.3241 42.0462C44.4651 41.8485 45.5548 41.5562 46.585 41.1907C47.6233 40.8144 48.6049 40.3649 49.5269 39.8424C50.4435 39.3091 51.298 38.7081 52.0794 38.0502C52.8527 37.3923 53.5612 36.6695 54.175 35.8952C54.7996 35.1209 55.3322 34.2979 55.7649 33.4234C56.1975 32.5571 56.5869 31.6501 56.8194 30.708C57.0195 29.8687 57.2412 29.0024 57.2845 28.1144V27.2102C57.325 26.3601 56.9276 25.9459 56.0948 25.9729H27.2032C26.4569 26.0027 26.1108 26.3465 26.1649 27.0071V36.7182Z" fill="#FFDC00"/>
<path fill-rule="evenodd" clip-rule="evenodd" d="M47.8154 32.0155C47.4828 30.5996 48.3724 29.1756 49.7865 28.8534C51.2061 28.5285 52.6202 29.4111 52.9447 30.8325C53.2692 32.2484 52.3877 33.6643 50.9735 33.9892C49.554 34.3222 48.1398 33.4315 47.8154 32.0155Z" fill="#DC0018"/>
<path fill-rule="evenodd" clip-rule="evenodd" d="M30.421 36.0361C30.0965 34.612 30.978 33.1988 32.4002 32.8739C33.8144 32.5491 35.2258 33.4316 35.5584 34.8476C35.8829 36.2689 35.0014 37.6848 33.5819 38.0097C32.1677 38.3427 30.7535 37.452 30.421 36.0361Z" fill="#DC0018"/>
<path fill-rule="evenodd" clip-rule="evenodd" d="M46.0849 30.318C46.0849 30.318 46.0606 30.2747 46.02 30.226C45.6712 29.8009 45.1142 29.7333 44.5977 29.8524C44.0894 29.9688 43.508 30.3343 43.4837 30.9082C43.4756 31.3576 42.7942 31.3495 42.8023 30.9001C42.8023 30.9001 42.8023 30.8081 42.8348 30.6592C43.0105 29.8686 43.6568 29.3759 44.4382 29.1945C45.2223 29.0104 46.2769 29.2189 46.6771 29.9932C46.8934 30.3911 46.2931 30.7079 46.0849 30.318Z" fill="#130F26"/>
<path fill-rule="evenodd" clip-rule="evenodd" d="M50.8842 31.5906C50.292 34.88 47.1744 37.6929 42.8913 38.6838C38.611 39.6746 34.5794 38.5105 32.6083 35.8194C32.3406 35.454 32.8814 35.0533 33.1572 35.4215C34.9201 37.8256 38.6353 38.9762 42.7426 38.0259C46.8499 37.0783 49.6863 34.4144 50.219 31.4742C50.3001 31.0248 50.9653 31.1493 50.8842 31.5906Z" fill="#130F26"/>
<path fill-rule="evenodd" clip-rule="evenodd" d="M38.9843 31.956C38.9843 31.956 38.968 31.9154 38.9275 31.8667C38.5787 31.4416 38.0217 31.3739 37.4971 31.4904C36.9888 31.6068 36.4155 31.975 36.3831 32.5489C36.375 32.9983 35.7017 32.9902 35.7098 32.5408C35.7098 32.5408 35.7098 32.4487 35.7422 32.2998C35.918 31.5066 36.5642 31.0166 37.3457 30.8325C38.1298 30.6511 39.1843 30.8596 39.5845 31.6338C39.8008 32.0318 39.2006 32.3567 38.9843 31.956Z" fill="#130F26"/>
<path fill-rule="evenodd" clip-rule="evenodd" d="M57.2845 32.5327V52.5207C57.371 53.2382 57.1466 53.7174 56.2408 53.6686H27.6331C26.5137 53.7417 26.0243 53.2246 26.1649 52.1092V38.3859C29.5421 41.5155 34.393 43.4621 39.7332 43.4621C47.8991 43.4621 54.9239 38.9111 57.2845 32.5327Z" fill="#130F26"/>
</g>
<defs>
<clipPath id="clip0_500_81817">
<rect width="159" height="28" fill="white" transform="translate(26 26)"/>
</clipPath>
</defs>
</svg>
