<svg width="160" height="80" viewBox="0 0 160 80" fill="none" xmlns="http://www.w3.org/2000/svg">
<g clip-path="url(#clip0_500_81803)">
<path d="M85.2893 44.8238C85.2893 46.2459 86.411 47.4105 87.7963 47.4105H89.7761V26.9316H85.2893V44.8238Z" fill="#130F26"/>
<path d="M95.5134 26.9316H91.0266V31.4369H95.5134V26.9316Z" fill="#130F26"/>
<path d="M91.0266 44.8238C91.0266 46.2459 92.1544 47.4105 93.5397 47.4105H95.5134V32.7363H91.0266V44.8238Z" fill="#130F26"/>
<path d="M83.0642 33.5025C82.4329 32.957 81.5257 32.7302 79.932 32.7302H72.8401C71.2465 32.7302 70.3393 32.957 69.708 33.5025C69.0337 34.0971 68.7456 34.9982 68.7456 36.5183V43.6102C68.7456 45.1303 69.0276 46.0252 69.6957 46.6137C70.327 47.1715 71.2403 47.3983 72.8401 47.3983H79.932C81.5196 47.3983 82.4268 47.1715 83.0642 46.6137C83.9224 45.8597 84.0327 44.6154 84.0327 43.6102V36.5183C84.0327 34.9982 83.7446 34.0971 83.0642 33.5025ZM73.9864 35.936H78.7736C79.1965 35.936 79.5398 36.2792 79.5398 36.7022V43.4386C79.5398 43.8554 79.1904 44.1986 78.7736 44.1986H73.9864C73.5634 44.1986 73.2202 43.8554 73.2202 43.4386V36.7022C73.2202 36.2792 73.5634 35.936 73.9864 35.936Z" fill="#130F26"/>
<path d="M111.101 33.5025C110.47 32.957 109.556 32.7302 107.963 32.7302H100.877C99.2831 32.7302 98.3759 32.957 97.7446 33.5025C97.0642 34.0971 96.7761 34.9982 96.7761 36.5183V50.604C96.7761 52.0322 97.8978 53.1846 99.2831 53.1846H101.263V47.4044H107.963C109.556 47.4044 110.463 47.1776 111.101 46.6198C111.959 45.8659 112.063 44.6216 112.063 43.6163V36.5244C112.063 35.0043 111.775 34.1032 111.101 33.5087V33.5025ZM107.583 43.4386C107.583 43.8554 107.233 44.1986 106.816 44.1986H102.029C101.606 44.1986 101.263 43.8554 101.263 43.4386V36.7022C101.263 36.2792 101.606 35.936 102.029 35.936H106.816C107.233 35.936 107.583 36.2792 107.583 36.7022V43.4386Z" fill="#130F26"/>
<path d="M127.645 33.5025C127.013 32.957 126.106 32.7302 124.512 32.7302H117.421C115.827 32.7302 114.92 32.957 114.288 33.5025C113.608 34.0971 113.32 34.9982 113.32 36.5183V43.6102C113.32 45.1303 113.608 46.0252 114.276 46.6137C114.907 47.1715 115.821 47.3983 117.427 47.3983H124.519C126.106 47.3983 127.013 47.1715 127.657 46.6137C128.509 45.8597 128.619 44.6154 128.619 43.6102V36.5183C128.619 34.9982 128.331 34.0971 127.651 33.5025H127.645ZM118.573 35.936H123.366C123.783 35.936 124.126 36.2792 124.126 36.7022V43.4386C124.126 43.8554 123.783 44.1986 123.366 44.1986H118.573C118.156 44.1986 117.813 43.8554 117.813 43.4386V36.7022C117.813 36.2792 118.156 35.936 118.573 35.936Z" fill="#130F26"/>
<path d="M67.6731 27.9001C66.8885 27.2381 65.7606 26.9377 64.1302 26.9377H52.6863C51.1968 26.9377 49.9832 28.1882 49.9832 29.7206V44.4254C49.9832 46.0681 51.2765 47.4043 52.8702 47.4043H55.3036V40.7415H64.1302C65.7606 40.7415 66.8885 40.435 67.6731 39.7792C68.4944 39.0865 68.8928 38.0384 68.8928 36.5612V31.112C68.8928 29.6348 68.4944 28.5866 67.6731 27.9001ZM63.6275 36.1382C63.6275 36.555 63.2843 36.8983 62.8614 36.8983H55.9595C55.5917 36.8983 55.2913 36.5979 55.2913 36.2363V31.443C55.2913 31.0752 55.5917 30.781 55.9595 30.781H62.8614C63.2782 30.781 63.6275 31.1242 63.6275 31.541V36.1382Z" fill="#130F26"/>
<path d="M133.97 32.7363C132.377 32.7363 131.463 32.9631 130.832 33.5087C130.152 34.1032 129.864 35.0043 129.864 36.5244V44.8238C129.864 46.2459 130.985 47.4105 132.377 47.4105H134.356V43.4508V36.7083C134.356 36.2853 134.7 35.9421 135.123 35.9421H139.579V32.7363H133.976H133.97Z" fill="#130F26"/>
<path d="M146.315 38.3142V35.9359H149V32.7301H146.315V29.1873H141.829V32.7363H140.413V35.942H141.829V43.6162C141.829 45.1425 142.123 46.0435 142.797 46.632C143.428 47.1836 144.336 47.4104 145.929 47.4104H148.841V44.2047H147.075C146.652 44.2047 146.309 43.8676 146.309 43.4446V38.3203L146.315 38.3142Z" fill="#130F26"/>
<path fill-rule="evenodd" clip-rule="evenodd" d="M17.049 45.5225C24.239 48.0847 30.2398 46.8036 34.0953 45.0996C39.7467 42.5987 42.7257 38.4123 44.111 35.5252C45.435 32.7792 45.7537 30.4377 45.815 29.886V29.5183C45.815 28.3598 44.8036 27.4097 43.5593 27.4036H12.2618C11.0175 27.4097 10 28.3598 10 29.5183V41.0051C10 41.0051 12.4702 43.886 17.049 45.5225Z" fill="#007DC5"/>
<path d="M25.5506 38.2101L25.8019 38.5166C26.5559 39.4177 26.4271 40.7478 25.5138 41.4895L21.9464 44.3949C21.0331 45.1365 19.6724 45.0078 18.9184 44.1129L18.661 43.8064L19.8992 42.8012C20.3957 43.3099 21.217 43.3651 21.7748 42.9115L24.055 41.0543C24.6128 40.6007 24.7109 39.7916 24.3002 39.2215L25.5445 38.2101H25.5506ZM34.794 28.1393L37.2213 26.1594C37.5278 25.9143 37.9752 25.9572 38.2327 26.2575L38.392 26.4475C38.6433 26.7417 38.6004 27.1892 38.294 27.4405L34.4323 30.585L33.1942 31.5902L32.6486 32.0316C32.3483 32.2829 31.8886 32.24 31.6434 31.9396L31.484 31.7496C31.2572 31.4738 31.2695 31.0753 31.5085 30.824L34.8001 28.1454L34.794 28.1393ZM26.2923 34.6673L26.2433 34.606C25.4954 33.7111 25.618 32.3748 26.5313 31.627L30.0987 28.7277C31.0059 27.986 32.3667 28.1148 33.1206 29.0097L33.1574 29.0587L31.8702 30.113C31.386 29.8065 30.7301 29.831 30.2704 30.2172L27.984 32.0683C27.5182 32.4484 27.3711 33.0797 27.5856 33.6068L26.2984 34.6611L26.2923 34.6673ZM19.4211 40.6558C19.7153 40.4903 20.0953 40.5578 20.316 40.8213L20.4815 41.0114C20.7205 41.3056 20.6899 41.7285 20.414 41.9798L18.4342 43.5858L16.3869 45.2224L16.3992 45.2469L14.7319 46.6015C14.4316 46.8467 13.978 46.8099 13.7206 46.5034L13.5612 46.3073C13.3099 46.0131 13.3528 45.5656 13.6531 45.3204L15.3081 43.9719L19.4027 40.6497L19.4211 40.6558ZM22.7984 37.5175C22.3081 37.211 21.6522 37.2294 21.1802 37.6156L18.8939 39.4728C18.4219 39.8529 18.281 40.4903 18.4955 41.0236L17.2083 42.0718L17.1531 42.0043C16.3992 41.1094 16.5279 39.7671 17.4351 39.0254L21.0086 36.1261C21.9158 35.3783 23.2827 35.5131 24.0366 36.4081L24.0856 36.4632L22.7984 37.5175ZM27.5611 36.1751L26.4884 37.0455L23.5401 39.4422C23.2459 39.669 22.8046 39.6199 22.5533 39.3319L22.3939 39.1418C22.1671 38.8721 22.1794 38.4921 22.4 38.2347L28.217 33.4965C28.5173 33.3188 28.9096 33.3862 29.1364 33.6559L29.3019 33.8459C29.5532 34.1462 29.5103 34.5876 29.2038 34.8389L28.7931 35.1821L27.555 36.1874L27.5611 36.1751ZM29.0016 35.4089C29.498 35.9116 30.3133 35.9667 30.8649 35.5131L33.1513 33.6559C33.7029 33.2023 33.8071 32.4055 33.3964 31.8354L34.6407 30.8302L34.8921 31.1182C35.6399 32.0193 35.5111 33.3555 34.604 34.0972L31.0366 37.0026C30.1294 37.7504 28.7625 37.6217 28.0086 36.7145L27.7573 36.4142L28.9954 35.4028L29.0016 35.4089Z" fill="white"/>
</g>
<defs>
<clipPath id="clip0_500_81803">
<rect width="139" height="27.1907" fill="white" transform="translate(10 26)"/>
</clipPath>
</defs>
</svg>
