<svg width="160" height="80" viewBox="0 0 160 80" fill="none" xmlns="http://www.w3.org/2000/svg">
<path d="M91.7831 54.0308C91.7739 53.9394 91.3215 37.6618 91.3215 37.6618C91.6026 36.3572 92.3216 35.7897 93.1163 35.4295L98.2627 33.3263C99.2427 32.9302 100.307 34.421 99.1833 35.1923C98.1469 35.904 95.5778 36.8957 94.4614 41.4077C94.2822 42.2538 94.0577 52.0639 93.9718 54.0295C92.82 55.189 91.7831 54.0308 91.7831 54.0308Z" fill="#7B7979"/>
<path d="M58.6311 28.0004C59.6373 28.0004 60.4542 28.8169 60.4542 29.8196C60.4542 30.8247 59.6373 31.641 58.6311 31.641C57.6268 31.641 56.8091 30.8247 56.8091 29.8196C56.8091 28.8169 57.6268 28.0004 58.6311 28.0004ZM57.5398 54.0334C57.5245 53.8805 56.9013 37.844 56.9013 37.844L56.7996 35.8277C57.2775 35.491 57.8121 35.2758 58.6076 35.2758C59.4271 35.2758 59.9764 35.4813 60.4536 35.8338L60.3719 37.844C60.2464 39.9809 59.7443 53.8869 59.7311 54.0332C58.5843 55.1877 57.5398 54.0334 57.5398 54.0334Z" fill="#7B7979"/>
<path d="M49.2606 25.4824C49.2606 25.4674 49.0295 24.9012 48.6345 24.8001C48.3781 24.7367 48.0418 24.7425 47.5987 25.0618C45.1367 32.3628 41.1823 42.2154 38.236 48.9534C37.5018 50.4378 36.6852 50.4539 35.9267 48.9534C33.0039 42.2621 29.0458 32.291 26.5992 25.0496C26.5679 24.9844 26.0617 24.6717 25.627 24.7866C25.2125 24.8846 25 25.4566 25 25.4745C26.1682 30.0323 33.3164 51.2242 34.2808 53.2619C35.3784 55.5792 38.7261 55.5792 39.8671 53.2632C40.8508 51.2662 47.888 29.9668 49.2606 25.4824Z" fill="#7B7979"/>
<path d="M105.398 54.2684C106.771 49.7838 113.807 28.485 114.791 26.4875C115.932 24.1715 119.28 24.1715 120.377 26.489C121.342 28.5267 128.49 49.7183 129.659 54.2764C129.659 54.2941 129.446 54.8663 129.031 54.964C128.597 55.0792 128.091 54.7665 128.059 54.7013C126.97 51.4776 125.685 48.2025 124.222 44.4272C123.875 43.5119 123.278 43.1211 122.301 43.0295L115.304 42.6257C113.894 42.5258 114.16 40.921 115.095 40.8252L121.858 40.2991C122.607 40.2553 122.456 39.8671 122.193 39.0638C122.094 38.7297 120.915 35.9186 118.732 30.7978C117.973 29.297 117.157 29.3131 116.422 30.7978C113.476 37.5353 109.521 47.3878 107.059 54.6897C106.617 55.0087 106.28 55.0142 106.024 54.9506C105.629 54.8494 105.398 54.284 105.398 54.2684Z" fill="#7B7979"/>
<path d="M73.5318 27.3811C74.0425 27.0444 74.4372 26.8307 75.2882 26.8307C76.1101 26.8307 76.5077 27.0584 77.019 27.4104C77.019 27.4104 76.9656 33.4515 77.0156 34.4624L81.145 32.7958C82.5948 32.2148 83.2924 34.1114 82.2495 34.8717C81.081 35.7236 78.1064 36.794 76.9294 42.2459C76.7851 43.0447 76.3235 54.0141 76.3145 54.1166C75.2176 55.2204 74.2197 54.1166 74.2197 54.1166C74.0555 49.9877 73.9183 45.8522 73.8075 41.7114C73.6827 39.2922 73.1865 38.1112 72.9893 37.7299C72.9592 37.6839 72.9319 37.6364 72.9076 37.5867C72.8209 37.4101 72.7717 37.2117 72.7717 37.0013C72.7717 36.4192 73.1455 35.9243 73.6666 35.7434C73.6095 32.9587 73.5648 30.1716 73.5318 27.3811Z" fill="#7B7979"/>
<path d="M129.66 27.1014C129.66 25.8534 130.655 24.8499 131.897 24.8499C133.143 24.8499 134.137 25.8534 134.137 27.1014C134.137 28.3466 133.143 29.3442 131.897 29.3442C130.655 29.3442 129.66 28.3466 129.66 27.1014ZM133.881 27.1014C133.881 25.9572 133.024 25.0881 131.897 25.0881C130.775 25.0881 129.92 25.9572 129.92 27.1014C129.92 28.2494 130.775 29.1087 131.897 29.1087C133.024 29.1087 133.881 28.2494 133.881 27.1014ZM131.144 25.6833H131.931C132.478 25.6833 132.774 26.0469 132.774 26.4365C132.774 26.8231 132.484 27.1231 131.997 27.154H131.95C132.059 27.2348 132.144 27.3428 132.247 27.4883L132.985 28.4905H132.629L131.902 27.4724C131.738 27.2453 131.671 27.173 131.435 27.173V28.4905H131.144V25.6833ZM131.805 26.9361C132.18 26.9361 132.472 26.7922 132.472 26.4412C132.472 26.1613 132.284 25.9387 131.877 25.9387H131.435V26.9361H131.805ZM131.805 26.9361C132.18 26.9361 132.472 26.7922 132.472 26.4412C132.472 26.1613 132.284 25.9387 131.877 25.9387H131.435V26.9361H131.805ZM131.144 25.6833H131.931C132.478 25.6833 132.774 26.0469 132.774 26.4365C132.774 26.8231 132.484 27.1231 131.997 27.154H131.95C132.059 27.2348 132.144 27.3428 132.247 27.4883L132.985 28.4905H132.629L131.902 27.4724C131.738 27.2453 131.671 27.173 131.435 27.173V28.4905H131.144V25.6833ZM133.881 27.1014C133.881 25.9572 133.024 25.0881 131.897 25.0881C130.775 25.0881 129.92 25.9572 129.92 27.1014C129.92 28.2494 130.775 29.1087 131.897 29.1087C133.024 29.1087 133.881 28.2494 133.881 27.1014ZM129.66 27.1014C129.66 25.8534 130.655 24.8499 131.897 24.8499C133.143 24.8499 134.137 25.8534 134.137 27.1014C134.137 28.3466 133.143 29.3442 131.897 29.3442C130.655 29.3442 129.66 28.3466 129.66 27.1014Z" fill="#7B7979"/>
<path d="M131.144 25.6833H131.931C132.478 25.6833 132.774 26.0469 132.774 26.4365C132.774 26.8231 132.484 27.1231 131.997 27.154H131.95C132.059 27.2348 132.144 27.3428 132.247 27.4883L132.985 28.4905H132.629L131.902 27.4724C131.738 27.2453 131.671 27.173 131.435 27.173V28.4905H131.144V25.6833M131.805 26.9361C132.18 26.9361 132.472 26.7922 132.472 26.4412C132.472 26.1613 132.284 25.9387 131.877 25.9387H131.435V26.9361H131.805M131.805 26.9361C132.18 26.9361 132.472 26.7922 132.472 26.4412C132.472 26.1613 132.284 25.9387 131.877 25.9387H131.435V26.9361H131.805M131.144 25.6833H131.931C132.478 25.6833 132.774 26.0469 132.774 26.4365C132.774 26.8231 132.484 27.1231 131.997 27.154H131.95C132.059 27.2348 132.144 27.3428 132.247 27.4883L132.985 28.4905H132.629L131.902 27.4724C131.738 27.2453 131.671 27.173 131.435 27.173V28.4905H131.144V25.6833M129.66 27.1014C129.66 25.8534 130.655 24.8499 131.897 24.8499C133.143 24.8499 134.137 25.8534 134.137 27.1014C134.137 28.3466 133.143 29.3442 131.897 29.3442C130.655 29.3442 129.66 28.3466 129.66 27.1014ZM133.881 27.1014C133.881 25.9572 133.024 25.0881 131.897 25.0881C130.775 25.0881 129.92 25.9572 129.92 27.1014C129.92 28.2494 130.775 29.1087 131.897 29.1087C133.024 29.1087 133.881 28.2494 133.881 27.1014ZM133.881 27.1014C133.881 25.9572 133.024 25.0881 131.897 25.0881C130.775 25.0881 129.92 25.9572 129.92 27.1014C129.92 28.2494 130.775 29.1087 131.897 29.1087C133.024 29.1087 133.881 28.2494 133.881 27.1014ZM129.66 27.1014C129.66 25.8534 130.655 24.8499 131.897 24.8499C133.143 24.8499 134.137 25.8534 134.137 27.1014C134.137 28.3466 133.143 29.3442 131.897 29.3442C130.655 29.3442 129.66 28.3466 129.66 27.1014Z" stroke="#7B7979" stroke-width="0.33732" stroke-miterlimit="3.86368"/>
</svg>
