<svg width="160" height="80" viewBox="0 0 160 80" fill="none" xmlns="http://www.w3.org/2000/svg">
<g clip-path="url(#clip0_500_81829)">
<path d="M27.7937 48.2652L20.8914 30.002H17L25.3605 51.6658H30.2261L38.5881 30.002H34.696L27.7937 48.2652Z" fill="#40484E"/>
<path d="M44.497 29.9456H40.7922V51.645H44.497V29.9456Z" fill="#40484E"/>
<path d="M102.596 45.0011L92.0523 29.9485H88.5618V51.645H92.1237V35.8472L103.309 51.645H106.158V29.9456H102.596V45.0011Z" fill="#40484E"/>
<path d="M119.568 39.4167L115.757 38.5336C113.797 38.0739 112.871 37.1544 112.871 35.7055C112.871 33.9029 114.474 32.7009 116.825 32.7009C119.428 32.7009 120.815 33.9733 121.384 35.5995H125.089C124.305 31.9943 121.527 29.5933 116.792 29.5933C112.375 29.5933 109.347 32.3509 109.347 36.0266C109.347 39.5257 111.769 41.1518 114.797 41.8585L118.501 42.7416C120.783 43.2725 121.671 44.1557 121.671 45.6758C121.671 47.6904 119.997 48.8924 117.433 48.8924C115.045 48.8924 113.194 47.8677 112.482 45.6409H108.706C109.487 49.6717 112.8 52.003 117.428 52.003C121.952 52.003 125.227 49.4938 125.227 45.4288C125.231 42.1736 122.987 40.1946 119.568 39.4167Z" fill="#40484E"/>
<path d="M143 33.1971V29.9456H128.717V51.645H143V48.3586H132.35V42.1359H142.002V38.9222H132.35V33.1971H143Z" fill="#40484E"/>
<path d="M84.9989 33.1933V29.9411H70.7154V39.1498H70.6627C69.5108 39.0816 67.8957 38.9741 66.891 38.8117C67.1563 37.486 67.2445 36.1311 67.1535 34.7823C66.8724 31.2179 64.6111 29.0031 61.2507 29.0031C60.0626 28.9586 58.8931 29.3064 57.9235 29.9925C56.9539 30.6786 56.2385 31.6646 55.8884 32.7975C55.5382 33.9304 55.5728 35.1469 55.9868 36.2582C56.4008 37.3695 57.171 38.3135 58.178 38.9437C58.8849 39.4538 59.6436 39.8885 60.4416 40.2406C61.1969 40.5834 61.9716 40.8823 62.7617 41.1356H62.7684L62.7535 41.1689L62.6687 41.3632C62.6368 41.4373 62.6011 41.5115 62.5676 41.5856L62.5208 41.6909C62.494 41.7495 62.468 41.8088 62.4375 41.8682C62.404 41.9423 62.3698 42.0091 62.3364 42.0788C62.3133 42.1255 62.291 42.1722 62.2679 42.2189C61.1239 44.4472 59.7044 46.5237 58.0427 48.4001L57.8248 48.6463L57.8151 48.6574L57.7697 48.5521L50.5566 29.9989H46.6667L46.8787 30.5254L55.3478 51.6679H59.3306C61.9974 49.0127 64.1685 45.9049 65.7421 42.4903C65.7421 42.4903 65.9057 42.1099 65.9719 41.9334C67.5246 42.1636 69.0884 42.3121 70.6567 42.3783H70.7095V51.6471H84.993V48.3608H74.3488V42.4651L84.0017 42.451V39.2336H74.3488V33.1933H84.9989ZM63.689 37.8974C63.6904 37.8842 63.6927 37.8711 63.6957 37.8581L63.689 37.8974ZM63.689 37.8974C62.8018 37.5385 62.0136 37.213 61.4217 36.9194C60.3709 36.4003 59.1551 35.6803 59.1551 34.2136C59.1561 33.9378 59.2142 33.6651 59.3258 33.4127C59.4374 33.1604 59.6001 32.9337 59.8037 32.747C60.0073 32.5603 60.2474 32.4175 60.5089 32.3276C60.7705 32.2378 61.0478 32.2028 61.3235 32.2249C62.6375 32.2249 63.6578 33.3008 63.7872 34.898C63.8527 35.8987 63.8188 36.9034 63.686 37.8974H63.689Z" fill="#40484E"/>
<path d="M63.6697 37.8982L63.6749 37.8582C63.6737 37.8714 63.6715 37.8846 63.6682 37.8975L63.6697 37.8982Z" fill="#40484E"/>
</g>
<defs>
<clipPath id="clip0_500_81829">
<rect width="126" height="23" fill="white" transform="translate(17 29)"/>
</clipPath>
</defs>
</svg>
