<?xml version="1.0" encoding="UTF-8"?>
<svg id="katman_2" data-name="katman 2" xmlns="http://www.w3.org/2000/svg" viewBox="0 0 659.83 204.3">
  <defs>
    <style>
      .cls-1 {
        fill: #fff;
      }

      .cls-2 {
        fill: #004996;
      }

      .cls-3 {
        fill-rule: evenodd;
      }

      .cls-3, .cls-4 {
        fill: #1d1d1b;
      }
    </style>
  </defs>
  <g id="Layer_1" data-name="Layer 1">
    <g>
      <g>
        <path class="cls-4" d="m15.13,60.43l-3.63,11.07H0L19.23,12.94h16.37l19.61,58.55h-11.27l-3.78-11.07H15.13Zm12.59-38.91l-10.04,30.41h20l-9.96-30.41Z"/>
        <path class="cls-4" d="m70.57,38.13h25.79v9.2h-25.79v24.17h-11.12V12.94h38.3v9.59h-27.18v15.59Z"/>
        <path class="cls-4" d="m131.1,49.01v22.49h-11.12v-22.49l-20.92-36.07h12.66l13.74,25.03,14.21-25.03h12.82l-21.39,36.07Z"/>
        <path class="cls-4" d="m203.83,33.92v15.75c0,8.99-1.8,14.96-5.4,17.89-3.6,2.94-10.04,4.41-19.3,4.41s-15.85-1.4-19.3-4.21c-3.45-2.81-5.17-8.84-5.17-18.09v-15.75c0-8.78,1.7-14.54,5.1-17.27,3.4-2.73,9.86-4.09,19.38-4.09s15.51,1.34,19.19,4.02c3.68,2.68,5.52,8.46,5.52,17.35Zm-38.06,0v15.75c0,5.67.8,9.2,2.39,10.6,1.59,1.4,5.25,2.11,10.96,2.11,5.35,0,8.96-.77,10.81-2.3,1.85-1.53,2.78-5,2.78-10.41v-15.75c0-5.15-.93-8.39-2.78-9.75-1.85-1.35-5.46-2.03-10.81-2.03-5.82,0-9.5.75-11.04,2.26-1.54,1.51-2.32,4.68-2.32,9.51Z"/>
        <path class="cls-4" d="m254.48,12.94h11.12v58.55h-18.45l-24.63-48.96h-.39l.93,48.96h-11.12V12.94h18.38l24.78,48.96h.31l-.93-48.96Z"/>
        <path class="cls-4" d="m337.33,32.59v-3.2c0-3.27-.76-5.3-2.28-6.08-1.52-.78-4.88-1.17-10.08-1.17-5.61,0-9.2.79-10.77,2.38-1.57,1.59-2.35,5.24-2.35,10.95v12.94c0,5.98.75,9.8,2.24,11.46,1.49,1.66,5.12,2.5,10.89,2.5,5.04,0,8.47-.47,10.27-1.4,1.8-.94,2.7-3.35,2.7-7.25v-3.2h11.12v3.82c0,7.95-1.8,12.88-5.41,14.77-3.6,1.9-9.83,2.85-18.68,2.85-9.88,0-16.4-1.61-19.53-4.83-3.14-3.22-4.71-9.3-4.71-18.24v-13.41c0-9.04,1.81-15.13,5.44-18.24,3.63-3.12,9.89-4.68,18.8-4.68,6.02,0,10.54.27,13.55.82,3.01.55,5.42,2.02,7.22,4.41,1.8,2.39,2.7,6.26,2.7,11.62v3.2h-11.12Zm-6.49,44.71l-10.11,4-2.08-3.54,8.8-5.31,3.4,4.85Z"/>
        <path class="cls-4" d="m367.83,71.5h-11.12V12.94h11.12v58.55Zm-1.78-64.64h-7.64V0h7.64v6.86Z"/>
        <path class="cls-4" d="m416.78,71.5h-9.96l-18.38-49.04.69,49.04h-11.12V12.94h17.84l15.75,43.51h.31l15.44-43.51h18.22v58.55h-11.12l.93-49.35h-.39l-18.22,49.35Z"/>
        <path class="cls-4" d="m466.11,37.19h27.1v9.2h-27.1v15.52h28.8v9.59h-39.92V12.94h39.69v9.59h-28.57v14.66Z"/>
        <path class="cls-4" d="m546.1,12.94h11.12v58.55h-18.45l-24.63-48.96h-.39l.93,48.96h-11.12V12.94h18.38l24.78,48.96h.31l-.93-48.96Z"/>
        <path class="cls-4" d="m590.57,71.5h-11.12V22.53h-16.99v-9.59h45.09v9.59h-16.99v48.96Z"/>
        <path class="cls-4" d="m659.83,33.92v15.75c0,8.99-1.8,14.96-5.41,17.89-3.6,2.94-10.04,4.41-19.3,4.41s-15.85-1.4-19.3-4.21c-3.45-2.81-5.17-8.84-5.17-18.09v-15.75c0-8.78,1.7-14.54,5.1-17.27,3.4-2.73,9.86-4.09,19.38-4.09s15.51,1.34,19.19,4.02c3.68,2.68,5.52,8.46,5.52,17.35Zm-38.06,0v15.75c0,5.67.8,9.2,2.39,10.6,1.59,1.4,5.25,2.11,10.96,2.11,5.35,0,8.96-.77,10.81-2.3,1.85-1.53,2.78-5,2.78-10.41v-15.75c0-5.15-.93-8.39-2.78-9.75-1.85-1.35-5.46-2.03-10.81-2.03-5.82,0-9.5.75-11.04,2.26-1.54,1.51-2.32,4.68-2.32,9.51Z"/>
      </g>
      <g>
        <path class="cls-3" d="m143.88,185.58v-37.9h-18.19l-13.75,25.17-13.81-25.17h-18.29v37.9h11.13l-.34-29.27,16.54,29.27h9.21l16.82-29.27-.57,29.27h11.26Zm-73.94,0v-37.9h-11.53v37.9h11.53Zm-1.71-43.24v-6.14h-8.12v6.14h8.12Zm-19.41,30.61v-1.68h-11.05c0,2.58-.5,3.7-1.96,4.43-1.51.73-2.75.84-11.82.84-10.54,0-11.49-.78-11.49-9.41,0-2.02.11-4.54.17-5.33.34-3.14,1.51-4.43,4.43-4.93.85-.11,4.93-.22,9.76-.22,9.47,0,10.36.39,10.6,4.43h10.87v-1.4c0-6.22-1.79-9.41-6.22-10.87-2.58-.9-6.56-1.12-18.33-1.12-10.54,0-14.13.51-17.49,2.46-3.93,2.24-5.04,5.77-5.04,15.64,0,11.09,1.06,15.02,4.76,17.38,3.03,1.96,6.56,2.46,17.16,2.46,16.7,0,19.28-.28,22.42-2.57,2.41-1.8,3.25-4.43,3.25-10.09Zm-18.1,24.78v-6.06h-11.38v6.06h11.38Z"/>
        <path class="cls-2" d="m260.89,128.89c-16.56,0-30.63,10.69-35.69,25.55-5.05-14.86-19.12-25.55-35.69-25.55-20.83,0-37.71,16.88-37.71,37.71s16.88,37.71,37.71,37.71c16.57,0,30.64-10.7,35.69-25.55,5.07,14.86,19.13,25.55,35.69,25.55,20.83,0,37.71-16.88,37.71-37.71s-16.88-37.71-37.71-37.71Z"/>
        <path class="cls-1" d="m212.81,173.75c0-3.9-.79-6.73-2.32-8.42-1.75-2.03-4.07-2.72-9.72-2.94-3.05-.11-5.32-.16-5.99-.16h-10.69c-3.62,0-3.9-.11-4.53-.23-1.69-.4-2.54-1.41-2.54-3.06,0-2.09,1.01-2.88,3.84-3.11,1.75-.11,6.84-.28,10.35-.28,7.75,0,8.82.45,8.82,3.74h11.19c0-6.51-1.25-9.11-5.04-10.52-2.88-1.07-5.87-1.3-16.9-1.3-7.3,0-10.46.12-14.14.62-7,.91-9.43,3.96-9.43,11.48,0,5.93,1.58,8.82,5.54,10.17,1.91.69,5.19.96,10.68.96h10.4c4.69,0,4.97.05,5.66.11,2.32.23,3.45,1.31,3.45,3.23,0,3.33-1.41,3.67-14.93,3.67-2.88,0-6.1-.17-7.18-.4-1.7-.39-2.1-1.07-2.2-3.9h-11.25c-.06.85-.06,1.81-.06,2.2,0,5.38,1.82,8.09,6.05,9.16,2.77.74,6.62.96,15.15.96,8.08,0,11.31-.11,15.83-.57,7.24-.73,9.95-3.84,9.95-11.42Z"/>
        <path class="cls-1" d="m268.7,147.74h-15.37l-21.2,37.71h13l3.62-6.73h24.31l3.73,6.73h12.55l-20.63-37.71Zm-15.82,23.12l8.02-15.04,8.15,15.04h-16.17Z"/>
      </g>
    </g>
  </g>
</svg>