<svg id="Layer_1" data-name="Layer 1" xmlns="http://www.w3.org/2000/svg" viewBox="0 0 99.29 43.25"><defs><style>.cls-1{fill:#231f20;fill-rule:evenodd;}.cls-2{fill:none;stroke:#808285;stroke-linecap:round;stroke-width:1.64px;}.cls-3,.cls-4{font-size:9.66px;font-family:ArialMT, Arial;}.cls-3{fill:#808285;}.cls-4{fill:#bcbec0;}</style></defs><title>br_magazacilik_lg</title><path class="cls-1" d="M20.13,8.38A79.94,79.94,0,0,0,5.44,11.3c-1.78.43-3.61,1-4.42,2.24l.43.17c.73-1.15,2.45-1.65,4.15-2.05a79.45,79.45,0,0,1,14.59-2.9,201.65,201.65,0,0,1,22.43.1A112.81,112.81,0,0,1,31,9.42c-9,.17-18.26-.3-26.71,3.67l.2.34c9.13-2.55,19.29-2.93,28.85-2.27.78.05,1.6.15,2.51.21a41.79,41.79,0,0,1,5.88.51,102,102,0,0,1-10.93.2c-8.21-.41-16.69-.83-24.28,2.27l.19.35c9.7-2.6,18.8-1.87,28.53-1.17,2.17.16,2.6.24,4.86.36a13.57,13.57,0,0,1-3.72.31h0l-4.13.08c-3.49-.05-7.11-.1-10.54.17a27.08,27.08,0,0,0-9.15,2.42h0l.25.33c5.66-2.43,12.32-1.8,20-.94a14.28,14.28,0,0,1-3.23.51c-2.67.18-5.45,0-7.36,1.53l-.34.27.48.05c1.07.12,2.13.15,3.15.18a19,19,0,0,1,3.74.37c-2-.22-2.83-.15-4,.9l-.24.21,1.23.35c1,.26,2.29.61,2.38,1.07a.21.21,0,0,1,0,.05c0,.22-.27.51-.8.82l-.2.12.15.15a1.85,1.85,0,0,1,.37,1.39,2.44,2.44,0,0,0,.06.69,5.71,5.71,0,0,0,.49,1.1,5.54,5.54,0,0,1,.46,1c0,.19,0,.38,0,.57a13.59,13.59,0,0,1-.14,1.7A13.24,13.24,0,0,0,28.89,31,5.46,5.46,0,0,0,29,32a5.9,5.9,0,0,1,.15,1.37A14.5,14.5,0,0,1,29,35.24a14.87,14.87,0,0,0-.17,2c0,.19,0,.38,0,.57a8.62,8.62,0,0,0,.36,1.54,7,7,0,0,1,.4,2,2.71,2.71,0,0,1-.27,1.2l.45.14a3,3,0,0,0,.3-1.34,7.28,7.28,0,0,0-.41-2.07,8.28,8.28,0,0,1-.35-1.48c0-.18,0-.36,0-.54a14.82,14.82,0,0,1,.17-1.94,14.66,14.66,0,0,0,.17-1.92,6.18,6.18,0,0,0-.16-1.43,5,5,0,0,1-.09-1,12.8,12.8,0,0,1,.13-1.59,14,14,0,0,0,.14-1.74q0-.3,0-.61h0a5.72,5.72,0,0,0-.49-1.11,5.43,5.43,0,0,1-.46-1,2.27,2.27,0,0,1,0-.6,2.35,2.35,0,0,0-.36-1.46c.55-.36.83-.69.83-1a.56.56,0,0,0,0-.12c-.14-.69-.94-1.05-2.15-1.37l-.51-.14c1.22-.71,3.12-.43,4.79-.24l1.16.12.14-.35c-2.27-1.08-4.41-1.11-6.82-1.38-.7-.08-.52-.09-1.38-.16a23.45,23.45,0,0,1,5.25-1c2.12-.18,4.34,0,6-.83l.54-.28L35.45,16c-5.9-.67-10.1-1.32-15.6-.78a11.27,11.27,0,0,1,1.92-.3c3.4-.27,7-.28,10.48-.23l4.12,0H37.7a11.36,11.36,0,0,0,5.35-.8l.74-.31-.84,0c-2.56-.13-5.1-.31-7.56-.49-8.44-.61-14.56-1.55-22.9,0,6.58-1.43,11.51-.95,18.29-.61a95.3,95.3,0,0,0,14.85,0l.62-.07-.52-.28c-2.31-1.23-6.5-1.25-9.87-1.26-.9,0-1.76,0-2.5,0-8.77-.23-16.63-.61-25.15,1.32C16.43,9.83,22.9,9.66,31,9.8c6,.1,12.2.2,18.15-.92l0-.37A183.35,183.35,0,0,0,20.13,8.38Z" transform="translate(-1.02 -1.9)"/><path class="cls-1" d="M27.19,1.9a3.62,3.62,0,0,0-2.76,2.9,2.58,2.58,0,0,0,.86,1.85,6,6,0,0,0,3.37,1.06l0-.25a4.91,4.91,0,0,1-2.88-1.18,1.6,1.6,0,0,1-.63-1.36,3,3,0,0,1,2.27-2.49,2,2,0,0,1,1.86.87,1.8,1.8,0,0,1,.32,2.09c-1.12,1.37-1.36,1.66-2.76,1.07l-.21-.09.08.29c1.39.59,1.87.4,3.14-1.14a2.07,2.07,0,0,0-.18-2.44A3.08,3.08,0,0,0,27.19,1.9Z" transform="translate(-1.02 -1.9)"/><line class="cls-2" x1="30.46" y1="40.13" x2="30.46" y2="24.36"/><text class="cls-3" transform="translate(31.65 31.28)">BR</text><text class="cls-4" transform="translate(31.65 40.11)">MAĞAZACILIK </text></svg>