<?xml version="1.0" encoding="UTF-8"?>
<svg width="97px" height="26px" viewBox="0 0 97 26" version="1.1" xmlns="http://www.w3.org/2000/svg" xmlns:xlink="http://www.w3.org/1999/xlink">
    <title>logo</title>
    <g id="Design" stroke="none" stroke-width="1" fill="none" fill-rule="evenodd">
        <g id="index" transform="translate(-60.000000, -17.000000)">
            <g id="logo" transform="translate(60.000000, 17.000000)">
                <path d="M4.0081492,9.88725632 L11.1025674,9.88725632 C11.8438852,9.88725632 12.2740814,10.1570496 12.2740814,10.9190998 C12.2740814,11.6565985 11.8438852,11.9288469 11.1025674,11.9288469 L4.0081492,11.9288469 L4.0081492,9.88725632 Z M4.0081492,14.6509223 L11.1928622,14.6509223 C12.0589833,14.6509223 12.639489,14.8526534 12.639489,15.7362333 C12.639489,16.495692 12.0589833,16.7009695 11.1928622,16.7009695 L4.0081492,16.7009695 L4.0081492,14.6509223 Z M-1.3639702e-05,19.8498311 L12.7641559,19.8498311 C15.0572626,19.8498311 16.7545871,19.2529577 16.7545871,16.3693883 C16.7545871,14.3950414 16.1049281,13.4558116 14.3509988,13.2328024 L14.3509988,13.1835631 C15.4753195,12.851982 16.2830626,12.4185122 16.2830626,10.1747812 C16.2830626,7.59783234 14.7311373,6.72857413 11.5368555,6.72857413 L-1.3639702e-05,6.72857413 L-1.3639702e-05,19.8498311 Z" id="Fill-1" fill="#1C1C1A"></path>
                <path d="M19.3290263,19.8498584 L23.3362344,19.8498584 L23.3362344,16.4449795 L29.6406411,16.4449795 C30.8825359,16.4449795 31.2828612,16.8972721 31.2828612,18.2736544 L31.2828612,19.8498584 L35.2918424,19.8498584 L35.2918424,17.621131 C35.2918424,15.460875 34.2947802,14.9386108 33.1073077,14.7217396 L33.1073077,14.6891407 C34.9467579,14.2526702 35.3458556,13.2167349 35.3458556,11.4621236 L35.3458556,10.6257371 C35.3458556,8.2713881 34.5123334,6.72860141 31.4266236,6.72860141 L19.3290263,6.72860141 L19.3290263,19.8498584 Z M23.3362344,9.98999056 L29.6017679,9.98999056 C30.8679415,9.98999056 31.4419001,10.2104081 31.4419001,11.3678733 L31.4419001,11.802707 C31.4419001,12.7493023 31.0464852,13.1835904 29.9624016,13.1835904 L23.3362344,13.1835904 L23.3362344,9.98999056 Z" id="Fill-4" fill="#1C1C1A"></path>
                <path d="M38.6928339,6.0056972 L42.159637,6.0056972 L42.159637,3.2864862 L38.6928339,3.2864862 L38.6928339,6.0056972 Z M38.4222222,19.8498584 L42.4314762,19.8498584 L42.4314762,6.72860141 L38.4222222,6.72860141 L38.4222222,19.8498584 Z" id="Fill-6" fill="#1C1C1A"></path>
                <path d="M96.1690652,12.8914689 C96.1690652,9.31554821 94.9153037,6.28603399 92.4132368,3.76923618 C89.8731151,1.25666667 86.856695,4.09191061e-05 83.322239,4.09191061e-05 C80.3363718,4.09191061e-05 77.6692645,0.932314553 75.3571986,2.77080999 C73.0449963,4.61094219 71.5357633,6.96283601 70.8649628,9.79512013 C70.1532431,6.92941874 68.6446921,4.57779771 66.3312622,2.73862029 C64.0198783,0.932314553 61.3526346,4.09191061e-05 58.3656762,4.09191061e-05 C54.8355849,4.09191061e-05 51.8182101,1.25666667 49.3128696,3.76923618 C46.7712475,6.28603399 45.5195321,9.31554821 45.5195321,12.8914689 C45.5195321,16.4705267 46.7712475,19.4999045 49.2794523,22.015202 C51.8182101,24.5276351 54.8355849,25.7876708 58.3656762,25.7876708 C61.3526346,25.7876708 64.0198783,24.853624 66.3312622,23.0152649 C68.6446921,21.1781335 70.1532431,18.8271944 70.8649628,15.9846805 C71.5357633,18.856929 73.0449963,21.2086864 75.3571986,23.0504554 C77.6692645,24.8875868 80.3363718,25.8219064 83.322239,25.8219064 C86.856695,25.7876708 89.8731151,24.5276351 92.3790012,22.015202 C94.9153037,19.4999045 96.1690652,16.4705267 96.1690652,12.8914689" id="Fill-8" fill="#134B94"></path>
                <path d="M86.2444497,14.4414301 L83.7070559,9.60370056 L82.9034047,9.60370056 L80.3688752,14.4414301 L86.2444497,14.4414301 Z M66.1737646,15.2806809 C66.1737646,16.5982762 66.006951,17.5054527 65.7229724,17.9861158 C65.3381964,18.6300462 64.5648253,19.0539681 63.4102245,19.2750677 C62.2864495,19.49985 60.392986,19.5996926 57.7280611,19.5996926 C54.2894922,19.5996926 52.1678365,19.4055996 51.3966478,19.0193233 C50.4019043,18.5374326 49.9211048,17.2772605 49.9211048,15.2105729 L53.776503,15.2105729 C53.776503,15.8902392 54.0015581,16.3118424 54.4186602,16.4706085 C54.8354895,16.6653835 55.9259836,16.7633165 57.7280611,16.7633165 C59.8123439,16.7293537 61.0970675,16.6653835 61.5792309,16.5359427 C62.059894,16.4084115 62.317548,16.0545976 62.317548,15.5058724 C62.317548,14.9872909 62.0293411,14.6694859 61.4193736,14.5704617 C61.3207586,14.5339073 60.2653184,14.5052639 58.2387315,14.3789602 L57.146055,14.3444518 C53.9710051,14.1515864 52.0419421,13.9569479 51.3641853,13.603816 C50.4991554,13.1487955 50.0501364,12.0247477 50.0501364,10.2180327 C50.0501364,8.40995383 50.5932693,7.25398909 51.7235914,6.77059805 C52.6187651,6.38350331 54.6104344,6.18954674 57.7280611,6.18954674 C61.1626744,6.18954674 63.2806474,6.3517228 64.083753,6.67089183 C65.0786329,7.09113105 65.5946228,8.15284545 65.5946228,9.86367328 L65.5946228,10.4113073 L61.8988091,10.4113073 C61.8988091,9.79520197 61.6417008,9.4096076 61.0970675,9.25329661 C60.6807838,9.12235547 59.5580999,9.05170182 57.7280611,9.05170182 C55.990363,9.05170182 54.9330133,9.12235547 54.546737,9.25329661 C54.1630521,9.38028224 53.9710051,9.7025884 53.9710051,10.1861158 C53.9710051,10.6652786 54.1277253,10.9934498 54.481812,11.122345 C54.7040027,11.1860424 55.2186287,11.2527405 56.0200976,11.2778376 L58.9123964,11.3763162 C62.0941297,11.4747949 64.1177159,11.7320397 64.9506925,12.1522789 C65.7543437,12.6042986 66.1737646,13.6335505 66.1737646,15.2806809 L66.1737646,15.2806809 Z M93.3387315,19.49985 L88.9455199,19.49985 L87.7561379,17.2471168 L78.8885584,17.2471168 L77.669169,19.49985 L73.2703651,19.49985 L80.2727153,6.28597944 L86.3433375,6.28597944 L93.3387315,19.49985 Z" id="Fill-9" fill="#FEFEFE"></path>
            </g>
        </g>
    </g>
</svg>