<svg xmlns="http://www.w3.org/2000/svg" width="712" height="134" viewBox="0 0 712 134">
    <g fill="none" fill-rule="evenodd">
        <g>
            <g>
                <g>
                    <path fill="#25347B" fill-rule="nonzero" d="M314.917 41.803c0-22.729 18.511-41.232 41.25-41.232 18.283 0 33.823 11.879 39.194 28.326C400.73 12.45 416.27.57 434.554.57c22.739 0 41.25 18.503 41.25 41.232 0 22.73-18.511 41.232-41.25 41.232-18.283 0-33.823-11.878-39.193-28.325-5.37 16.447-20.911 28.325-39.194 28.325-22.739 0-41.25-18.389-41.25-41.232" transform="translate(-364 -314) translate(364 314) translate(8.937 26.8)"/>
                    <path fill="#FFF" d="M381.877 49.684c0-4.226-.914-7.31-2.514-9.251-1.942-2.17-4.456-2.97-10.626-3.199-3.314-.114-5.828-.228-6.514-.228h-11.655c-3.999 0-4.228-.114-4.913-.228-1.828-.457-2.743-1.6-2.743-3.313 0-2.284 1.143-3.198 4.228-3.426 1.943-.114 7.542-.343 11.313-.343 8.455 0 9.712.457 9.712 4.112h12.227c0-7.081-1.371-9.937-5.485-11.536-3.2-1.142-6.399-1.37-18.511-1.37-7.999 0-11.427.114-15.426.685-7.656 1.028-10.284 4.34-10.284 12.564 0 6.51 1.714 9.594 6.056 11.079 2.057.685 5.713 1.028 11.655 1.028h11.427c5.142 0 5.485.114 6.17.114 2.514.228 3.771 1.37 3.771 3.54 0 3.655-1.6 3.998-16.34 3.998-3.2 0-6.627-.228-7.884-.457-1.829-.457-2.286-1.142-2.4-4.226h-12.34c-.115.914-.115 1.942-.115 2.399 0 5.825 1.943 8.794 6.627 10.05 2.971.8 7.2 1.029 16.569 1.029 8.798 0 12.34-.115 17.368-.571 7.656-.8 10.627-4.226 10.627-12.45M465.634 62.476L443.124 21.244 426.327 21.244 403.131 62.476 417.3 62.476 421.299 55.166 447.809 55.166 451.922 62.476z" transform="translate(-364 -314) translate(364 314) translate(8.937 26.8)"/>
                    <path fill="#25347B" d="M443.467 46.486L425.755 46.486 434.554 30.039z" transform="translate(-364 -314) translate(364 314) translate(8.937 26.8)"/>
                    <path fill="#1A171B" d="M.686 62.362L.686 21.13 46.392 21.13 46.392 30.496 13.026 30.496 13.026 37.577 44.564 37.577 44.564 45.801 13.026 45.801 13.026 52.996 46.849 52.996 46.849 62.362zM92.784 62.362L68.103 31.295 68.445 62.362 56.333 62.362 56.333 21.13 76.33 21.13 101.354 52.539 101.011 21.13 112.895 21.13 112.895 62.362zM123.864 62.362L123.864 21.13 169.571 21.13 169.571 30.496 136.205 30.496 136.205 37.577 167.628 37.577 167.628 45.801 136.205 45.801 136.205 52.996 170.028 52.996 170.028 62.362zM231.503 34.722c0 4.911-1.143 8.11-3.542 9.822-.343.343-.8.571-1.143.8-.457.114-.914.342-1.485.457-.572.114-1.257.342-2.171.457-.8.114-1.829.342-3.086.456l2.057.115c1.143.114 2.171.228 3.085.342.8.114 1.486.343 2.057.457.572.229 1.029.457 1.486.914.457.343.8.8 1.028 1.256.457.8.8 1.6.914 2.513.229.914.343 2.056.343 3.655v6.51h-12.798v-5.14c0-1.142-.114-2.17-.343-2.74-.228-.686-.57-1.257-1.142-1.714-.457-.343-1.143-.571-1.829-.571-.685-.114-1.942-.228-3.542-.228h-19.196v10.393H179.74V21.244h35.536c3.085 0 5.37.114 7.085.343 1.714.228 3.2.685 4.342 1.256 1.714.914 2.97 2.285 3.77 4.226.686 1.828 1.029 4.455 1.029 7.653m-12.57 2.627c0-1.485-.113-2.513-.228-3.198-.114-.686-.343-1.257-.8-1.714-.228-.228-.457-.456-.8-.57-.228-.115-.57-.343-1.028-.343-.457-.115-.914-.229-1.6-.229-.57 0-1.37-.114-2.4-.114h-19.996v10.622h19.654c1.485 0 2.742-.114 3.657-.228.914-.115 1.714-.343 2.285-.686.571-.342.914-.8 1.028-1.37.115-.457.229-1.257.229-2.17M281.209 42.374c0 2.513 0 4.569-.114 6.168 0 1.599-.115 2.855-.343 3.883-.229 1.028-.343 1.828-.686 2.513-.228.685-.571 1.37-1.143 2.056-1.028 1.599-2.285 2.855-3.999 3.655-1.6.913-3.77 1.485-6.513 1.713-.457 0-.914.114-1.371.114-.457 0-1.143.114-1.828.114-.8 0-1.6.115-2.743.115h-3.77c-2.4 0-4.343 0-5.828-.115-1.6 0-2.857-.114-4-.228-1.028-.114-1.942-.343-2.742-.571-.685-.229-1.485-.571-2.171-.914-1.828-1.028-3.2-2.284-4-3.997-.8-1.714-1.256-3.884-1.256-6.51v-.686c0-.343 0-.685.114-1.028v-3.769H250.7v1.256c0 1.028 0 1.942.114 2.742.114.685.229 1.256.457 1.713.229.457.457.685.8 1.028.343.228.8.457 1.371.57 1.371.458 3.542.572 6.513.572 1.943 0 3.428-.114 4.457-.229 1.142-.114 1.942-.456 2.628-.913.343-.229.685-.457.914-.686.228-.228.343-.57.457-1.028.114-.456.229-1.142.229-1.941 0-.8.114-1.828.114-3.198V21.016h12.569v21.358h-.114zM294.12 8.68h8.8v6.625h-8.8V8.68zm-1.827 12.45h12.569v41.232h-12.57V21.13z" transform="translate(-364 -314) translate(364 314) translate(8.937 26.8)"/>
                    <path fill="#231F20" fill-rule="nonzero" d="M516.026 56.88c-.8 1.599-1.943 2.74-3.314 3.54-1.486.8-3.2 1.257-5.142 1.485-2.057.229-4.228.343-6.628.343-2.285 0-4.342-.114-6.284-.229-1.943-.114-3.771-.57-5.142-1.37-1.486-.8-2.628-1.942-3.428-3.54-.914-1.6-1.257-3.884-1.257-6.74V20.787h4.685V50.37c0 1.714.114 3.084.457 3.998.228 1.028.8 1.827 1.6 2.284.8.571 1.942.914 3.542 1.142 1.485.229 3.542.229 6.056.229 2.057 0 3.885 0 5.37-.114 1.486-.115 2.629-.343 3.543-.8.914-.457 1.6-1.256 2.056-2.284.458-1.028.686-2.513.686-4.455V20.787h4.685V50.37c-.343 2.856-.686 5.026-1.485 6.51M493.058 13.82h4.8v3.998h-4.8V13.82zm10.97 0h4.799v3.998h-4.8V13.82zm53.133 18.846c0 1.37-.114 2.741-.228 3.997-.114 1.257-.457 2.399-.914 3.313-.457.913-1.257 1.713-2.171 2.284-.915.571-2.286 1.028-3.885 1.256v.115c2.285.228 3.999.913 5.027 2.17 1.029 1.256 1.6 2.97 1.6 5.254v10.964h-4.685v-8.68c0-1.37-.114-2.513-.228-3.427-.229-.913-.572-1.827-1.029-2.398-.457-.685-1.257-1.142-2.057-1.37-.914-.343-2.056-.458-3.428-.458h-14.968v16.448h-4.685V21.016h18.968c2.17 0 4.113.228 5.713.57 1.6.343 2.971.915 4 1.828 1.028.914 1.828 2.056 2.285 3.655.457 1.37.685 3.312.685 5.597m-4.57-.457c0-1.37-.115-2.399-.229-3.312-.114-.914-.457-1.714-1.028-2.285-.572-.57-1.371-1.028-2.4-1.256-1.028-.228-2.514-.343-4.342-.343h-14.397V41.46h14.397c1.828 0 3.2-.114 4.228-.456 1.028-.343 1.828-.8 2.4-1.6.57-.685.914-1.713 1.142-2.855.114-1.256.229-2.741.229-4.34m37.822 29.696v-4.112h-21.825V42.717h20.796v-3.884h-20.796V24.9h21.825v-4.112h-26.396v41.118h26.396zm36.68-37.006v-4.112h-31.31V24.9h13.255v37.006h4.685V24.9h13.37zm6.17-13.249h4.799v3.998h-4.8V11.65zm.114 9.137h4.685v41.118h-4.685V20.787zm58.275 41.118V20.787h-8.112l-14.626 35.179-14.512-35.179h-8.113v41.118h4.685V24.328h.114l15.54 37.577h4.57l15.541-37.577h.114v37.577h4.8z" transform="translate(-364 -314) translate(364 314) translate(8.937 26.8)"/>
                </g>
            </g>
        </g>
    </g>
</svg>
