<svg width="135" height="32" viewBox="0 0 135 32" fill="none" xmlns="http://www.w3.org/2000/svg">
<path d="M5.02509 11.7115H13.708V16.5317H5.02509V24.4002H0V2.10455H15.1083V6.99159H5.02783V11.7145L5.02509 11.7115Z" fill="#130F26"/>
<path d="M16.2637 3.01622C16.2637 1.27779 17.5124 -0.00170898 19.0891 -0.00170898C20.6658 -0.00170898 21.9145 1.27779 21.9145 3.01622C21.9145 4.75464 20.6355 6.00072 19.0891 6.00072C17.5427 6.00072 16.2637 4.72121 16.2637 3.01622ZM21.5286 24.394H16.7102V8.48983H21.5286V24.394Z" fill="#130F26"/>
<path d="M39.0737 24.1296C39.0737 29.1139 35.8927 31.9981 31.3721 31.9981C26.8514 31.9981 23.789 29.2446 23.5519 25.1113H28.3399C28.5494 26.5884 29.5583 27.5062 31.3445 27.5062C33.0094 27.5062 34.2581 26.3908 34.2581 24.2269V22.7194C33.1886 23.4093 31.9096 23.8348 30.3329 23.8348C26.4076 23.8348 23.166 20.3914 23.166 16.097C23.166 11.2434 26.4076 7.93372 30.3329 7.93372C31.9096 7.93372 33.1886 8.39264 34.2581 9.11293V8.4899H39.0764V24.1296H39.0737ZM34.2554 18.1302V13.7356C33.3623 12.6202 32.3231 12.2615 31.2811 12.2615C29.3185 12.2615 27.8603 13.8024 27.8603 16.097C27.8603 17.8354 29.3185 19.6043 31.2811 19.6043C32.3231 19.6043 33.3623 19.2426 34.2554 18.1272V18.1302Z" fill="#130F26"/>
<path d="M89.0433 16.4288C89.0433 21.1518 85.7714 24.7259 81.8764 24.7259C80.2997 24.7259 79.0207 24.2669 77.9512 23.5466V31.7768H73.1025V8.49652H77.9512V9.31709C79.0207 8.5968 80.2997 8.13788 81.8764 8.13788C85.7714 8.13788 89.0433 11.6786 89.0433 16.4349V16.4288ZM84.3159 16.4288C84.3159 14.2315 82.8881 12.4596 80.9255 12.4596C79.8835 12.4596 78.8443 12.8213 77.9512 13.9367V18.921C78.8443 20.0364 79.8835 20.3646 80.9255 20.3646C82.8881 20.3646 84.3159 18.6262 84.3159 16.4288Z" fill="#130F26"/>
<path d="M106.348 24.3933H101.53V23.5088C100.46 24.2626 99.1811 24.7215 97.5741 24.7215C93.6792 24.7215 90.4072 21.1474 90.4072 16.4245C90.4072 11.7015 93.6792 8.12744 97.5741 8.12744C99.1811 8.12744 100.457 8.58636 101.53 9.34008V8.48607H106.348V24.3902V24.3933ZM101.53 18.8862V13.9354C100.609 12.82 99.5973 12.4583 98.5554 12.4583C96.5928 12.4583 95.1346 14.2302 95.1346 16.4275C95.1346 18.6248 96.5928 20.3633 98.5554 20.3633C99.5973 20.3633 100.609 20.035 101.53 18.8862Z" fill="#130F26"/>
<path d="M118.243 13.2807C115.894 13.378 114.406 14.0678 113.275 15.2805V24.3951H108.427V8.49092H113.275V10.1959C114.554 8.98327 116.101 8.22955 118.243 8.22955V13.2807Z" fill="#130F26"/>
<path d="M134.864 24.3933H130.045V23.5088C128.976 24.2626 127.697 24.7215 126.09 24.7215C122.195 24.7215 118.923 21.1474 118.923 16.4245C118.923 11.7015 122.195 8.12744 126.09 8.12744C127.697 8.12744 128.973 8.58636 130.045 9.34008V8.48607H134.864V24.3902V24.3933ZM130.045 18.8862V13.9354C129.122 12.82 128.113 12.4583 127.071 12.4583C125.108 12.4583 123.65 14.2302 123.65 16.4275C123.65 18.6249 125.108 20.3633 127.071 20.3633C128.113 20.3633 129.122 20.035 130.045 18.8862Z" fill="#130F26"/>
<path d="M68.9648 15.1344L63.9645 9.62127C63.1348 8.70647 61.7786 8.61834 60.9103 9.49363C59.9897 10.4236 59.9676 11.9979 60.8387 12.9614L63.1238 15.4809C63.8432 16.2741 63.8432 17.5627 63.1238 18.359L60.8883 20.8238C60.0586 21.7386 59.9786 23.2339 60.7725 24.1912C61.616 25.2063 63.0439 25.2306 63.9177 24.2702L68.9675 18.7024C69.4113 18.2131 69.6181 17.5627 69.596 16.9184C69.6181 16.2771 69.4113 15.6267 68.9675 15.1344H68.9648Z" fill="#FF5A5A"/>
<path d="M54.3441 10.3178C55.9236 11.9012 56.7119 13.9253 56.7119 16.3931C56.7119 18.861 55.9236 20.879 54.3441 22.4503C52.7646 24.0215 50.8489 24.8056 48.5913 24.8056C46.3338 24.8056 44.4152 24.0215 42.8385 22.4503C41.2591 20.879 40.4707 18.861 40.4707 16.3931C40.4707 13.9253 41.2591 11.9012 42.8385 10.3178C44.418 8.73738 46.3338 7.94415 48.5913 7.94415C50.8489 7.94415 52.7674 8.73434 54.3441 10.3178ZM50.6725 18.8913C51.2568 18.2166 51.5463 17.3839 51.5463 16.3931C51.5463 15.4024 51.2596 14.5696 50.6862 13.8949C50.1129 13.2202 49.4155 12.8829 48.5913 12.8829C47.7671 12.8829 47.0697 13.2202 46.4964 13.8949C45.923 14.5696 45.6364 15.4024 45.6364 16.3931C45.6364 17.3839 45.9286 18.2166 46.5102 18.8913C47.0918 19.5661 47.7864 19.9034 48.5913 19.9034C49.3962 19.9034 50.0881 19.5661 50.6725 18.8913Z" fill="#130F26"/>
</svg>
