<svg width="157" height="32" viewBox="0 0 157 32" fill="none" xmlns="http://www.w3.org/2000/svg">
<path d="M83.2236 24.1316L79.0544 16.5642H77.8836V24.1316H73.0004V4.08514H81.1961C82.7762 4.08514 84.1183 4.36118 85.2225 4.91327C86.3457 5.46536 87.1834 6.22686 87.7355 7.19777C88.2876 8.14965 88.5636 9.21575 88.5636 10.3961C88.5636 11.7287 88.1828 12.9185 87.4213 13.9656C86.6789 15.0127 85.5747 15.7551 84.1088 16.193L88.7349 24.1316H83.2236ZM77.8836 13.1089H80.9105C81.8053 13.1089 82.4716 12.89 82.9095 12.4521C83.3664 12.0143 83.5948 11.3955 83.5948 10.596C83.5948 9.83447 83.3664 9.23479 82.9095 8.79692C82.4716 8.35906 81.8053 8.14013 80.9105 8.14013H77.8836V13.1089Z" fill="#130F26"/>
<path d="M89.8013 16.1359C89.8013 14.4987 90.1059 13.0613 90.7151 11.8239C91.3434 10.5864 92.1905 9.63457 93.2566 8.96826C94.3227 8.30195 95.5126 7.96879 96.8262 7.96879C97.9494 7.96879 98.9298 8.19724 99.7675 8.65414C100.624 9.11104 101.281 9.71072 101.738 10.4532V8.19724H106.621V24.1316H101.738V21.8757C101.262 22.6182 100.596 23.2178 99.7389 23.6747C98.9013 24.1316 97.9208 24.3601 96.7976 24.3601C95.5031 24.3601 94.3227 24.0269 93.2566 23.3606C92.1905 22.6753 91.3434 21.7139 90.7151 20.4764C90.1059 19.22 89.8013 17.7731 89.8013 16.1359ZM101.738 16.1644C101.738 14.946 101.395 13.9846 100.71 13.2803C100.044 12.5759 99.2249 12.2237 98.254 12.2237C97.2831 12.2237 96.4549 12.5759 95.7696 13.2803C95.1033 13.9656 94.7701 14.9175 94.7701 16.1359C94.7701 17.3543 95.1033 18.3252 95.7696 19.0486C96.4549 19.753 97.2831 20.1052 98.254 20.1052C99.2249 20.1052 100.044 19.753 100.71 19.0486C101.395 18.3442 101.738 17.3828 101.738 16.1644Z" fill="#130F26"/>
<path d="M108.326 16.1359C108.326 14.4987 108.631 13.0613 109.24 11.8239C109.868 10.5864 110.715 9.63457 111.781 8.96826C112.848 8.30195 114.037 7.96879 115.351 7.96879C116.398 7.96879 117.35 8.18772 118.207 8.62559C119.082 9.06345 119.768 9.65361 120.263 10.3961V3H125.146V24.1316H120.263V21.8471C119.806 22.6086 119.149 23.2178 118.292 23.6747C117.455 24.1316 116.474 24.3601 115.351 24.3601C114.037 24.3601 112.848 24.0269 111.781 23.3606C110.715 22.6753 109.868 21.7139 109.24 20.4764C108.631 19.22 108.326 17.7731 108.326 16.1359ZM120.263 16.1644C120.263 14.946 119.92 13.9846 119.235 13.2803C118.568 12.5759 117.75 12.2237 116.779 12.2237C115.808 12.2237 114.98 12.5759 114.294 13.2803C113.628 13.9656 113.295 14.9175 113.295 16.1359C113.295 17.3543 113.628 18.3252 114.294 19.0486C114.98 19.753 115.808 20.1052 116.779 20.1052C117.75 20.1052 118.568 19.753 119.235 19.0486C119.92 18.3442 120.263 17.3828 120.263 16.1644Z" fill="#130F26"/>
<path d="M126.851 16.1359C126.851 14.4987 127.155 13.0613 127.765 11.8239C128.393 10.5864 129.24 9.63457 130.306 8.96826C131.372 8.30195 132.562 7.96879 133.876 7.96879C134.999 7.96879 135.979 8.19724 136.817 8.65414C137.674 9.11104 138.33 9.71072 138.787 10.4532V8.19724H143.671V24.1316H138.787V21.8757C138.311 22.6182 137.645 23.2178 136.788 23.6747C135.951 24.1316 134.97 24.3601 133.847 24.3601C132.553 24.3601 131.372 24.0269 130.306 23.3606C129.24 22.6753 128.393 21.7139 127.765 20.4764C127.155 19.22 126.851 17.7731 126.851 16.1359ZM138.787 16.1644C138.787 14.946 138.445 13.9846 137.759 13.2803C137.093 12.5759 136.274 12.2237 135.304 12.2237C134.333 12.2237 133.504 12.5759 132.819 13.2803C132.153 13.9656 131.82 14.9175 131.82 16.1359C131.82 17.3543 132.153 18.3252 132.819 19.0486C133.504 19.753 134.333 20.1052 135.304 20.1052C136.274 20.1052 137.093 19.753 137.759 19.0486C138.445 18.3442 138.787 17.3828 138.787 16.1644Z" fill="#130F26"/>
<path d="M151.23 10.853C151.801 9.97725 152.515 9.2919 153.371 8.79692C154.228 8.28291 155.18 8.0259 156.227 8.0259V13.1946H154.885C153.666 13.1946 152.753 13.4611 152.143 13.9942C151.534 14.5082 151.23 15.422 151.23 16.7356V24.1316H146.347V8.19724H151.23V10.853Z" fill="#130F26"/>
<path d="M5.02511 11.7124H13.7081V16.5326H5.02511V24.4012H0V2.10547H15.1084V6.99253H5.02785V11.7155L5.02511 11.7124Z" fill="#130F26"/>
<path d="M16.2634 3.01794C16.2634 1.27951 17.5121 0 19.0888 0C20.6656 0 21.9143 1.27951 21.9143 3.01794C21.9143 4.75637 20.6352 6.00246 19.0888 6.00246C17.5424 6.00246 16.2634 4.72294 16.2634 3.01794ZM21.5284 24.3958H16.71V8.49158H21.5284V24.3958Z" fill="#130F26"/>
<path d="M39.0738 24.1315C39.0738 29.1159 35.8928 32.0001 31.3721 32.0001C26.8514 32.0001 23.789 29.2466 23.5519 25.1132H28.34C28.5495 26.5903 29.5583 27.5081 31.3445 27.5081C33.0095 27.5081 34.2582 26.3927 34.2582 24.2288V22.7214C33.1887 23.4113 31.9096 23.8367 30.3329 23.8367C26.4077 23.8367 23.166 20.3933 23.166 16.0989C23.166 11.2453 26.4077 7.93555 30.3329 7.93555C31.9096 7.93555 33.1887 8.39447 34.2582 9.11477V8.49173H39.0765V24.1315H39.0738ZM34.2554 18.1321V13.7374C33.3623 12.622 32.3231 12.2634 31.2812 12.2634C29.3185 12.2634 27.8603 13.8043 27.8603 16.0989C27.8603 17.8373 29.3185 19.6062 31.2812 19.6062C32.3231 19.6062 33.3623 19.2445 34.2554 18.1291V18.1321Z" fill="#130F26"/>
<path d="M68.9649 15.1355L63.9646 9.62231C63.1349 8.7075 61.7787 8.61937 60.9104 9.49467C59.9897 10.4247 59.9677 11.999 60.8387 12.9624L63.1239 15.4819C63.8433 16.2752 63.8433 17.5638 63.1239 18.3601L60.8883 20.8249C60.0586 21.7397 59.9787 23.235 60.7726 24.1923C61.6161 25.2074 63.0439 25.2317 63.9178 24.2713L68.9676 18.7035C69.4114 18.2142 69.6182 17.5638 69.5961 16.9195C69.6182 16.2782 69.4114 15.6278 68.9676 15.1355H68.9649Z" fill="#FF5A5A"/>
<path d="M54.3441 10.3189C55.9235 11.9024 56.7119 13.9265 56.7119 16.3943C56.7119 18.8622 55.9235 20.8802 54.3441 22.4515C52.7646 24.0228 50.8488 24.8069 48.5912 24.8069C46.3337 24.8069 44.4151 24.0228 42.8384 22.4515C41.2589 20.8802 40.4706 18.8622 40.4706 16.3943C40.4706 13.9265 41.2589 11.9024 42.8384 10.3189C44.4179 8.73855 46.3337 7.94531 48.5912 7.94531C50.8488 7.94531 52.7673 8.73551 54.3441 10.3189ZM50.6724 18.8926C51.2568 18.2179 51.5462 17.3851 51.5462 16.3943C51.5462 15.4036 51.2595 14.5708 50.6862 13.8961C50.1128 13.2214 49.4154 12.884 48.5912 12.884C47.767 12.884 47.0696 13.2214 46.4963 13.8961C45.9229 14.5708 45.6363 15.4036 45.6363 16.3943C45.6363 17.3851 45.9285 18.2179 46.5101 18.8926C47.0917 19.5673 47.7863 19.9046 48.5912 19.9046C49.3961 19.9046 50.088 19.5673 50.6724 18.8926Z" fill="#130F26"/>
</svg>
