<svg xmlns="http://www.w3.org/2000/svg" width="208.391" height="46.002" viewBox="0 0 208.391 46.002">
  <g id="web_Karaca_logo" data-name="web Karaca logo" transform="translate(24580 23011)">
    <g id="Group_6887" data-name="Group 6887" transform="translate(-24529.125 -22990.365)">
      <g id="Group_6883" data-name="Group 6883">
        <path id="Path_14090" data-name="Path 14090" d="M91.357,70.178,81.566,59.153v11.1H76.4V46.2h5.166V56.84l9.329-10.563h6.322L86.654,58,97.6,70.255H91.357Z" transform="translate(-76.4 -45.506)" fill="#231f20"/>
        <path id="Path_14091" data-name="Path 14091" d="M128.02,45.994V69.972h-5.166V66.5a9.863,9.863,0,0,1-8.4,4.086c-6.554,0-11.951-5.551-11.951-12.644,0-7.17,5.4-12.644,11.951-12.644a10.1,10.1,0,0,1,8.4,4.009V45.917h5.166Zm-5.166,12.028a7.556,7.556,0,1,0-7.556,7.633A7.352,7.352,0,0,0,122.855,58.022Z" transform="translate(-82.377 -45.3)" fill="#231f20"/>
        <path id="Path_14092" data-name="Path 14092" d="M154.467,45.7v5.628c-3.392-.231-7.4,1.311-7.4,6.708v12.1H141.9V46.086h5.166v4.009C148.454,46.857,151.383,45.7,154.467,45.7Z" transform="translate(-91.399 -45.392)" fill="#231f20"/>
        <path id="Path_14093" data-name="Path 14093" d="M185.443,46.017V70h-5.166v-3.47a9.863,9.863,0,0,1-8.4,4.086C165.4,70.612,160,65.138,160,58.044c0-7.17,5.4-12.644,11.951-12.644a10.1,10.1,0,0,1,8.4,4.009V46.017Zm-5.166,12.028a7.556,7.556,0,1,0-7.556,7.633A7.352,7.352,0,0,0,180.277,58.044Z" transform="translate(-95.544 -45.323)" fill="#231f20"/>
        <path id="Path_14094" data-name="Path 14094" d="M197.5,58.044A12.367,12.367,0,0,1,210.144,45.4a11.949,11.949,0,0,1,10.717,6.168l-4.472,2.621a6.734,6.734,0,0,0-6.245-3.7,7.557,7.557,0,0,0,0,15.112,7.057,7.057,0,0,0,6.4-3.7l4.472,2.544a12.076,12.076,0,0,1-10.794,6.245A12.524,12.524,0,0,1,197.5,58.044Z" transform="translate(-104.131 -45.323)" fill="#231f20"/>
        <path id="Path_14095" data-name="Path 14095" d="M256.02,45.994V69.972h-5.166V66.5a9.863,9.863,0,0,1-8.4,4.086c-6.554,0-11.951-5.551-11.951-12.644,0-7.17,5.4-12.644,11.951-12.644a10.1,10.1,0,0,1,8.4,4.009V45.917h5.166Zm-5.166,12.028a7.556,7.556,0,1,0-7.556,7.633A7.352,7.352,0,0,0,250.854,58.022Z" transform="translate(-111.688 -45.3)" fill="#231f20"/>
      </g>
      <g id="Group_6886" data-name="Group 6886" transform="translate(149.498 0.771)">
        <g id="Group_6884" data-name="Group 6884">
          <path id="Path_14096" data-name="Path 14096" d="M270.3,50.309a4.009,4.009,0,1,1,4.009,4.009A3.982,3.982,0,0,1,270.3,50.309Zm7.17,0a3.08,3.08,0,0,0-3.161-3.161,3.127,3.127,0,0,0-3.161,3.161,3.08,3.08,0,0,0,3.161,3.161A3.127,3.127,0,0,0,277.47,50.309Z" transform="translate(-270.3 -46.3)" fill="#231f20"/>
        </g>
        <g id="Group_6885" data-name="Group 6885" transform="translate(2.621 1.696)">
          <path id="Path_14097" data-name="Path 14097" d="M275.242,51.43h-.694v1.542H273.7V48.5h1.773a1.464,1.464,0,0,1,1.465,1.465,1.566,1.566,0,0,1-.848,1.311l1,1.7h-.925Zm-.694-.771h.925a.7.7,0,0,0,0-1.388h-.925Z" transform="translate(-273.7 -48.5)" fill="#231f20"/>
        </g>
      </g>
    </g>
    <path id="Path_14111" data-name="Path 14111" d="M52.062,26.931V18.878h-5.32v8.053h-5.32V18.878H36.1v8.053H33.327a2.585,2.585,0,0,1-2.544-2.58V18.8h-5.32v5.785a7.622,7.622,0,0,0,7.556,7.662H46.665V37.8a2.585,2.585,0,0,1-2.544,2.58H22.764A2.585,2.585,0,0,1,20.22,37.8V37.72H14.9v.391a7.68,7.68,0,0,0,1.85,5,7.528,7.528,0,0,0-1.85,5V64.692h5.32V53.825a2.618,2.618,0,0,1,2.621-2.658h0a2.618,2.618,0,0,1,2.621,2.658V64.614h5.32V53.825A2.618,2.618,0,0,1,33.4,51.167h0a2.618,2.618,0,0,1,2.621,2.658V64.614h5.32V53.825a2.618,2.618,0,0,1,2.621-2.658h0a2.618,2.618,0,0,1,2.621,2.658V64.614h5.32V45.772h0V40.378h0V34.827a2.585,2.585,0,0,1,2.544-2.58h2.853V26.853H52.062Z" transform="translate(-24594.9 -23029.801)" fill="#231f20"/>
  </g>
</svg>
