<?xml version="1.0" encoding="utf-8"?>
<!-- Generator: Adobe Illustrator 22.1.0, SVG Export Plug-In . SVG Version: 6.00 Build 0)  -->
<svg version="1.1" id="Layer_1" xmlns="http://www.w3.org/2000/svg" xmlns:xlink="http://www.w3.org/1999/xlink" x="0px" y="0px"
	 viewBox="0 0 244 52.9" style="enable-background:new 0 0 244 52.9;" xml:space="preserve">
<style type="text/css">
	.st0{fill:#001689;}
	.st1{fill:#FFFFFF;}
</style>
<g>
	<g>
		<g>
			<polygon points="35.4,38.3 20.5,26.3 34.1,14.5 24.2,14.5 14.4,23.4 10.6,23.4 10.6,14.5 3.4,14.5 3.4,38.3 10.6,38.3 10.6,29.2 
				14.2,29.2 24.9,38.3 			"/>
			<path d="M70.1,26.6c0-3.3-0.1-5-0.3-6.1c-0.6-3.6-2.4-5.3-6.2-5.9c-1.6-0.3-3.8-0.3-10.5-0.3c-4.2,0-5.6,0.1-7.9,0.3
				c-3.6,0.4-6,1.8-6.8,4.2c-0.7,1.8-0.8,2.9-0.8,7.7c0,2.8,0.1,4.6,0.2,5.6c0.4,2.7,1.6,4.4,3.4,5.3c2,1,4.1,1.1,12.3,1.1
				c4,0,6.9-0.1,8.7-0.2c3.9-0.3,6.4-2.1,7.2-5.2C70,31.4,70.1,30.2,70.1,26.6 M62.9,26.1c0,4.3-0.4,5.5-2,6.1
				c-1.1,0.4-2.5,0.5-8.1,0.5c-7.5,0-7.9-0.3-7.9-6.5c0-3.8,0.4-5,1.8-5.6c1-0.4,2.5-0.5,7-0.5c5.6,0,6.8,0.1,7.8,0.7
				C62.6,21.4,62.9,22.6,62.9,26.1"/>
			<path d="M105.7,22.4c0-3.7-0.9-5.9-2.8-6.9c-1.4-0.7-3.1-0.9-6.6-0.9H75.8v23.8h7.2v-6h11.1c2,0,2.5,0.1,3.1,0.5
				c0.6,0.5,0.9,1.2,0.9,2.6v3h7.3v-3.7c0-1.8-0.2-2.7-0.7-3.5c-0.7-1.2-1.7-1.5-4.4-1.7l-1.2-0.1c2.9-0.4,3.7-0.6,4.6-1.3
				C105.1,27.1,105.7,25.2,105.7,22.4 M98.5,23.9c0,2.2-0.7,2.6-4.2,2.6H83v-6.1h11.5c2.2,0,2.7,0.1,3.3,0.7
				C98.3,21.5,98.5,22.2,98.5,23.9"/>
			<path d="M143.5,26.4c0-5.5-0.6-8.1-2.2-9.7c-1.6-1.6-4-2.2-9-2.2h-20.5v23.8h21.5c4.8,0,6.5-0.4,8-2
				C143,34.5,143.5,32.2,143.5,26.4 M136.2,26.4c0,4.2-0.5,5.4-2.2,5.9c-0.9,0.3-1,0.3-3,0.3h-12.1V20.4h12.3
				C135.3,20.4,136.2,21.5,136.2,26.4"/>
			<path class="st0" d="M147.9,26.4c0-13.1,10.6-23.8,23.8-23.8c10.5,0,19.4,6.8,22.6,16.3c3.1-9.5,12-16.3,22.6-16.3
				c13.1,0,23.8,10.6,23.8,23.8c0,13.1-10.6,23.8-23.8,23.8c-10.5,0-19.4-6.8-22.6-16.3c-3.1,9.5-12,16.3-22.6,16.3
				C158.5,50.2,147.9,39.5,147.9,26.4"/>
			<path class="st1" d="M186.5,30.9c0-2.5-0.5-4.2-1.5-5.3c-1.1-1.3-2.6-1.7-6.1-1.9c-1.9-0.1-3.3-0.1-3.8-0.1h-6.7
				c-2.3,0-2.5-0.1-2.9-0.1c-1.1-0.2-1.6-0.9-1.6-1.9c0-1.3,0.6-1.8,2.4-2c1.1-0.1,4.3-0.2,6.5-0.2c4.9,0,5.6,0.3,5.6,2.4h7.1
				c0-4.1-0.8-5.7-3.2-6.6c-1.8-0.7-3.7-0.8-10.6-0.8c-4.6,0-6.6,0.1-8.9,0.4c-4.4,0.6-5.9,2.5-5.9,7.2c0,3.7,1,5.6,3.5,6.4
				c1.2,0.4,3.3,0.6,6.7,0.6h6.6c3,0,3.1,0,3.6,0.1c1.5,0.1,2.2,0.8,2.2,2c0,2.1-0.9,2.3-9.4,2.3c-1.8,0-3.8-0.1-4.5-0.3
				c-1.1-0.3-1.3-0.7-1.4-2.5h-7.1c0,0.5,0,1.1,0,1.4c0,3.4,1.1,5.1,3.8,5.8c1.7,0.5,4.2,0.6,9.5,0.6c5.1,0,7.1-0.1,10-0.4
				C184.8,37.6,186.5,35.7,186.5,30.9"/>
			<polygon class="st1" points="234.6,38.3 221.6,14.5 212,14.5 198.7,38.3 206.9,38.3 209.1,34 224.5,34 226.8,38.3 			"/>
			<polygon class="st0" points="221.9,29.1 211.7,29.1 216.8,19.6 			"/>
		</g>
	</g>
</g>
</svg>
