<?xml version="1.0" encoding="UTF-8"?>
<svg xmlns="http://www.w3.org/2000/svg" id="uuid-a2981eeb-24bd-4256-8479-fedc403320d0" viewBox="0 0 152.62 26.08">
  <g id="uuid-dbbfa942-899b-46bd-af76-08263f55a565">
    <g>
      <polygon points="47.45 23.94 51.3 23.94 51.3 21.8 47.45 21.8 47.45 23.94 47.45 23.94" style="fill-rule:evenodd;"></polygon>
      <path d="M19.88,19.45L12.83,6.41H7.48L0,19.45H4.49l1.28-2.35H14.32l1.29,2.35h4.27Zm-7.05-4.92H7.27l2.78-5.35,2.78,5.35h0Z" style="fill-rule:evenodd;"></path>
      <polygon points="39.33 19.45 31.21 12.83 38.69 6.41 33.13 6.41 27.78 11.33 25.65 11.33 25.65 6.41 21.8 6.41 21.8 19.45 25.65 19.45 25.65 14.54 27.78 14.54 33.56 19.45 39.33 19.45 39.33 19.45" style="fill-rule:evenodd;"></polygon>
      <path d="M57.71,15.18v-.64h-3.85c0,1.07-.22,1.28-.64,1.71-.64,.21-1.07,.21-4.27,.21-3.64,0-3.85-.21-3.85-3.2v-1.93c0-1.07,.43-1.49,1.5-1.71,.43,0,1.71-.22,3.42-.22,3.42,0,3.63,.22,3.63,1.71h3.85v-.64c0-2.14-.64-3.21-2.13-3.63-.86-.43-2.35-.43-6.41-.43-3.64,0-4.92,.22-6.2,.85-1.29,.64-1.72,1.92-1.72,5.34,0,4.06,.43,5.35,1.72,6.2,1.07,.64,2.35,.85,5.98,.85,5.77,0,6.84-.21,7.91-.85,.85-.64,1.07-1.71,1.07-3.63h0Z" style="fill-rule:evenodd;"></path>
      <path d="M79.09,19.45l-7.05-13.04h-5.34l-7.49,13.04h4.7l1.07-2.35h8.55l1.28,2.35h4.27Zm-7.05-4.92h-5.56l2.78-5.35,2.78,5.35h0Z" style="fill-rule:evenodd;"></path>
      <polygon points="98.97 19.45 98.97 6.41 95.12 6.41 95.33 16.46 87.43 6.41 81.01 6.41 81.01 19.45 84.86 19.45 84.65 9.62 92.56 19.45 98.97 19.45 98.97 19.45" style="fill-rule:evenodd;"></polygon>
      <path d="M101.53,13.04c0-7.27,5.99-13.04,13.26-13.04,5.77,0,10.69,3.64,12.39,8.98,1.71-5.34,6.63-8.98,12.4-8.98,7.27,0,13.04,5.77,13.04,13.04s-5.77,13.04-13.04,13.04c-5.77,0-10.69-3.84-12.4-8.97-1.71,5.13-6.62,8.97-12.39,8.97-7.27,0-13.26-5.77-13.26-13.04h0Z" style="fill:#0c1c8c; fill-rule:evenodd;"></path>
      <path d="M122.91,15.39c0-1.29-.22-2.35-.85-2.78-.64-.85-1.29-1.07-3.42-1.07h-5.77c-1.29,0-1.29-.21-1.5-.21-.64,0-.85-.43-.85-1.07s.22-.85,1.29-1.07h3.63c2.57,0,2.99,.22,2.99,1.29h3.85c0-2.35-.43-3.21-1.71-3.63-1.07-.43-1.92-.43-5.77-.43-2.57,0-3.64,0-4.92,.22-2.57,.22-3.42,1.28-3.42,3.85,0,2.13,.64,3.2,1.92,3.63,.86,.22,1.93,.22,3.85,.22h3.64c1.5,0,1.71,.22,1.92,.22,.85,0,1.07,.43,1.07,1.07,0,1.07-.43,1.29-5.13,1.29-1.07,0-2.14,0-2.35-.22-.64,0-.85-.42-.85-1.28h-3.85v.64c0,1.92,.64,2.99,1.92,3.21,1.07,.21,2.35,.42,5.35,.42,2.78,0,3.85,0,5.55-.21,2.35-.21,3.42-1.28,3.42-4.06h0Z" style="fill:#fff; fill-rule:evenodd;"></path>
      <polygon points="149.42 19.45 142.36 6.41 137.01 6.41 129.54 19.45 134.03 19.45 135.31 17.1 143.85 17.1 145.14 19.45 149.42 19.45 149.42 19.45" style="fill:#fff; fill-rule:evenodd;"></polygon>
      <polygon points="142.36 14.54 136.8 14.54 139.58 9.19 142.36 14.54 142.36 14.54" style="fill:#0c1c8c; fill-rule:evenodd;"></polygon>
    </g>
  </g>
</svg>
