<svg width="126" height="28" viewBox="0 0 126 28" fill="none" xmlns="http://www.w3.org/2000/svg">
<path d="M4.67436 10.3795H12.7513V14.4462H4.67436V21.0847H0V2.27441H14.0538V6.39748H4.67692V10.3821L4.67436 10.3795Z" fill="#130F26"/>
<path d="M15.1282 3.04713C15.1282 1.58046 16.2897 0.500977 17.7564 0.500977C19.223 0.500977 20.3846 1.58046 20.3846 3.04713C20.3846 4.51379 19.1948 5.56507 17.7564 5.56507C16.3179 5.56507 15.1282 4.48559 15.1282 3.04713ZM20.0256 21.083H15.5436V7.66507H20.0256V21.083Z" fill="#130F26"/>
<path d="M36.3462 20.8604C36.3462 25.0655 33.3873 27.4988 29.1821 27.4988C24.977 27.4988 22.1283 25.1758 21.9078 21.6886H26.3616C26.5565 22.9347 27.495 23.7091 29.1565 23.7091C30.7052 23.7091 31.8668 22.7681 31.8668 20.9424V19.6706C30.8719 20.2527 29.6822 20.6117 28.2155 20.6117C24.5642 20.6117 21.5488 17.7065 21.5488 14.0835C21.5488 9.98859 24.5642 7.19629 28.2155 7.19629C29.6822 7.19629 30.8719 7.58347 31.8668 8.19116V7.66552H36.3488V20.8604H36.3462ZM31.8642 15.7988V12.0912C31.0334 11.1501 30.0668 10.8476 29.0975 10.8476C27.2719 10.8476 25.9155 12.1476 25.9155 14.0835C25.9155 15.5501 27.2719 17.0424 29.0975 17.0424C30.0668 17.0424 31.0334 16.7373 31.8642 15.7963V15.7988Z" fill="#130F26"/>
<path d="M82.8282 14.363C82.8282 18.3476 79.7846 21.363 76.1615 21.363C74.6949 21.363 73.5051 20.9758 72.5103 20.3682V27.3117H68V7.67074H72.5103V8.36304C73.5051 7.75534 74.6949 7.36816 76.1615 7.36816C79.7846 7.36816 82.8282 10.3554 82.8282 14.3682V14.363ZM78.4308 14.363C78.4308 12.5092 77.1026 11.0143 75.2769 11.0143C74.3077 11.0143 73.341 11.3194 72.5103 12.2605V16.4656C73.341 17.4066 74.3077 17.6835 75.2769 17.6835C77.1026 17.6835 78.4308 16.2169 78.4308 14.363Z" fill="#130F26"/>
<path d="M98.9253 21.0834H94.4433V20.3373C93.4484 20.9732 92.2587 21.3603 90.7638 21.3603C87.1408 21.3603 84.0972 18.345 84.0972 14.3603C84.0972 10.3757 87.1408 7.36035 90.7638 7.36035C92.2587 7.36035 93.4459 7.74753 94.4433 8.38342V7.66291H98.9253V21.0809V21.0834ZM94.4433 16.4373V12.2603C93.5869 11.3193 92.6459 11.0142 91.6766 11.0142C89.851 11.0142 88.4946 12.5091 88.4946 14.3629C88.4946 16.2168 89.851 17.6834 91.6766 17.6834C92.6459 17.6834 93.5869 17.4065 94.4433 16.4373Z" fill="#130F26"/>
<path d="M109.989 11.7078C107.805 11.7899 106.42 12.3719 105.369 13.395V21.0847H100.858V7.6668H105.369V9.10525C106.558 8.08218 107.997 7.44629 109.989 7.44629V11.7078Z" fill="#130F26"/>
<path d="M125.451 21.0834H120.969V20.3373C119.974 20.9732 118.785 21.3603 117.29 21.3603C113.667 21.3603 110.623 18.345 110.623 14.3603C110.623 10.3757 113.667 7.36035 117.29 7.36035C118.785 7.36035 119.972 7.74753 120.969 8.38342V7.66291H125.451V21.0809V21.0834ZM120.969 16.4373V12.2603C120.11 11.3193 119.172 11.0142 118.203 11.0142C116.377 11.0142 115.02 12.5091 115.02 14.3629C115.02 16.2168 116.377 17.6834 118.203 17.6834C119.172 17.6834 120.11 17.4065 120.969 16.4373Z" fill="#130F26"/>
<path d="M64.1511 13.2735L59.4998 8.62224C58.728 7.85045 57.4665 7.77609 56.6588 8.51456C55.8024 9.29917 55.7818 10.6274 56.5921 11.4402L58.7177 13.5658C59.387 14.2351 59.387 15.3222 58.7177 15.994L56.6382 18.0735C55.8665 18.8453 55.7921 20.1068 56.5306 20.9145C57.3152 21.7709 58.6434 21.7915 59.4562 20.9812L64.1536 16.2838C64.5664 15.871 64.7588 15.3222 64.7382 14.7787C64.7588 14.2376 64.5664 13.6889 64.1536 13.2735H64.1511Z" fill="#FF5A5A"/>
<path d="M50.5511 9.20666C52.0203 10.5426 52.7537 12.2502 52.7537 14.3323C52.7537 16.4143 52.0203 18.1169 50.5511 19.4425C49.0819 20.7682 47.2998 21.4297 45.1998 21.4297C43.0998 21.4297 41.3152 20.7682 39.8486 19.4425C38.3793 18.1169 37.646 16.4143 37.646 14.3323C37.646 12.2502 38.3793 10.5426 39.8486 9.20666C41.3178 7.87333 43.0998 7.2041 45.1998 7.2041C47.2998 7.2041 49.0845 7.87077 50.5511 9.20666ZM47.1357 16.44C47.6793 15.8707 47.9485 15.1682 47.9485 14.3323C47.9485 13.4964 47.6819 12.7938 47.1486 12.2246C46.6152 11.6554 45.9665 11.3708 45.1998 11.3708C44.4332 11.3708 43.7844 11.6554 43.2511 12.2246C42.7178 12.7938 42.4511 13.4964 42.4511 14.3323C42.4511 15.1682 42.7229 15.8707 43.2639 16.44C43.805 17.0092 44.4511 17.2938 45.1998 17.2938C45.9486 17.2938 46.5921 17.0092 47.1357 16.44V16.44Z" fill="#130F26"/>
</svg>
