<svg xmlns="http://www.w3.org/2000/svg" viewBox="0 0 734.46 186.74"><title>Asset 1</title><g id="Layer_2" data-name="Layer 2"><g id="Layer_1-2" data-name="Layer 1"><path d="M418,99.7A14.17,14.17,0,0,0,432,114.06h11V0H418Z" style="fill:#1a171b"/><rect x="450" width="25.03" height="25.08" style="fill:#1a171b"/><path d="M450,99.7a14.2,14.2,0,0,0,14,14.36h11V32.31H450Z" style="fill:#1a171b"/><path d="M405.64,36.64c-3.49-3-8.56-4.33-17.43-4.33H348.68c-8.9,0-13.91,1.29-17.42,4.33-3.79,3.31-5.42,8.31-5.42,16.77V93c0,8.42,1.58,13.44,5.29,16.72,3.56,3.13,8.63,4.38,17.55,4.38h39.53c8.84,0,13.9-1.25,17.46-4.38C410.42,105.49,411,98.55,411,93V53.41c0-8.46-1.62-13.46-5.39-16.77M355.11,50.15h26.66A4.29,4.29,0,0,1,386,54.42V92a4.26,4.26,0,0,1-4.27,4.25H355.11A4.26,4.26,0,0,1,350.84,92V54.42a4.29,4.29,0,0,1,4.27-4.27" style="fill:#1a171b"/><path d="M556.19,66c-3.58-3.16-8.63-3-17.58-3H508.17a3.72,3.72,0,0,1-3.69-3.74V53.87a3.69,3.69,0,0,1,3.69-3.72h48.55V32.31H504.24c-8.73,0-14,1.32-17.54,4.42-3.74,3.25-5.49,8.43-5.49,16.68v8.37c0,8.29,1.75,11.37,5.49,14.63,3.58,3.07,8.81,4.35,17.54,4.35h30.31a3.76,3.76,0,0,1,3.66,3.77v8a3.7,3.7,0,0,1-3.66,3.69H495.19a13.77,13.77,0,0,0-14,13.89v4h57.4c8.78,0,14-1.34,17.58-4.47,3.68-3.31,5.28-8.28,5.28-16.64V82.68c0-8.41-1.6-13.43-5.28-16.71" style="fill:#1a171b"/><path d="M729.08,36.64c-3.51-3-8.58-4.33-17.47-4.33H652.93V99.7a14.18,14.18,0,0,0,14,14.36h11V53.87a3.73,3.73,0,0,1,3.73-3.72h23.58a4.29,4.29,0,0,1,4.25,4.27v59.64h25V53.41c0-8.46-1.63-13.46-5.38-16.77" style="fill:#1a171b"/><path d="M319.86,5.39C315.5,1.71,309.23.05,300.16.05H236.43a15.29,15.29,0,0,0-15,15.52V97.5a16.33,16.33,0,0,0,16.06,16.56H251V77h49.14c9.07,0,15.34-1.73,19.7-5.42,4.6-3.82,6.84-9.66,6.84-17.92V23.28c0-8.19-2.24-14-6.84-17.89M297.38,51.27a4.27,4.27,0,0,1-4.26,4.28H254.67A3.74,3.74,0,0,1,251,51.81V25.13a3.74,3.74,0,0,1,3.71-3.69h38.45a4.28,4.28,0,0,1,4.26,4.3Z" style="fill:#1a171b"/><path d="M640.53,36.64c-3.51-3-8.56-4.33-17.44-4.33h-56V50.15h50.17a3.7,3.7,0,0,1,3.42,2.31,3.18,3.18,0,0,1,.28,1.41V63H584.12c-8.89,0-13.94,1.07-17.44,4.09-3.79,3.31-5.42,8.33-5.42,16.85v9c0,8.42,1.57,13.44,5.32,16.72,3.52,3.13,8.63,4.38,17.54,4.38h39c8.84,0,13.93-1.25,17.48-4.38,4.75-4.19,5.36-11.13,5.36-16.72V53.41c0-8.46-1.6-13.46-5.4-16.77m-19.6,47.89v8a3.7,3.7,0,0,1-3.7,3.66h-26.7A4.26,4.26,0,0,1,586.28,92V85.08a4.23,4.23,0,0,1,4.25-4.24h30.4Z" style="fill:#1a171b"/><path d="M39.08,102.93c39.88,14.2,73.12,7.11,94.5-2.34A111,111,0,0,0,189.11,47.5a102,102,0,0,0,9.46-31.25V14.2c0-6.43-5.63-11.68-12.52-11.7l-173.52,0C5.64,2.5,0,7.77,0,14.2V77.89s13.69,16,39.08,25" style="fill:#e1251b;fill-rule:evenodd"/><polygon points="417.15 133.58 424.21 133.58 424.21 154.92 450.76 154.92 450.76 133.58 457.82 133.58 457.82 185.23 450.76 185.23 450.76 161.07 424.21 161.07 424.21 185.23 417.15 185.23 417.15 133.58" style="fill:#1a171b"/><path d="M511.51,141q5.13,6.85,5.13,17.55,0,11.56-5.87,19.23-6.88,9-19.65,9-11.92,0-18.74-7.88-6.09-7.59-6.08-19.19,0-10.48,5.2-17.93,6.67-9.57,19.76-9.57,13.68,0,20.25,8.79m-6.17,32.92a28.26,28.26,0,0,0,4.13-15.25q0-9.12-4.76-14.67t-13-5.56a17,17,0,0,0-13.08,5.5q-5.06,5.5-5.06,16.24a23.76,23.76,0,0,0,4.34,14.48q4.35,5.9,14.08,5.89,9.26,0,13.38-6.63" style="fill:#1a171b"/><polygon points="524.97 133.58 531.97 133.58 531.97 179.07 557.88 179.07 557.88 185.23 524.97 185.23 524.97 133.58" style="fill:#1a171b"/><path d="M565.33,133.58H586q10.51,0,16.31,7.56,5.18,6.83,5.17,17.47a35.27,35.27,0,0,1-3.05,14.87q-5.39,11.75-18.49,11.75H565.33Zm19.27,45.67a18.58,18.58,0,0,0,5.71-.74,12.59,12.59,0,0,0,6.53-5.27,21.88,21.88,0,0,0,2.92-8,30.62,30.62,0,0,0,.52-5.41q0-9.6-3.73-14.91t-12-5.31H572.4v39.66Z" style="fill:#1a171b"/><path d="M618.6,133.58h7.06v51.65H618.6Zm.14-12.13h6.57v7.31h-6.57Z" style="fill:#1a171b"/><polygon points="637.02 133.58 645.26 133.58 671.01 175.31 671.01 133.58 677.69 133.58 677.69 185.23 669.83 185.23 643.7 143.55 643.7 185.23 637.02 185.23 637.02 133.58" style="fill:#1a171b"/><path d="M723.39,135.06q7.59,4,9.29,14.17h-6.93q-1.25-5.67-5.13-8.25a17.38,17.38,0,0,0-9.81-2.58A15.23,15.23,0,0,0,699,143.78q-4.8,5.37-4.8,16,0,9.21,4,15t12.92,5.78a16.27,16.27,0,0,0,11.35-4.06q4.5-4.05,4.61-13.13H710.84v-5.8h22.68v27.64H729l-1.69-6.65a26.34,26.34,0,0,1-6.19,5.42,22.93,22.93,0,0,1-11.51,2.6,22.22,22.22,0,0,1-15.53-5.94q-7.1-7.46-7.09-20.47t6.93-20.63q6.59-7.32,17-7.32a25.77,25.77,0,0,1,12.4,2.82" style="fill:#1a171b"/></g></g></svg>