<svg width="97" height="22" viewBox="0 0 97 22" fill="none" xmlns="http://www.w3.org/2000/svg">
<path d="M3.59352 7.88682H9.80283V11.1335H3.59352V16.4335H0V1.41589H10.8042V4.70765H3.59548V7.88885L3.59352 7.88682Z" fill="#334156"/>
<path d="M11.6301 2.03278C11.6301 0.861833 12.5231 0 13.6506 0C14.7781 0 15.6711 0.861833 15.6711 2.03278C15.6711 3.20373 14.7565 4.04305 13.6506 4.04305C12.5448 4.04305 11.6301 3.18121 11.6301 2.03278ZM15.3951 16.4322H11.9495V5.71963H15.3951V16.4322Z" fill="#334156"/>
<path d="M27.942 16.2544C27.942 19.6117 25.6672 21.5544 22.4344 21.5544C19.2017 21.5544 17.0116 19.6997 16.8421 16.9156H20.2661C20.4159 17.9105 21.1374 18.5287 22.4147 18.5287C23.6053 18.5287 24.4983 17.7774 24.4983 16.3199V15.3045C23.7335 15.7692 22.8188 16.0558 21.6913 16.0558C18.8843 16.0558 16.5662 13.7364 16.5662 10.8439C16.5662 7.57464 18.8843 5.34534 21.6913 5.34534C22.8188 5.34534 23.7335 5.65445 24.4983 6.13962V5.71996H27.944V16.2544H27.942ZM24.4963 12.2134V9.25328C23.8577 8.50199 23.1145 8.26042 22.3694 8.26042C20.9659 8.26042 19.9231 9.29831 19.9231 10.8439C19.9231 12.0148 20.9659 13.2063 22.3694 13.2063C23.1145 13.2063 23.8577 12.9626 24.4963 12.2113V12.2134Z" fill="#334156"/>
<path d="M63.6759 11.0671C63.6759 14.2483 61.336 16.6557 58.5507 16.6557C57.4232 16.6557 56.5086 16.3466 55.7437 15.8614V21.405H52.2764V5.72411H55.7437V6.27682C56.5086 5.79166 57.4232 5.48254 58.5507 5.48254C61.336 5.48254 63.6759 7.86744 63.6759 11.0712V11.0671ZM60.2952 11.0671C60.2952 9.58701 59.2742 8.39354 57.8707 8.39354C57.1255 8.39354 56.3824 8.63715 55.7437 9.38844V12.7457C56.3824 13.497 57.1255 13.7181 57.8707 13.7181C59.2742 13.7181 60.2952 12.5471 60.2952 11.0671Z" fill="#334156"/>
<path d="M76.0511 16.4323H72.6054V15.8366C71.8406 16.3443 70.926 16.6534 69.7768 16.6534C66.9914 16.6534 64.6516 14.246 64.6516 11.0648C64.6516 7.8836 66.9914 5.4762 69.7768 5.4762C70.926 5.4762 71.8386 5.78531 72.6054 6.29299V5.71775H76.0511V16.4303V16.4323ZM72.6054 12.723V9.38822C71.9471 8.63693 71.2236 8.39333 70.4785 8.39333C69.075 8.39333 68.0322 9.5868 68.0322 11.0669C68.0322 12.5469 69.075 13.7179 70.4785 13.7179C71.2236 13.7179 71.9471 13.4968 72.6054 12.723Z" fill="#334156"/>
<path d="M84.5566 8.94722C82.8771 9.01273 81.8127 9.47741 81.0045 10.2942V16.4335H77.5371V5.72097H81.0045V6.8694C81.9191 6.0526 83.025 5.54492 84.5566 5.54492V8.94722Z" fill="#334156"/>
<path d="M96.4435 16.4323H92.9978V15.8366C92.2329 16.3443 91.3183 16.6534 90.1691 16.6534C87.3838 16.6534 85.0439 14.246 85.0439 11.0648C85.0439 7.8836 87.3838 5.4762 90.1691 5.4762C91.3183 5.4762 92.231 5.78531 92.9978 6.29299V5.71775H96.4435V16.4303V16.4323ZM92.9978 12.723V9.38822C92.3374 8.63693 91.616 8.39333 90.8709 8.39333C89.4674 8.39333 88.4246 9.5868 88.4246 11.0669C88.4246 12.5469 89.4674 13.7179 90.8709 13.7179C91.616 13.7179 92.3374 13.4968 92.9978 12.723Z" fill="#334156"/>
<path d="M49.3176 10.1972L45.7418 6.48372C45.1485 5.86754 44.1786 5.80818 43.5577 6.39775C42.8993 7.02416 42.8836 8.08457 43.5065 8.73351L45.1406 10.4306C45.6551 10.9649 45.6551 11.8328 45.1406 12.3692L43.5419 14.0294C42.9486 14.6456 42.8914 15.6527 43.4591 16.2976C44.0623 16.9813 45.0834 16.9977 45.7083 16.3508L49.3195 12.6005C49.6369 12.2709 49.7848 11.8328 49.769 11.3988C49.7848 10.9669 49.6369 10.5288 49.3195 10.1972H49.3176Z" fill="#FF5A5A"/>
<path d="M38.8623 6.95036C39.9918 8.0169 40.5555 9.38028 40.5555 11.0425C40.5555 12.7048 39.9918 14.0641 38.8623 15.1224C37.7328 16.1808 36.3628 16.7089 34.7483 16.7089C33.1339 16.7089 31.762 16.1808 30.6344 15.1224C29.5049 14.0641 28.9412 12.7048 28.9412 11.0425C28.9412 9.38028 29.5049 8.0169 30.6344 6.95036C31.7639 5.88586 33.1339 5.35156 34.7483 5.35156C36.3628 5.35156 37.7347 5.88381 38.8623 6.95036ZM36.2366 12.7253C36.6545 12.2708 36.8615 11.7099 36.8615 11.0425C36.8615 10.3752 36.6565 9.81426 36.2465 9.3598C35.8364 8.90534 35.3377 8.67812 34.7483 8.67812C34.159 8.67812 33.6602 8.90534 33.2502 9.3598C32.8402 9.81426 32.6352 10.3752 32.6352 11.0425C32.6352 11.7099 32.8442 12.2708 33.2601 12.7253C33.676 13.1797 34.1728 13.4069 34.7483 13.4069C35.3239 13.4069 35.8187 13.1797 36.2366 12.7253V12.7253Z" fill="#334156"/>
</svg>
