<svg xmlns="http://www.w3.org/2000/svg" width="110" height="22" viewBox="0 0 110 22">
    <g fill="none" fill-rule="evenodd">
        <g fill="#FF7F00">
            <path d="M60.112 13.354l2.26-.018c2.621 0 3.733-.06 3.776 2.191-.043 6.816.07.794 0 6.94h5.62V14.72c-.227-1.319.285-3.405-3.425-3.405 2.048 0 3.704-1.467 3.704-4.646 0-4.514-4.509-5.481-7.992-5.481h-9.523v21.28l5.58.005v-9.12zm0-3.846V5.327l2.342-.015c1.83 0 3.882-.163 3.882 2.014 0 2.182-2.052 2.164-3.88 2.164l-2.344.018zM6.642 22.484V9.311l2.962 13.173 5.276-.011 2.878-14.327v14.338h5.813l-.015-21.166H14.45l-1.583 9.997-1.987-9.997H2l.006 21.166h4.636zm19.72-.051h5.649V6.167h-5.648v16.266zm56.61.328c6.155 0 9.857-3.98 9.857-10.817 0-6.83-3.702-10.784-9.858-10.784-6.16 0-9.806 3.99-9.806 10.836 0 6.828 3.646 10.765 9.806 10.765zm4.05-10.733c0 3.083-.6 7.472-4.101 7.472-3.505 0-3.988-4.355-3.988-7.425 0-3.25.533-7.55 4.034-7.55 3.489 0 4.055 4.254 4.055 7.503zM47.125 14.59c0 4.584-3.61 4.466-3.793 4.466-2.505 0-3.988-2.88-3.988-6.982 0-3.393.767-7.675 4.141-7.675 1.727 0 3.266 1.409 3.196 3.344h5.553c-.62-4.785-3.965-6.683-9.473-6.702-5.275-.013-9.49 4.352-9.49 10.894s4.177 10.767 9.415 10.767c3.116 0 4.932-1.961 4.932-1.961v1.725s3.646.041 4.75 0V9.711h-9.416v3.842h4.173v1.038zM26.363 4.929h5.654V1.347h-5.654V4.93zm84.992 3.044C111.673 2.925 106.853 1 102.766 1c-4.144 0-8.584 1.535-8.789 6.494 0 2.263 1.098 4.414 3.098 5.334 4.314 2.006 8.807 1.57 8.807 4.14 0 2.125-1.85 2.447-3.107 2.447-1.972 0-3.361-1.73-3.333-3.694h-5.674c0 5.623 4.333 7.109 8.936 7.109 4.586 0 9.296-2.019 9.296-6.426 0-5.656-5.37-6.244-8.695-7.142-1.46-.407-3.28-.753-3.344-2.296-.032-.877.427-2.116 2.432-2.116.935 0 2.004.364 2.463.797.5.442 1.032 1.514 1.004 2.326h5.495z" transform="translate(-2 -1)"/>
        </g>
    </g>
</svg>
