<svg xmlns="http://www.w3.org/2000/svg" xmlns:xlink="http://www.w3.org/1999/xlink" width="180.711" height="96" viewBox="0 0 180.711 96"><defs><clipPath id="a"><rect width="180.711" height="96" fill="#fff"/></clipPath></defs><g clip-path="url(#a)"><path d="M26.767,81.04c.327.646,31.413,13.976,69.1,9.439,49-5.895,63.129-25.83,63.78-41.652C160.388,30.8,134.26,9.855,90.3,9.855c-41.9,0-69.1,19.531-69.1,38.525,0,12.3,12.56,26.639,40.847,28.779,10.866.822,38.685-1.266,59.235-6.555-9.494,4.54-23.836,9.479-43.465,11.85C40.532,86.937,0,74.89,0,48.542,0,21.45,41.85,0,90.5,0c53.091,0,90.207,24.219,90.207,48.786C180.711,72.775,143.383,96,84.96,96c-36.476,0-57.867-14.5-58.2-14.96" fill="#d30914"/><path d="M79.37,91.89c0-5.218,1.941-9.619,6.814-9.618s6.82,4.4,6.82,9.618c0,4.961-1.941,9.62-6.814,9.618s-6.819-4.661-6.82-9.618m-8.281,0c0,9.576,5.264,15.573,15.1,15.573s15.1-6,15.1-15.568c0-9.663-5.176-15.573-15.1-15.575s-15.1,5.9-15.1,15.57" transform="translate(-39.963 -42.9)" fill="#2e3459"/><path d="M148.212,107.612h8.023V96.27L167.271,77.5H158.04l-5.823,12.077L146.307,77.5h-9.231l11.13,18.765Z" transform="translate(-77.058 -43.569)" fill="#2e3459"/><path d="M214.043,95.495h-7.549l3.882-11.775h.087Zm-19.929,12.12h8.152l2.373-6.427h11.3l2.25,6.427h8.8l-11.613-30.1h-9.836Z" transform="translate(-109.122 -43.572)" fill="#2e3459"/><path d="M274.388,107.621h8.023V93.949h.087l9.361,13.674h10.224l-12-16.09,11.128-14.018H291.55l-9.057,12.3h-.087v-12.3h-8.023Z" transform="translate(-154.247 -43.573)" fill="#2e3459"/></g></svg>
