<?xml version="1.0" encoding="utf-8"?>
<!-- Generator: Adobe Illustrator 27.1.1, SVG Export Plug-In . SVG Version: 6.00 Build 0)  -->
<svg version="1.1" id="Layer_1" xmlns="http://www.w3.org/2000/svg" xmlns:xlink="http://www.w3.org/1999/xlink" x="0px" y="0px"
	 viewBox="0 0 116 32" style="enable-background:new 0 0 116 32;" xml:space="preserve">
<style type="text/css">
	.st0{fill:#3D3935;}
</style>
<path class="st0" d="M70.6,31c0-0.1-0.5-17.3-0.5-17.3c0.3-1.4,1.1-2,1.9-2.4l5.4-2.2c1-0.4,2.2,1.2,1,2c-1.1,0.8-3.8,1.8-5,6.6
	C73.2,18.5,73,28.9,72.9,31C71.7,32.2,70.6,31,70.6,31z"/>
<path class="st0" d="M35.5,3.4c1.1,0,1.9,0.9,1.9,1.9c0,1.1-0.9,1.9-1.9,1.9c-1.1,0-1.9-0.9-1.9-1.9C33.6,4.3,34.5,3.4,35.5,3.4z
	 M34.4,31c0-0.2-0.7-17.1-0.7-17.1l-0.1-2.1c0.5-0.4,1.1-0.6,1.9-0.6c0.9,0,1.4,0.2,2,0.6l-0.1,2.1c-0.1,2.3-0.7,17-0.7,17.1
	C35.5,32.2,34.4,31,34.4,31z"/>
<path class="st0" d="M25.6,0.8c0,0-0.2-0.6-0.7-0.7C24.7,0,24.3,0,23.9,0.3c-2.6,7.7-6.8,18.1-9.9,25.3c-0.8,1.6-1.6,1.6-2.4,0
	C8.5,18.5,4.3,8,1.7,0.3c0-0.1-0.6-0.4-1-0.3C0.2,0.1,0,0.7,0,0.8C1.2,5.6,8.8,28,9.8,30.2c1.2,2.5,4.7,2.5,5.9,0
	C16.7,28.1,24.2,5.5,25.6,0.8z"/>
<path class="st0" d="M85,31.2c1.5-4.7,8.9-27.3,9.9-29.4c1.2-2.5,4.7-2.5,5.9,0c1,2.2,8.6,24.6,9.8,29.4c0,0-0.2,0.6-0.7,0.7
	c-0.5,0.1-1-0.2-1-0.3c-1.2-3.4-2.5-6.9-4.1-10.9c-0.4-1-1-1.4-2-1.5l-7.4-0.4c-1.5-0.1-1.2-1.8-0.2-1.9l7.1-0.6
	c0.8,0,0.6-0.5,0.4-1.3c-0.1-0.4-1.4-3.3-3.7-8.7c-0.8-1.6-1.7-1.6-2.4,0c-3.1,7.1-7.3,17.6-9.9,25.3c-0.5,0.3-0.8,0.3-1.1,0.3
	C85.2,31.8,85,31.2,85,31.2z"/>
<path class="st0" d="M51.3,2.8c0.5-0.4,1-0.6,1.9-0.6c0.9,0,1.3,0.2,1.8,0.6c0,0-0.1,6.4,0,7.5l4.4-1.8c1.5-0.6,2.3,1.4,1.2,2.2
	c-1.2,0.9-4.4,2-5.6,7.8c-0.2,0.8-0.6,12.4-0.6,12.6c-1.2,1.2-2.2,0-2.2,0c-0.2-4.4-0.3-8.7-0.4-13.1c-0.1-2.6-0.7-3.8-0.9-4.2
	c0,0-0.1-0.1-0.1-0.2c-0.1-0.2-0.1-0.4-0.1-0.6c0-0.6,0.4-1.1,0.9-1.3C51.4,8.7,51.3,5.7,51.3,2.8z"/>
</svg>
