<svg width="136" height="30" viewBox="0 0 136 30" fill="none" xmlns="http://www.w3.org/2000/svg">
<path d="M5.88437 10.9752H14.5267V15.494H5.88437V22.8707H0.882812V1.96875H15.9204V6.5503H5.8871V10.978L5.88437 10.9752Z" fill="white"/>
<path d="M17.0703 2.82928C17.0703 1.19952 18.3132 0 19.8825 0C21.4518 0 22.6947 1.19952 22.6947 2.82928C22.6947 4.45904 21.4216 5.62722 19.8825 5.62722C18.3433 5.62722 17.0703 4.4277 17.0703 2.82928ZM22.3106 22.8707H17.5148V7.96074H22.3106V22.8707Z" fill="white"/>
<path d="M39.7746 22.621C39.7746 27.2938 36.6085 29.9977 32.109 29.9977C27.6096 29.9977 24.5614 27.4163 24.3255 23.5413H29.0911C29.2996 24.9261 30.3038 25.7865 32.0816 25.7865C33.7387 25.7865 34.9816 24.7408 34.9816 22.7122V21.299C33.9171 21.9458 32.6441 22.3447 31.0747 22.3447C27.1679 22.3447 23.9414 19.1165 23.9414 15.0905C23.9414 10.5403 27.1679 7.4375 31.0747 7.4375C32.6441 7.4375 33.9171 7.86773 34.9816 8.543V7.95891H39.7774V22.621H39.7746ZM34.9788 16.9967V12.8767C34.0899 11.831 33.0556 11.4948 32.0185 11.4948C30.0651 11.4948 28.6137 12.9394 28.6137 15.0905C28.6137 16.7203 30.0651 18.3785 32.0185 18.3785C33.0556 18.3785 34.0899 18.0395 34.9788 16.9938V16.9967Z" fill="white"/>
<path d="M89.5107 15.4055C89.5107 19.8332 86.254 23.1839 82.3774 23.1839C80.808 23.1839 79.535 22.7537 78.4705 22.0784V29.7941H73.6445V7.96904H78.4705V8.73831C79.535 8.06305 80.808 7.63281 82.3774 7.63281C86.254 7.63281 89.5107 10.9522 89.5107 15.4112V15.4055ZM84.8054 15.4055C84.8054 13.3455 83.3843 11.6844 81.4308 11.6844C80.3937 11.6844 79.3594 12.0235 78.4705 13.0691V17.7419C79.3594 18.7875 80.3937 19.0953 81.4308 19.0953C83.3843 19.0953 84.8054 17.4655 84.8054 15.4055Z" fill="white"/>
<path d="M106.733 22.8741H101.938V22.0449C100.873 22.7515 99.6 23.1818 98.0005 23.1818C94.1238 23.1818 90.8672 19.8311 90.8672 15.4034C90.8672 10.9757 94.1238 7.625 98.0005 7.625C99.6 7.625 100.87 8.05523 101.938 8.76184V7.96121H106.733V22.8712V22.8741ZM101.938 17.7113V13.0699C101.021 12.0242 100.014 11.6851 98.9772 11.6851C97.0238 11.6851 95.5724 13.3462 95.5724 15.4062C95.5724 17.4662 97.0238 19.096 98.9772 19.096C100.014 19.096 101.021 18.7883 101.938 17.7113Z" fill="white"/>
<path d="M118.571 12.4542C116.233 12.5453 114.752 13.1921 113.627 14.3289V22.8738H108.801V7.96378H113.627V9.56219C114.9 8.42535 116.439 7.71875 118.571 7.71875V12.4542Z" fill="white"/>
<path d="M135.116 22.8741H130.32V22.0449C129.256 22.7515 127.983 23.1818 126.383 23.1818C122.507 23.1818 119.25 19.8311 119.25 15.4034C119.25 10.9757 122.507 7.625 126.383 7.625C127.983 7.625 129.253 8.05523 130.32 8.76184V7.96121H135.116V22.8712V22.8741ZM130.32 17.7113V13.0699C129.401 12.0242 128.397 11.6851 127.36 11.6851C125.407 11.6851 123.955 13.3462 123.955 15.4062C123.955 17.4662 125.407 19.096 127.36 19.096C128.397 19.096 129.401 18.7883 130.32 17.7113Z" fill="white"/>
<path d="M69.5224 14.1959L64.5456 9.02737C63.7197 8.16976 62.3699 8.08713 61.5057 8.90771C60.5893 9.77957 60.5673 11.2555 61.4343 12.1587L63.7088 14.5207C64.4248 15.2643 64.4248 16.4724 63.7088 17.2189L61.4837 19.5296C60.6579 20.3873 60.5783 21.7891 61.3685 22.6866C62.208 23.6382 63.6292 23.661 64.4989 22.7606L69.5251 17.5409C69.9669 17.0821 70.1726 16.4724 70.1507 15.8684C70.1726 15.2672 69.9669 14.6574 69.5251 14.1959H69.5224Z" fill="#FF5A5A"/>
<path d="M54.9725 9.67056C56.5446 11.155 57.3292 13.0526 57.3292 15.3662C57.3292 17.6797 56.5446 19.5716 54.9725 21.0447C53.4004 22.5177 51.4937 23.2528 49.2467 23.2528C46.9997 23.2528 45.0901 22.5177 43.5208 21.0447C41.9487 19.5716 41.1641 17.6797 41.1641 15.3662C41.1641 13.0526 41.9487 11.155 43.5208 9.67056C45.0929 8.18896 46.9997 7.44531 49.2467 7.44531C51.4937 7.44531 53.4032 8.18611 54.9725 9.67056ZM51.3181 17.7082C51.8997 17.0757 52.1878 16.295 52.1878 15.3662C52.1878 14.4373 51.9024 13.6566 51.3318 13.0241C50.7611 12.3916 50.067 12.0753 49.2467 12.0753C48.4263 12.0753 47.7322 12.3916 47.1615 13.0241C46.5909 13.6566 46.3055 14.4373 46.3055 15.3662C46.3055 16.295 46.5964 17.0757 47.1753 17.7082C47.7542 18.3407 48.4455 18.657 49.2467 18.657C50.0478 18.657 50.7364 18.3407 51.3181 17.7082Z" fill="white"/>
</svg>
