<?xml version="1.0" encoding="utf-8"?>
<!-- Generator: Adobe Illustrator 25.0.1, SVG Export Plug-In . SVG Version: 6.00 Build 0)  -->
<svg version="1.0" id="katman_1" xmlns="http://www.w3.org/2000/svg" xmlns:xlink="http://www.w3.org/1999/xlink" x="0px" y="0px"
	 viewBox="0 0 174.6 105.2" style="enable-background:new 0 0 174.6 105.2;" xml:space="preserve">
<style type="text/css">
	.st0{fill-rule:evenodd;clip-rule:evenodd;fill:#FA0050;}
</style>
<g id="Symbols">
	<g id="Header" transform="translate(-222.000000, -23.000000)">
		<g id="Group-2" transform="translate(222.000000, 20.434783)">
			<g id="Logo-_x2F_-Banabi-_x2F_-Banabi-Horizontal" transform="translate(0.000000, 3.000000)">
				<path id="banabi-horizontal" class="st0" d="M162.7,41.3l-3.9,23.3h-53.2l4-23.3H162.7z M77.6,49.1c0.4,0,0.8,0.2,1.1,0.4
					c0.3,0.2,0.4,0.5,0.3,0.8l0,0.2c0.3-0.4,0.6-0.7,1.1-1c0.5-0.3,1-0.4,1.6-0.4c1.9,0,2.8,1.6,2.8,3.5v0c0,3.3-2,6.4-5.1,6.4
					c-0.3,0-0.7,0-1-0.1c-0.2,0-0.3-0.1-0.5-0.2h0c0,0-0.5,2.6-0.5,2.7c-0.2,0.9-0.4,1-1.1,1c-0.6,0.1-1.1-0.1-1.7-0.3h0
					c-0.3-0.2-0.5-0.3-0.4-0.8l0-0.1c0,0,0.5-2.5,1-5.1l0.1-0.5c0.5-2.8,1.1-5.7,1.1-5.7c0.1-0.5,0.2-0.7,0.6-0.8
					C77,49.1,77.3,49.1,77.6,49.1z M16.7,44.9c0.4-0.8,1-0.8,1.7-0.4c0.6,0.3,1,0.8,1.3,1.3c0.2,0.3,0.2,0.8,0,1.1
					c-0.9,1.3-1.7,2.5-2.6,3.9c-1.8,3-3.2,6.2-3.9,9.6c-0.1,0.6-0.6,1-1.2,1c-0.6,0.1-1.3,0-1.8-0.4c-0.3-0.2-0.5-0.6-0.6-1.1
					c0-1.1,0.2-2.2,0.6-3.2c0.4-1.1,1-2.2,1.5-3.2c0.1-0.2,0.1-0.4-0.1-0.6c-0.4-0.6-0.7-1.2-1-1.8C10,49.6,9.5,48,9.2,46.4
					c-0.1-0.3-0.1-0.6-0.1-0.8c-0.1-0.8,0.2-1.1,1.1-1.1c0.7,0,1.5,0.3,2,0.9c0.2,0.2,0.4,0.5,0.4,0.9c0.3,1.2,0.8,3.8,1,4.1l0,0
					l1.5-2.7C15.6,46.8,16.2,45.8,16.7,44.9z M63,49.1c0.9,0,1.8,0.1,2.6,0.4l0,0l0.1,0.1c0.7,0.4,0.6,0.6,0.5,1.1
					c-0.1,0.4-0.4,0.7-0.7,1l0,0v0c-0.2,0.2-0.2,0.2-0.7,0l0,0l-0.1,0c-0.5-0.1-1-0.2-1.5-0.2c-0.6,0-1.1,0.3-1,0.7
					c0,0.3,0.3,0.6,1,0.9c1.1,0.6,2.3,1.4,2.3,2.6c0.1,2.2-1.6,3.5-4.2,3.5c-0.9,0-1.7-0.1-2.5-0.4c-0.6-0.3-0.7-0.5-0.6-1
					c0-0.4,0.2-0.8,0.5-1.1c0.2-0.2,0.4-0.3,0.8-0.1c0.6,0.3,1.3,0.4,2,0.4c0.6,0,0.9-0.3,0.9-0.7c0-0.4-0.3-0.6-1.1-1
					c-1.1-0.6-2.1-1.4-2.1-2.5C58.8,50.6,60.5,49.1,63,49.1z M90.4,49.1c1.9,0.1,3.2,1.3,3.2,3.1c-0.1,2.5-2.2,3.4-5.8,3.2
					c0,0.3,0.1,0.5,0.3,0.7c0.4,0.4,1,0.6,1.5,0.5c0.5,0,1.1-0.1,1.6-0.2c0.4-0.1,0.6,0,0.8,0.3c0.2,0.3,0.4,0.7,0.4,1.2h0
					c0,0.3,0,0.5-0.5,0.7c-1,0.4-2.1,0.5-3.2,0.5c-2.7-0.1-4-1.6-3.9-4.1C85,52,87,49,90.4,49.1z M71.6,49.1
					c1.9,0.1,3.2,1.3,3.2,3.1c-0.1,2.5-2.2,3.4-5.8,3.2c0,0.3,0.1,0.5,0.3,0.7c0.4,0.4,1,0.6,1.5,0.5c0.5,0,1.1-0.1,1.6-0.2
					c0.4-0.1,0.6,0,0.8,0.3c0.2,0.3,0.3,0.7,0.4,1.2c0,0.3,0,0.5-0.5,0.7c-1,0.4-2.1,0.5-3.2,0.5c-2.7-0.1-4-1.6-3.9-4.1
					C66.2,52,68.2,49,71.6,49.1z M46,49.1c1.9,0.1,3.2,1.3,3.2,3.1c-0.1,2.5-2.2,3.4-5.8,3.2c0,0.3,0.1,0.5,0.3,0.7
					c0.4,0.4,1,0.6,1.5,0.5c0.5,0,1.1-0.1,1.6-0.2c0.4-0.1,0.6,0,0.8,0.3c0.2,0.3,0.4,0.7,0.4,1.2c0,0.3,0,0.5-0.5,0.7
					c-1,0.4-2.1,0.5-3.2,0.5c-2.7-0.1-4-1.6-3.9-4.1C40.5,52,42.5,49,46,49.1z M22.7,49.1c1.9,0.1,3.2,1.3,3.2,3.1
					c-0.1,2.5-2.2,3.4-5.8,3.2c0,0.3,0.1,0.5,0.3,0.7c0.4,0.4,1,0.6,1.5,0.5c0.5,0,1.1-0.1,1.6-0.2c0.4-0.1,0.6,0,0.8,0.3
					c0.2,0.3,0.3,0.7,0.4,1.2c0,0.3,0,0.5-0.5,0.7c-1,0.4-2.1,0.5-3.2,0.5c-2.7-0.1-4-1.6-3.9-4.1C17.3,52,19.3,49,22.7,49.1z
					 M102.5,49.1c0.5,0,1,0.1,1.5,0.3c0.4,0.2,0.6,0.6,0.5,1l0,0l-1.1,7.5c-0.1,0.9-0.4,1-1,1c-0.6,0.1-1.1,0-1.7-0.2
					c-0.2,0-0.3-0.2-0.4-0.3c-0.1-0.2-0.1-0.4-0.1-0.5c0,0,0,0,0,0l0-0.1c0.1-1,1.1-7.8,1.1-7.8C101.5,49.4,101.7,49.1,102.5,49.1z
					 M32.8,49.1c1-0.1,1.9,0.6,2,1.6c0.7-1,1.8-1.6,3-1.6l0,0l0,0c1.5,0,2.2,1,2.2,2.5c0,0.6-0.1,1.2-0.2,1.7l0,0L38.9,58
					c-0.2,0.8-0.6,1-1.3,0.9c-0.5,0-1-0.2-1.5-0.5c-0.3-0.2-0.3-0.6-0.2-0.9l0,0l0.8-3.9c0.1-0.4,0.1-0.8,0.1-1.2
					c0-0.5-0.2-0.8-0.6-0.8c-0.7,0-1.3,1-1.7,2.9l0,0l-0.7,3.6c-0.1,0.7-0.5,0.9-1.3,0.9c-0.5,0-1-0.2-1.4-0.5
					c-0.3-0.2-0.4-0.5-0.3-0.9l0,0l0.8-4c0.1-0.4,0.1-0.8,0.1-1.1c0-0.5-0.2-0.9-0.6-0.9c-0.7,0-1.4,1-1.8,2.9l0,0l-0.8,3.9
					c-0.1,0.5-0.7,0.6-1.3,0.5c-0.5,0-1-0.2-1.4-0.5c-0.2-0.2-0.3-0.4-0.2-0.9l0,0l1.5-7.7c0.1-0.7,0.5-0.7,1-0.7
					c0.5,0,0.9,0.1,1.3,0.3c0.3,0.2,0.5,0.5,0.4,0.9c0,0.1-0.1,0.4-0.1,0.4C30.5,49.7,31.6,49.1,32.8,49.1z M52.4,44.9
					c0.5,0,1.1,0.2,1.5,0.4c0.3,0.2,0.4,0.6,0.3,1c-0.1,0.6-0.4,1.8-0.6,3l-0.1,0.4c-0.3,1.5-0.5,2.8-0.5,2.8s0.8-0.8,1.6-1.6
					l0.4-0.4c0.3-0.3,0.6-0.5,0.7-0.7c0.4-0.4,0.7-0.6,1-0.6c0.5,0,1.1,0.2,1.5,0.5c0.5,0.4,0.6,0.9,0.2,1.3l-3,2.7
					c0,0,1.6,3.6,1.8,4.1c0.2,0.4,0,0.7-0.6,0.9c-0.6,0.2-1.3,0.3-1.9,0.2c-0.3,0-0.5-0.2-0.6-0.5l-1.1-3L52.4,56L52,58
					c-0.2,0.8-0.5,0.9-1.1,1c-0.5,0-1.1,0-1.6-0.3c-0.4-0.2-0.6-0.4-0.4-1.1l2.2-11.7C51.3,45.2,51.4,44.9,52.4,44.9z M97,46.6
					c0.5,0,1.1,0.1,1.5,0.3c0.2,0,0.3,0.2,0.4,0.3c0.1,0.2,0.1,0.3,0,0.5c0,0-0.3,1.6-0.3,1.6l0,0h1c0.2,0,0.4,0.1,0.5,0.2
					c0.1,0.1,0.2,0.3,0.2,0.5c0,0.3-0.1,0.5-0.2,1.1c-0.1,0.3-0.3,0.5-0.6,0.6l0,0h-1.4l-0.6,3.1c-0.1,0.3-0.1,0.7-0.2,1
					c0,0.2,0.1,0.4,0.2,0.5c0.2,0.1,0.6,0,0.8,0c0.3-0.1,0.6,0.1,0.7,0.4c0.1,0.3,0.2,0.6,0.1,0.9c0,0.5-0.1,0.7-0.8,1
					c-0.5,0.3-1.1,0.4-1.6,0.4c-1.7,0-2.5-0.9-2.6-2.2c0-0.5,0.1-1.1,0.2-1.6l0,0l0.7-3.5h-0.4c-0.7,0-0.6-0.5-0.6-0.8
					c0.1-0.4,0.2-0.8,0.2-1c0.1-0.3,0.3-0.5,0.6-0.5l0,0h0.6l0.3-1.7C96.2,46.7,96.4,46.6,97,46.6z M129.7,49.8l-0.1,0
					c-0.6,0-0.7,0.3-0.8,0.8l0,0.1l-1.3,6.9l0,0.1c-0.1,0.5,0.1,0.7,0.4,0.8c0.4,0.2,0.9,0.3,1.4,0.3c0.5,0,0.7-0.1,0.8-0.7l0-0.1
					l0.6-3.1l0-0.2c0.3-1.5,0.9-2.3,1.5-2.3c0.4,0,0.6,0.3,0.6,0.7c0,0.3,0,0.5-0.1,0.8l0,0.3l-0.7,3.5l0,0.1
					c-0.1,0.3,0,0.5,0.2,0.7c0.4,0.3,0.8,0.4,1.3,0.5c0.6,0.1,0.9-0.1,1.1-0.7l0-0.1l0.8-4.2l0.1-0.4c0.1-0.4,0.1-0.8,0.1-1.2
					c0-1.3-0.6-2.2-1.9-2.2c-0.8,0-1.6,0.3-2.2,0.9l-0.1,0.1v0l0-0.1c0-0.3-0.1-0.6-0.3-0.7c-0.4-0.2-0.8-0.3-1.2-0.4l-0.2,0
					L129.7,49.8z M124.9,49.8c-4,0-5.6,3.2-5.7,6c0,1.7,0.9,2.9,2.3,2.9c0.7,0,1.4-0.3,1.9-0.9c0,0.2,0.1,0.4,0.2,0.5
					c0.4,0.3,0.8,0.4,1.3,0.4c0.6,0.1,1-0.1,1.1-0.7l0-0.1l0.8-4.1l0.6-3.1l0-0.1c0-0.3-0.2-0.5-0.4-0.6
					C126.4,50,125.6,49.9,124.9,49.8z M142,49.8c-4,0-5.6,3.2-5.7,6c0,1.7,0.9,2.9,2.3,2.9c0.7,0,1.4-0.3,1.9-0.9
					c0,0.2,0.1,0.4,0.2,0.5c0.4,0.3,0.8,0.4,1.3,0.4c0.6,0.1,1-0.1,1.1-0.7l0-0.1l0.8-4.1l0.6-3.1l0-0.1c0-0.3-0.1-0.5-0.4-0.6
					C143.5,50,142.7,49.9,142,49.8z M155.2,49.7c-0.7,0-0.9,0.2-1,0.7c0,0-1,7.3-1,7.3c0,0.2,0,0.3,0.1,0.5c0.1,0.2,0.2,0.3,0.4,0.3
					c0.5,0.2,1,0.3,1.5,0.2c0.5-0.1,0.8-0.1,0.9-0.8l0-0.1l1-6.9l0-0.1c0-0.3-0.2-0.7-0.5-0.8C156.1,49.8,155.7,49.7,155.2,49.7z
					 M147.6,46.3l-0.2,0c-0.5,0.1-0.7,0.1-0.9,0.6l0,0.1l0,0.1l-1.5,7.5l-0.1,0.3l-0.1,0.3c-0.1,0.4-0.1,0.8-0.1,1.2
					c0,1.5,0.8,2.3,2.8,2.3c3.5,0,5.2-3,5.3-6c0-1.3-0.6-2.8-2.2-2.8c-0.7,0-1.5,0.3-2,0.8l-0.1,0.1l-0.1,0.1l0.8-3.6l0,0l0-0.1
					c0.1-0.4-0.1-0.6-0.3-0.7l-0.1,0h0l-0.1-0.1c-0.3-0.1-0.6-0.2-0.9-0.2L147.6,46.3z M113.4,46.3l-0.2,0c-0.5,0.1-0.7,0.1-0.9,0.6
					l0,0.1l0,0.1l-1.5,7.5l-0.1,0.3l-0.1,0.3c-0.1,0.4-0.1,0.8-0.1,1.2c0,1.5,0.8,2.3,2.8,2.3c3.5,0,5.2-3,5.3-6
					c0-1.3-0.6-2.8-2.2-2.8c-0.7,0-1.5,0.3-2,0.8l-0.1,0.1l-0.1,0.1l0.8-3.6l0,0l0-0.1c0.1-0.4-0.1-0.6-0.3-0.7l-0.1,0h0l-0.1-0.1
					c-0.3-0.1-0.6-0.2-0.9-0.3L113.4,46.3z M80.2,51.8c-0.3,0-0.5,0.1-0.7,0.3c-0.6,0.5-0.9,1.3-1,2.1l-0.4,2.3
					c0.1,0.1,0.3,0.2,0.5,0.3c0.1,0,0.3,0,0.4,0c1.2,0,2.1-2.2,2.1-3.7v0C81,52.4,80.8,51.8,80.2,51.8z M149.3,52.3
					c0.5,0,0.7,0.5,0.7,1.1l0,0.1l0,0l0,0.1c0,1.2-0.8,3.1-1.8,3.1c-0.4,0-0.7-0.3-0.7-0.8c0-0.2,0-0.4,0.1-0.7l0-0.2l0.2-0.9l0-0.1
					C148.1,53,148.7,52.3,149.3,52.3z M115.1,52.3c0.5,0,0.7,0.5,0.7,1.1l0,0.1l0,0l0,0.1c0,1.2-0.8,3.1-1.8,3.1
					c-0.4,0-0.6-0.3-0.7-0.8c0-0.2,0-0.4,0.1-0.7l0-0.2l0.2-0.9l0-0.1C113.9,53,114.5,52.3,115.1,52.3z M124.1,52c0.1,0,0.2,0,0.3,0
					l0.2,0l-0.4,2l0,0c0,0.1-0.1,0.5-0.1,0.5c-0.4,1.4-0.9,1.9-1.4,1.9c-0.5,0-0.7-0.5-0.7-1.2C122,54.1,122.8,52,124.1,52z
					 M141.2,52c0.1,0,0.2,0,0.3,0l0.2,0l-0.4,2l0,0c0,0.1-0.1,0.5-0.1,0.5c-0.4,1.4-0.9,1.9-1.3,1.9c-0.5,0-0.7-0.5-0.7-1.2
					C139.1,54.1,139.9,52,141.2,52z M22.3,51.5c-0.9,0-1.6,0.7-1.8,1.6h0c1.7,0.1,2.4-0.2,2.5-0.8l0-0.1
					C23,51.8,22.8,51.5,22.3,51.5z M45.6,51.5c-0.9,0-1.7,0.7-1.8,1.6c1.7,0.1,2.4-0.2,2.5-0.8l0-0.1C46.3,51.8,46,51.5,45.6,51.5z
					 M71.2,51.5c-0.9,0-1.7,0.7-1.8,1.6c1.7,0.1,2.4-0.2,2.5-0.8l0-0.1c0-0.2-0.1-0.4-0.2-0.5C71.6,51.5,71.4,51.5,71.2,51.5z
					 M90,51.5c-0.9,0-1.7,0.7-1.8,1.6h0c1.7,0.1,2.4-0.2,2.5-0.8l0-0.1C90.7,51.8,90.5,51.5,90,51.5z M156.1,46.3l-0.1,0
					c-0.4,0-0.8,0.2-1,0.5s-0.4,0.7-0.4,1.1c0,0.3,0.1,0.7,0.4,0.9c0.2,0.2,0.4,0.3,0.7,0.3l0.1,0l0.1,0l0.1,0c0.4,0,0.7-0.2,1-0.5
					c0.3-0.3,0.4-0.7,0.4-1.1c0-0.4-0.2-0.7-0.4-0.9c-0.2-0.2-0.5-0.3-0.7-0.3L156.1,46.3z M103.3,45.4c0.4,0,0.8,0.1,1,0.4
					c0.3,0.3,0.4,0.6,0.5,1c0,0.4-0.1,0.9-0.4,1.2s-0.7,0.5-1.2,0.5l0,0l-0.1,0c-0.3,0-0.6-0.1-0.9-0.4c-0.3-0.3-0.4-0.6-0.4-1
					c0-0.4,0.1-0.9,0.4-1.2S102.9,45.4,103.3,45.4z"/>
			</g>
		</g>
	</g>
</g>
</svg>
